<svg width="4400" height="2134" xmlns="http://www.w3.org/2000/svg" xmlns:xlink="http://www.w3.org/1999/xlink" overflow="hidden"><defs><clipPath id="clip0"><rect x="-18" y="131" width="4400" height="2134"/></clipPath><clipPath id="clip1"><rect x="524" y="130" width="3315" height="893"/></clipPath><clipPath id="clip2"><rect x="524" y="130" width="3315" height="894"/></clipPath><clipPath id="clip3"><rect x="524" y="130" width="3315" height="894"/></clipPath><clipPath id="clip4"><rect x="-18" y="1522" width="4401" height="743"/></clipPath><clipPath id="clip5"><rect x="-18" y="1522" width="4401" height="743"/></clipPath><clipPath id="clip6"><rect x="-18" y="1522" width="4401" height="743"/></clipPath></defs><g clip-path="url(#clip0)" transform="translate(18 -131)"><path d="M1341 1173.67C1341 1135.19 1372.19 1104 1410.67 1104L2989.33 1104C3027.81 1104 3059 1135.19 3059 1173.67L3059 1452.33C3059 1490.81 3027.81 1522 2989.33 1522L1410.67 1522C1372.19 1522 1341 1490.81 1341 1452.33Z" stroke="#4472C4" stroke-width="13.75" stroke-linejoin="round" stroke-miterlimit="10" fill="none" fill-rule="evenodd"/><text font-family="Arial,Arial_MSFontService,sans-serif" font-weight="400" font-size="110" transform="matrix(1 0 0 1 1444.61 1288)">AutoTemplate for reaction data <tspan font-size="110" x="559.442" y="132">curation</tspan></text><path d="M2005.5 1044.5 2103 1044.5 2103 997.5 2298 997.5 2298 1044.5 2395.5 1044.5 2200.5 1091.5Z" stroke="#2F528F" stroke-width="4.58333" stroke-miterlimit="8" fill="#4472C4" fill-rule="evenodd"/><path d="M2005.5 1584 2103 1584 2103 1536.5 2298 1536.5 2298 1584 2395.5 1584 2200.5 1631.5Z" stroke="#2F528F" stroke-width="4.58333" stroke-miterlimit="8" fill="#4472C4" fill-rule="evenodd"/><path d="M146.5 990.167C146.5 978.2 156.2 968.5 168.167 968.5L1092.83 968.5C1104.8 968.5 1114.5 978.2 1114.5 990.167L1114.5 1076.83C1114.5 1088.8 1104.8 1098.5 1092.83 1098.5L168.167 1098.5C156.2 1098.5 146.5 1088.8 146.5 1076.83Z" stroke="#FFFFFF" stroke-width="4.58333" stroke-miterlimit="8" fill="#FF4545" fill-rule="evenodd"/><text font-family="Arial,Arial_MSFontService,sans-serif" font-weight="400" font-size="83" transform="matrix(1 0 0 1 233.969 1064)">Wrong atom<tspan font-size="83" x="449.167" y="0">-</tspan>mapping</text><path d="M146.5 1154.17C146.5 1142.2 156.2 1132.5 168.167 1132.5L1092.83 1132.5C1104.8 1132.5 1114.5 1142.2 1114.5 1154.17L1114.5 1240.83C1114.5 1252.8 1104.8 1262.5 1092.83 1262.5L168.167 1262.5C156.2 1262.5 146.5 1252.8 146.5 1240.83Z" stroke="#FFFFFF" stroke-width="4.58333" stroke-miterlimit="8" fill="#FFC786" fill-rule="evenodd"/><text font-family="Arial,Arial_MSFontService,sans-serif" font-weight="400" font-size="83" transform="matrix(1 0 0 1 213.344 1228)">Atom<tspan font-size="83" x="192.5" y="0">-</tspan>mapping curated</text><path d="M146.5 1318.17C146.5 1306.2 156.2 1296.5 168.167 1296.5L1092.83 1296.5C1104.8 1296.5 1114.5 1306.2 1114.5 1318.17L1114.5 1404.83C1114.5 1416.8 1104.8 1426.5 1092.83 1426.5L168.167 1426.5C156.2 1426.5 146.5 1416.8 146.5 1404.83Z" stroke="#FFFFFF" stroke-width="4.58333" stroke-miterlimit="8" fill="#63E61D" fill-rule="evenodd"/><text font-family="Arial,Arial_MSFontService,sans-serif" font-weight="400" font-size="83" transform="matrix(1 0 0 1 316.469 1392)">Reactant curated</text><g clip-path="url(#clip1)"><g clip-path="url(#clip2)"><g clip-path="url(#clip3)"><path d="M80.2389 527.581C80.0783 546.245 95.0775 561.504 113.741 561.665 132.404 561.826 147.663 546.826 147.824 528.163 147.826 527.969 147.826 527.775 147.824 527.581 147.985 508.918 132.985 493.659 114.322 493.498 95.6593 493.337 80.3996 508.337 80.2389 527 80.2373 527.194 80.2373 527.388 80.2389 527.581Z" fill="#FF4545" transform="matrix(1 0 0 1.00015 525 131.595)"/><path d="M707.679 351.36C707.679 379.015 730.098 401.434 757.753 401.434 785.407 401.434 807.826 379.015 807.826 351.36 807.826 323.705 785.407 301.287 757.753 301.287 730.098 301.287 707.679 323.705 707.679 351.36Z" fill="#FF4545" transform="matrix(1 0 0 1.00015 525 131.595)"/><text font-family="Arial,Arial_MSFontService,sans-serif" font-weight="400" font-size="18" transform="matrix(3.13009 0 0 3.13055 596.262 702)">1<tspan font-size="18" x="55.642" y="36.4153">15</tspan><tspan font-size="18" x="120.546" y="0">14</tspan><tspan font-size="18" x="107.502" y="-79.5387">13</tspan><tspan font-size="18" x="159.443" y="-109.565">12</tspan><tspan font-size="24" x="209.985" y="-60.6922">O</tspan><tspan font-size="18" x="231.063" y="-52.0675">4</tspan><tspan font-size="18" x="55.642" y="-109.565">18</tspan><tspan font-size="18" x="-9.339" y="-73.1501">17</tspan></text><path d="M108.529 530.755 119.184 524.608 276.609 615.534 276.609 627.838Z" transform="matrix(1 0 0 1.00015 525 131.595)"/><path d="M276.609 627.838 276.609 615.534 434.096 524.608 444.751 530.758Z" transform="matrix(1 0 0 1.00015 525 131.595)"/><path d="M444.751 530.758 434.096 524.608 434.096 342.815 439.248 339.838 444.4 342.812Z" transform="matrix(1 0 0 1.00015 525 131.595)"/><path d="M444.4 342.812 439.248 339.838 439.248 333.888 601.866 239.619 601.872 251.923Z" transform="matrix(1 0 0 1.00015 525 131.595)"/><path d="M601.872 251.923 601.866 239.619 734.504 316.438 729.183 325.653Z" transform="matrix(1 0 0 1.00015 525 131.595)"/><path d="M599.165 281.328 604.486 272.109 721.204 339.478 715.883 348.697Z" transform="matrix(1 0 0 1.00015 525 131.595)"/><path d="M439.248 333.888 439.248 339.838 434.096 342.815 276.609 251.949 276.609 239.647Z" transform="matrix(1 0 0 1.00015 525 131.595)"/><path d="M276.609 239.647 276.609 251.949 119.184 342.812 108.529 336.661Z" transform="matrix(1 0 0 1.00015 525 131.595)"/><path d="M119.184 524.608 108.529 530.755 108.529 336.661 119.184 342.812Z" transform="matrix(1 0 0 1.00015 525 131.595)"/><text font-family="Arial,Arial_MSFontService,sans-serif" font-weight="400" font-size="18" transform="matrix(3.13009 0 0 3.13055 2861.91 781)">1<tspan font-size="18" x="8.80705" y="-79.5387">2</tspan><tspan font-size="18" x="-8.60901" y="-139.273">3</tspan><tspan font-size="24" x="47.681" y="-160.355">OH</tspan><tspan font-size="18" x="84.9251" y="-175.368">4</tspan><tspan font-size="18" x="51.96" y="-30.0267">5</tspan><tspan font-size="24" x="99.625" y="-70.5946">O</tspan><tspan font-size="18" x="103.945" y="-97.1075">6</tspan><tspan font-size="18" x="155.935" y="-30.0267">7</tspan><tspan font-size="18" x="207.795" y="-59.7339">8</tspan><tspan font-size="24" x="203.525" y="-130.648">O</tspan><tspan font-size="18" x="207.845" y="-156.841">9</tspan><tspan font-size="24" x="256.125" y="-40.5679">Cl</tspan><tspan font-size="18" x="280.265" y="-31.9433">10</tspan><tspan font-size="24" x="-55.551" y="-40.5679">N</tspan><tspan font-size="24" x="-55.551" y="-20.4437">H</tspan><tspan font-size="18" x="-56.8959" y="-0.319433">11</tspan><tspan font-size="18" x="-108.886" y="-85.9274">12</tspan><tspan font-size="18" x="-160.827" y="-55.9007">13</tspan><tspan font-size="18" x="-147.783" y="23.638">14</tspan><tspan font-size="18" x="-212.687" y="60.0533">15</tspan><tspan font-size="18" x="-277.669" y="23.638">16</tspan><tspan font-size="18" x="-277.668" y="-49.512">17</tspan><tspan font-size="18" x="-212.687" y="-85.9274">18</tspan></text><path d="M2358.06 586.928 2347.42 586.928 2347.88 407.427 2352.74 399.185 2357.58 407.574Z" transform="matrix(1 0 0 1.00015 525 131.595)"/><path d="M2357.89 396.208 2352.74 399.185 2347.58 396.271 2347.23 208.212 2357.89 214.359Z" transform="matrix(1 0 0 1.00015 525 131.595)"/><path d="M2357.89 214.359 2347.23 208.212 2477.43 133.302 2482.75 142.52Z" transform="matrix(1 0 0 1.00015 525 131.595)"/><path d="M2357.58 407.574 2352.74 399.185 2357.89 396.208 2515.44 487.103 2515.41 499.407Z" transform="matrix(1 0 0 1.00015 525 131.595)"/><path d="M2515.41 499.407 2515.44 487.103 2640.02 414.945 2645.34 424.16Z" transform="matrix(1 0 0 1.00015 525 131.595)"/><path d="M2710.85 424.32 2716.17 415.102 2840.47 487.103 2840.5 499.407Z" transform="matrix(1 0 0 1.00015 525 131.595)"/><path d="M2840.5 499.407 2840.47 487.103 3003.2 392.809 3003.2 405.11Z" transform="matrix(1 0 0 1.00015 525 131.595)"/><path d="M2995.19 406.86 2984.55 406.86 2984.55 254.334 2995.19 254.334Z" transform="matrix(1 0 0 1.00015 525 131.595)"/><path d="M3021.79 406.863 3011.15 406.863 3011.15 254.334 3021.79 254.334Z" transform="matrix(1 0 0 1.00015 525 131.595)"/><path d="M3003.2 405.11 3003.2 392.809 3137.33 470.473 3132.01 479.688Z" transform="matrix(1 0 0 1.00015 525 131.595)"/><path d="M2347.58 396.271 2352.74 399.185 2347.88 407.427 2229.41 476.511 2224.09 467.296Z" transform="matrix(1 0 0 1.00015 525 131.595)"/><path d="M2155.92 467.117 2150.6 476.332 2027.64 405.107 2027.64 392.803Z" transform="matrix(1 0 0 1.00015 525 131.595)"/><path d="M2027.63 392.803 2027.63 405.107 1870.15 495.999 1865 493.025 1865 487.075Z" transform="matrix(1 0 0 1.00015 525 131.595)"/><path d="M1859.85 496.002 1865.01 493.025 1870.16 495.999 1870.51 683.945 1859.85 677.795Z" transform="matrix(1 0 0 1.00015 525 131.595)"/><path d="M1859.85 677.795 1870.51 683.945 1702.37 781.025 1702.37 768.721Z" transform="matrix(1 0 0 1.00015 525 131.595)"/><path d="M1702.37 768.721 1702.37 781.025 1534.29 683.942 1544.94 677.795Z" transform="matrix(1 0 0 1.00015 525 131.595)"/><path d="M1544.94 677.795 1534.29 683.942 1534.29 489.848 1544.94 495.999Z" transform="matrix(1 0 0 1.00015 525 131.595)"/><path d="M1544.94 495.999 1534.29 489.848 1702.37 392.834 1702.37 405.135Z" transform="matrix(1 0 0 1.00015 525 131.595)"/><path d="M1865.01 487.075 1865.01 493.025 1859.85 496.002 1702.37 405.135 1702.37 392.834Z" transform="matrix(1 0 0 1.00015 525 131.595)"/><path d="M1255.42 439 971.489 439 971.489 428.357 1255.42 428.357Z" transform="matrix(1 0 0 1.00015 525 131.595)"/><path d="M1348.23 433.679C1348.23 433.679 1241.8 460.597 1241.8 460.597 1241.8 460.597 1255.11 445.454 1255.11 433.679 1255.11 421.766 1241.8 406.447 1241.8 406.447 1241.8 406.447 1348.23 433.679 1348.23 433.679 1348.23 433.679 1348.23 433.679 1348.23 433.679" transform="matrix(1 0 0 1.00015 525 131.595)"/><path d="M1348.23 433.679C1348.23 433.679 1241.8 460.597 1241.8 460.597 1241.8 460.597 1255.11 445.454 1255.11 433.679 1255.11 421.766 1241.8 406.447 1241.8 406.447 1241.8 406.447 1348.23 433.679 1348.23 433.679 1348.23 433.679 1348.23 433.679 1348.23 433.679" stroke="#000000" stroke-width="0.313009" fill="none" transform="matrix(1 0 0 1.00015 525 131.595)"/><path d="M144.018 433.741C144.018 506.969 203.381 566.332 276.609 566.332 349.836 566.332 409.199 506.969 409.199 433.741 409.211 360.513 349.857 301.141 276.629 301.13 203.401 301.119 144.029 360.473 144.018 433.7 144.018 433.714 144.018 433.728 144.018 433.741Z" stroke="#000000" stroke-width="10.6423" fill="none" transform="matrix(1 0 0 1.00015 525 131.595)"/><path d="M1569.78 586.928C1569.78 660.156 1629.14 719.519 1702.37 719.519 1775.59 719.519 1834.96 660.156 1834.96 586.928 1834.96 513.7 1775.59 454.337 1702.37 454.337 1629.14 454.337 1569.78 513.7 1569.78 586.928Z" stroke="#000000" stroke-width="10.6423" fill="none" transform="matrix(1 0 0 1.00015 525 131.595)"/></g></g></g><g clip-path="url(#clip4)"><g clip-path="url(#clip5)"><g clip-path="url(#clip6)"><path d="M1445.02 413.803 1527.46 270.977 1476.04 241.301 1393.6 384.127Z" fill="#63E61D" transform="matrix(1 0 0 1.00067 -17.9999 1522)"/><path d="M1472.07 256.139C1472.07 272.533 1485.36 285.823 1501.75 285.823 1518.15 285.823 1531.44 272.533 1531.44 256.139 1531.44 239.745 1518.15 226.455 1501.75 226.455 1485.36 226.455 1472.07 239.745 1472.07 256.139Z" fill="#63E61D" transform="matrix(1 0 0 1.00067 -17.9999 1522)"/><path d="M1389.63 398.965C1389.63 415.359 1402.92 428.649 1419.31 428.649 1435.71 428.649 1449 415.359 1449 398.965 1449 382.571 1435.71 369.28 1419.31 369.28 1402.92 369.28 1389.63 382.571 1389.63 398.965Z" fill="#63E61D" transform="matrix(1 0 0 1.00067 -17.9999 1522)"/><path d="M1291.33 507.165 1434.16 424.67 1404.47 373.259 1261.64 455.754Z" fill="#63E61D" transform="matrix(1 0 0 1.00067 -17.9999 1522)"/><path d="M1389.63 398.965C1389.63 415.359 1402.92 428.649 1419.31 428.649 1435.71 428.649 1449 415.359 1449 398.965 1449 382.571 1435.71 369.28 1419.31 369.28 1402.92 369.28 1389.63 382.571 1389.63 398.965Z" fill="#63E61D" transform="matrix(1 0 0 1.00067 -17.9999 1522)"/><path d="M1246.8 481.459C1246.8 497.854 1260.09 511.144 1276.49 511.144 1292.88 511.144 1306.17 497.854 1306.17 481.459 1306.17 465.065 1292.88 451.775 1276.49 451.775 1260.09 451.775 1246.8 465.065 1246.8 481.459Z" fill="#63E61D" transform="matrix(1 0 0 1.00067 -17.9999 1522)"/><path d="M1150.04 442.714 1261.64 507.168 1291.34 455.751 1179.74 391.296Z" fill="#63E61D" transform="matrix(1 0 0 1.00067 -17.9999 1522)"/><path d="M1246.8 481.459C1246.8 497.857 1260.09 511.149 1276.49 511.149 1292.88 511.149 1306.18 497.857 1306.18 481.459 1306.18 465.062 1292.88 451.77 1276.49 451.77 1260.09 451.77 1246.8 465.062 1246.8 481.459Z" fill="#63E61D" transform="matrix(1 0 0 1.00067 -17.9999 1522)"/><path d="M1135.21 417.006C1135.14 433.403 1148.37 446.752 1164.77 446.823 1181.16 446.893 1194.51 433.658 1194.58 417.262 1194.58 417.177 1194.58 417.092 1194.58 417.006 1194.65 400.61 1181.42 387.261 1165.02 387.19 1148.63 387.12 1135.28 400.354 1135.21 416.751 1135.21 416.836 1135.21 416.921 1135.21 417.006Z" fill="#63E61D" transform="matrix(1 0 0 1.00067 -17.9999 1522)"/><path d="M1576.98 455.754 1434.16 373.259 1404.47 424.67 1547.29 507.165Z" fill="#63E61D" transform="matrix(1 0 0 1.00067 -17.9999 1522)"/><path d="M1389.63 398.965C1389.63 415.359 1402.92 428.649 1419.31 428.649 1435.71 428.649 1449 415.359 1449 398.965 1449 382.571 1435.71 369.28 1419.31 369.28 1402.92 369.28 1389.63 382.571 1389.63 398.965Z" fill="#63E61D" transform="matrix(1 0 0 1.00067 -17.9999 1522)"/><path d="M1532.45 481.459C1532.45 497.854 1545.74 511.144 1562.14 511.144 1578.53 511.144 1591.82 497.854 1591.82 481.459 1591.82 465.065 1578.53 451.775 1562.14 451.775 1545.74 451.775 1532.45 465.065 1532.45 481.459Z" fill="#63E61D" transform="matrix(1 0 0 1.00067 -17.9999 1522)"/><path d="M1659.12 391.158 1547.29 455.751 1576.99 507.168 1688.82 442.577Z" fill="#63E61D" transform="matrix(1 0 0 1.00067 -17.9999 1522)"/><path d="M1532.45 481.459C1532.45 497.857 1545.74 511.149 1562.14 511.149 1578.54 511.149 1591.83 497.857 1591.83 481.459 1591.83 465.062 1578.54 451.77 1562.14 451.77 1545.74 451.77 1532.45 465.062 1532.45 481.459Z" fill="#63E61D" transform="matrix(1 0 0 1.00067 -17.9999 1522)"/><path d="M1644.28 416.866C1644.28 433.263 1657.57 446.556 1673.97 446.556 1690.37 446.556 1703.66 433.263 1703.66 416.866 1703.66 400.469 1690.37 387.176 1673.97 387.176 1657.57 387.176 1644.28 400.469 1644.28 416.866Z" fill="#63E61D" transform="matrix(1 0 0 1.00067 -17.9999 1522)"/><path d="M1862.69 455.749 1751.05 391.29 1721.36 442.712 1833 507.17Z" fill="#63E61D" transform="matrix(1 0 0 1.00067 -17.9999 1522)"/><path d="M1706.51 417.001C1706.51 433.398 1719.8 446.691 1736.2 446.691 1752.6 446.691 1765.89 433.398 1765.89 417.001 1765.89 400.604 1752.6 387.311 1736.2 387.311 1719.8 387.311 1706.51 400.604 1706.51 417.001Z" fill="#63E61D" transform="matrix(1 0 0 1.00067 -17.9999 1522)"/><path d="M1818.16 481.459C1818.16 497.857 1831.45 511.149 1847.84 511.149 1864.24 511.149 1877.53 497.857 1877.53 481.459 1877.53 465.062 1864.24 451.77 1847.84 451.77 1831.45 451.77 1818.16 465.062 1818.16 481.459Z" fill="#63E61D" transform="matrix(1 0 0 1.00067 -17.9999 1522)"/><path d="M1975.82 373.257 1833 455.751 1862.69 507.168 2005.52 424.673Z" fill="#63E61D" transform="matrix(1 0 0 1.00067 -17.9999 1522)"/><path d="M1818.16 481.459C1818.02 497.855 1831.19 511.261 1847.59 511.402 1863.98 511.543 1877.39 498.366 1877.53 481.971 1877.53 481.8 1877.53 481.63 1877.53 481.459 1877.67 465.064 1864.5 451.658 1848.1 451.517 1831.7 451.376 1818.3 464.553 1818.16 480.948 1818.16 481.119 1818.16 481.289 1818.16 481.459Z" fill="#63E61D" transform="matrix(1 0 0 1.00067 -17.9999 1522)"/><path d="M1960.98 398.965C1960.84 415.361 1974.02 428.766 1990.42 428.907 2006.81 429.049 2020.22 415.872 2020.36 399.476 2020.36 399.306 2020.36 399.135 2020.36 398.965 2020.5 382.569 2007.32 369.163 1990.93 369.022 1974.53 368.881 1961.12 382.058 1960.98 398.454 1960.98 398.624 1960.98 398.794 1960.98 398.965Z" fill="#63E61D" transform="matrix(1 0 0 1.00067 -17.9999 1522)"/><path d="M1960.98 271.711 1960.98 398.965 2020.36 398.965 2020.36 271.711Z" fill="#63E61D" transform="matrix(1 0 0 1.00067 -17.9999 1522)"/><path d="M1960.98 398.965C1960.84 415.361 1974.02 428.766 1990.42 428.907 2006.81 429.049 2020.22 415.872 2020.36 399.476 2020.36 399.306 2020.36 399.135 2020.36 398.965 2020.5 382.569 2007.32 369.163 1990.93 369.022 1974.53 368.881 1961.12 382.058 1960.98 398.454 1960.98 398.624 1960.98 398.794 1960.98 398.965Z" fill="#63E61D" transform="matrix(1 0 0 1.00067 -17.9999 1522)"/><path d="M1960.98 271.711C1960.84 288.107 1974.02 301.513 1990.42 301.654 2006.81 301.795 2020.22 288.618 2020.36 272.222 2020.36 272.052 2020.36 271.882 2020.36 271.711 2020.5 255.316 2007.32 241.91 1990.93 241.769 1974.53 241.628 1961.12 254.805 1960.98 271.2 1960.98 271.371 1960.98 271.541 1960.98 271.711Z" fill="#63E61D" transform="matrix(1 0 0 1.00067 -17.9999 1522)"/><path d="M2121.04 439.978 2005.52 373.257 1975.82 424.673 2091.34 491.395Z" fill="#63E61D" transform="matrix(1 0 0 1.00067 -17.9999 1522)"/><path d="M1960.98 398.965C1960.98 415.362 1974.27 428.655 1990.67 428.655 2007.07 428.655 2020.36 415.362 2020.36 398.965 2020.36 382.568 2007.07 369.275 1990.67 369.275 1974.27 369.275 1960.98 382.568 1960.98 398.965Z" fill="#63E61D" transform="matrix(1 0 0 1.00067 -17.9999 1522)"/><path d="M2076.5 465.686C2076.5 482.084 2089.79 495.376 2106.19 495.376 2122.58 495.376 2135.88 482.084 2135.88 465.686 2135.88 449.289 2122.58 435.997 2106.19 435.997 2089.79 435.997 2076.5 449.289 2076.5 465.686Z" fill="#63E61D" transform="matrix(1 0 0 1.00067 -17.9999 1522)"/><path d="M1332.6 308.185 1393.61 413.811 1445.02 384.118 1384.01 278.49Z" fill="#63E61D" transform="matrix(1 0 0 1.00067 -17.9999 1522)"/><path d="M1389.63 398.965C1389.63 415.359 1402.92 428.649 1419.31 428.649 1435.71 428.649 1449 415.359 1449 398.965 1449 382.571 1435.71 369.28 1419.31 369.28 1402.92 369.28 1389.63 382.571 1389.63 398.965Z" fill="#63E61D" transform="matrix(1 0 0 1.00067 -17.9999 1522)"/><path d="M1328.62 293.339C1328.5 309.732 1341.69 323.121 1358.08 323.243 1374.48 323.365 1387.86 310.175 1387.99 293.781 1387.99 293.634 1387.99 293.486 1387.99 293.339 1388.11 276.945 1374.92 263.557 1358.53 263.434 1342.13 263.312 1328.74 276.503 1328.62 292.896 1328.62 293.044 1328.62 293.191 1328.62 293.339Z" fill="#63E61D" transform="matrix(1 0 0 1.00067 -17.9999 1522)"/><path d="M70.6496 438.562C70.6496 454.956 83.9396 468.246 100.334 468.246 116.728 468.246 130.017 454.956 130.017 438.562 130.017 422.168 116.728 408.878 100.334 408.878 83.9396 408.878 70.6496 422.168 70.6496 438.562Z" fill="#FFC786" transform="matrix(1 0 0 1.00067 -17.9999 1522)"/><path d="M1213.01 261.548C1213.01 288.931 1224.11 311.13 1237.8 311.13 1251.49 311.13 1262.59 288.931 1262.59 261.548 1262.59 234.165 1251.49 211.966 1237.8 211.966 1224.11 211.966 1213.01 234.165 1213.01 261.548Z" fill="#63E61D" transform="matrix(1 0 0 1.00067 -17.9999 1522)"/><path d="M1335.86 261.548C1335.73 288.93 1346.73 311.331 1360.42 311.583 1374.11 311.834 1385.31 289.84 1385.44 262.458 1385.44 262.155 1385.44 261.851 1385.44 261.548 1385.56 234.166 1374.57 211.765 1360.88 211.513 1347.18 211.262 1335.98 233.256 1335.86 260.638 1335.86 260.941 1335.86 261.245 1335.86 261.548Z" fill="#63E61D" transform="matrix(1 0 0 1.00067 -17.9999 1522)"/><path d="M1237.8 211.966 1360.65 211.966 1360.65 311.127 1237.8 311.127 1237.8 211.966" fill="#63E61D" transform="matrix(1 0 0 1.00067 -17.9999 1522)"/><path d="M621.854 283.747C621.854 308.044 641.55 327.74 665.847 327.74 690.143 327.74 709.84 308.044 709.84 283.747 709.84 259.451 690.143 239.754 665.847 239.754 641.55 239.754 621.854 259.451 621.854 283.747Z" fill="#FFC786" transform="matrix(1 0 0 1.00067 -17.9999 1522)"/><path d="M1038.67 397.155C1038.56 421.084 1048.17 440.659 1060.14 440.878 1072.1 441.097 1081.89 421.877 1082 397.949 1082 397.684 1082 397.42 1082 397.155 1082.11 373.227 1072.5 353.652 1060.53 353.433 1048.57 353.214 1038.78 372.434 1038.67 396.362 1038.67 396.627 1038.67 396.891 1038.67 397.155Z" fill="#63E61D" transform="matrix(1 0 0 1.00067 -17.9999 1522)"/><path d="M1137.67 397.155C1137.56 421.084 1147.17 440.659 1159.13 440.878 1171.09 441.097 1180.88 421.877 1180.99 397.949 1180.99 397.684 1180.99 397.42 1180.99 397.155 1181.1 373.227 1171.49 353.652 1159.53 353.433 1147.56 353.214 1137.77 372.434 1137.67 396.362 1137.66 396.627 1137.66 396.891 1137.67 397.155Z" fill="#63E61D" transform="matrix(1 0 0 1.00067 -17.9999 1522)"/><path d="M1060.33 353.827 1159.33 353.827 1159.33 440.482 1060.33 440.482 1060.33 353.827" fill="#63E61D" transform="matrix(1 0 0 1.00067 -17.9999 1522)"/><path d="M2088 479.65C2087.89 503.579 2097.5 523.154 2109.47 523.373 2121.43 523.592 2131.22 504.372 2131.33 480.443 2131.33 480.179 2131.33 479.914 2131.33 479.65 2131.44 455.722 2121.83 436.146 2109.86 435.927 2097.9 435.708 2088.11 454.928 2088 478.857 2088 479.121 2088 479.386 2088 479.65Z" fill="#63E61D" transform="matrix(1 0 0 1.00067 -17.9999 1522)"/><path d="M2150.33 479.65C2150.22 503.579 2159.83 523.154 2171.79 523.373 2183.75 523.592 2193.54 504.372 2193.65 480.443 2193.65 480.179 2193.65 479.914 2193.65 479.65 2193.76 455.722 2184.15 436.146 2172.19 435.927 2160.22 435.708 2150.43 454.928 2150.33 478.857 2150.32 479.121 2150.32 479.386 2150.33 479.65Z" fill="#63E61D" transform="matrix(1 0 0 1.00067 -17.9999 1522)"/><path d="M2109.67 436.321 2171.99 436.321 2171.99 522.976 2109.67 522.976 2109.67 436.321" fill="#63E61D" transform="matrix(1 0 0 1.00067 -17.9999 1522)"/><path d="M1660.97 398.965C1660.82 423.261 1680.4 443.077 1704.69 443.226 1728.99 443.375 1748.81 423.8 1748.96 399.504 1748.96 399.324 1748.96 399.144 1748.96 398.965 1749.1 374.669 1729.53 354.853 1705.23 354.704 1680.94 354.555 1661.12 374.13 1660.97 398.426 1660.97 398.606 1660.97 398.785 1660.97 398.965Z" fill="#63E61D" transform="matrix(1 0 0 1.00067 -17.9999 1522)"/><path d="M1946.68 234.031C1946.56 258.326 1966.15 278.121 1990.45 278.242 2014.75 278.364 2034.54 258.766 2034.66 234.471 2034.66 234.324 2034.66 234.177 2034.66 234.031 2034.78 209.735 2015.19 189.94 1990.89 189.819 1966.59 189.697 1946.8 209.295 1946.68 233.591 1946.68 233.737 1946.68 233.884 1946.68 234.031Z" fill="#63E61D" transform="matrix(1 0 0 1.00067 -17.9999 1522)"/><text font-family="Arial,Arial_MSFontService,sans-serif" font-weight="400" font-size="18" transform="matrix(2.74982 0 0 2.75167 483.203 1697)">12<tspan font-size="18" x="-51.859" y="29.8001">13</tspan><tspan font-size="18" x="-103.901" y="0">18</tspan><tspan font-size="18" x="-168.784" y="36.3415">17</tspan><tspan font-size="18" x="-168.783" y="109.388">16</tspan><tspan font-size="18" x="-103.901" y="146.093">15</tspan><tspan font-size="18" x="-38.918" y="109.388">14</tspan><tspan font-size="24" x="50.54" y="49.0611">O</tspan><tspan font-size="18" x="70.945" y="57.783">19</tspan></text><path d="M528.901 185.529 528.907 196.339 390.511 276.24 385.985 273.628 385.985 268.401Z" transform="matrix(1 0 0 1.00067 -17.9999 1522)"/><path d="M385.985 268.401 385.985 273.628 381.459 276.24 243.159 196.361 243.159 185.551Z" transform="matrix(1 0 0 1.00067 -17.9999 1522)"/><path d="M243.159 185.551 243.159 196.361 104.86 276.24 95.5009 270.84Z" transform="matrix(1 0 0 1.00067 -17.9999 1522)"/><path d="M95.5009 270.84 104.86 276.24 104.86 435.947 95.5009 441.353Z" transform="matrix(1 0 0 1.00067 -17.9999 1522)"/><path d="M95.5009 441.353 104.86 435.947 243.159 515.774 243.159 526.581Z" transform="matrix(1 0 0 1.00067 -17.9999 1522)"/><path d="M243.159 526.581 243.159 515.774 381.459 435.947 390.819 441.353Z" transform="matrix(1 0 0 1.00067 -17.9999 1522)"/><path d="M381.459 276.24 385.985 273.628 390.511 276.24 390.819 441.353 381.459 435.947Z" transform="matrix(1 0 0 1.00067 -17.9999 1522)"/><path d="M528.907 196.339 528.901 185.529 645.431 253.062 640.756 261.158Z" transform="matrix(1 0 0 1.00067 -17.9999 1522)"/><path d="M526.526 222.173 531.2 214.075 633.741 273.301 629.064 281.399Z" transform="matrix(1 0 0 1.00067 -17.9999 1522)"/><text font-family="Arial,Arial_MSFontService,sans-serif" font-weight="400" font-size="18" transform="matrix(2.74982 0 0 2.75167 1483.67 1766)">1<tspan font-size="18" x="-35.006" y="76.3172">2</tspan><tspan font-size="18" x="-86.946" y="106.481">3</tspan><tspan font-size="24" x="-160.497" y="65.7782">HO</tspan><tspan font-size="18" x="-171.753" y="50.8782">4</tspan><tspan font-size="18" x="16.934" y="106.117">5</tspan><tspan font-size="24" x="64.595" y="65.7782">O</tspan><tspan font-size="18" x="68.922" y="39.2489">6</tspan><tspan font-size="18" x="120.834" y="106.117">7</tspan><tspan font-size="18" x="172.774" y="76.6806">8</tspan><tspan font-size="24" x="168.495" y="5.81465">O</tspan><tspan font-size="18" x="172.824" y="-20.7147">9</tspan><tspan font-size="24" x="221.103" y="95.9417">Cl</tspan><tspan font-size="18" x="245.235" y="104.3">10</tspan><tspan font-size="24" x="-95.96" y="13.8098">H</tspan><tspan font-size="18" x="-78.628" y="18.8976">2</tspan><tspan font-size="24" x="-68.617" y="13.8098">N</tspan><tspan font-size="18" x="-102.313" y="-8.72197">11</tspan></text><path d="M1497.7 253.802 1505.8 258.476 1425.35 397.345 1419.31 398.965 1419.22 390.583Z" transform="matrix(1 0 0 1.00067 -17.9999 1522)"/><path d="M1413.34 397.298 1419.31 398.965 1419.31 404.192 1276.45 487.066 1276.44 476.257Z" transform="matrix(1 0 0 1.00067 -17.9999 1522)"/><path d="M1276.44 476.257 1276.45 487.066 1162.56 421.054 1167.23 412.956Z" transform="matrix(1 0 0 1.00067 -17.9999 1522)"/><path d="M1419.31 404.192 1419.31 398.965 1425.35 397.345 1562.19 476.254 1562.18 487.066Z" transform="matrix(1 0 0 1.00067 -17.9999 1522)"/><path d="M1562.18 487.066 1562.19 476.254 1671.63 412.818 1676.31 420.917Z" transform="matrix(1 0 0 1.00067 -17.9999 1522)"/><path d="M1733.86 421.049 1738.54 412.953 1847.8 476.257 1847.81 487.066Z" transform="matrix(1 0 0 1.00067 -17.9999 1522)"/><path d="M1847.81 487.066 1847.8 476.257 1990.7 393.361 1990.71 404.173Z" transform="matrix(1 0 0 1.00067 -17.9999 1522)"/><path d="M1983.66 405.716 1974.31 405.716 1974.31 271.711 1983.66 271.711Z" transform="matrix(1 0 0 1.00067 -17.9999 1522)"/><path d="M2007.03 405.716 1997.68 405.716 1997.68 271.711 2007.03 271.711Z" transform="matrix(1 0 0 1.00067 -17.9999 1522)"/><path d="M1990.71 404.173 1990.7 393.361 2108.53 461.639 2103.85 469.734Z" transform="matrix(1 0 0 1.00067 -17.9999 1522)"/><path d="M1419.22 390.583 1419.31 398.965 1413.34 397.298 1354.25 295.676 1362.35 290.999Z" transform="matrix(1 0 0 1.00067 -17.9999 1522)"/><text font-family="Arial,Arial_MSFontService,sans-serif" font-weight="400" font-size="18" transform="matrix(2.74982 0 0 2.75167 3521.97 2070)">1<tspan font-size="18" x="8.71008" y="-79.588">2</tspan><tspan font-size="18" x="-8.59999" y="-139.552">3</tspan><tspan font-size="24" x="47.67" y="-160.63">OH</tspan><tspan font-size="18" x="84.92" y="-175.53">4</tspan><tspan font-size="18" x="52.0401" y="-30.5269">5</tspan><tspan font-size="24" x="99.6101" y="-70.866">O</tspan><tspan font-size="18" x="103.93" y="-97.3953">6</tspan><tspan font-size="18" x="155.85" y="-30.5269">7</tspan><tspan font-size="18" x="207.78" y="-59.9635">8</tspan><tspan font-size="24" x="203.51" y="-130.83">O</tspan><tspan font-size="18" x="207.83" y="-157.359">9</tspan><tspan font-size="24" x="256.11" y="-40.7025">Cl</tspan><tspan font-size="18" x="280.25" y="-31.9806">10</tspan><tspan font-size="24" x="-55.5499" y="-40.7025">N</tspan><tspan font-size="24" x="-55.5499" y="-20.7147">H</tspan><tspan font-size="18" x="-56.8899" y="-0.726831">11</tspan><tspan font-size="18" x="-108.88" y="-86.1294">12</tspan><tspan font-size="18" x="-160.74" y="-56.3294">13</tspan><tspan font-size="18" x="-147.8" y="23.2586">14</tspan><tspan font-size="18" x="-212.68" y="59.9635">15</tspan><tspan font-size="18" x="-277.66" y="23.2586">16</tspan><tspan font-size="18" x="-277.66" y="-49.7879">17</tspan><tspan font-size="18" x="-212.68" y="-86.1294">18</tspan></text><path d="M3558.56 492.019 3549.21 492.019 3549.63 334.328 3553.89 327.085 3558.15 334.46Z" transform="matrix(1 0 0 1.00067 -17.9999 1522)"/><path d="M3558.43 324.472 3553.89 327.085 3549.35 324.524 3549.05 159.312 3558.43 164.713Z" transform="matrix(1 0 0 1.00067 -17.9999 1522)"/><path d="M3558.43 164.713 3549.05 159.312 3663.39 93.556 3668.06 101.651Z" transform="matrix(1 0 0 1.00067 -17.9999 1522)"/><path d="M3558.15 334.46 3553.89 327.085 3558.43 324.472 3696.77 404.374 3696.74 415.186Z" transform="matrix(1 0 0 1.00067 -17.9999 1522)"/><path d="M3696.74 415.186 3696.77 404.374 3806.21 340.938 3810.89 349.036Z" transform="matrix(1 0 0 1.00067 -17.9999 1522)"/><path d="M3868.44 349.168 3873.12 341.073 3982.37 404.376 3982.39 415.186Z" transform="matrix(1 0 0 1.00067 -17.9999 1522)"/><path d="M3982.39 415.186 3982.37 404.376 4125.27 321.48 4125.27 332.293Z" transform="matrix(1 0 0 1.00067 -17.9999 1522)"/><path d="M4118.23 333.835 4108.89 333.835 4108.89 199.831 4118.23 199.831Z" transform="matrix(1 0 0 1.00067 -17.9999 1522)"/><path d="M4141.61 333.835 4132.26 333.835 4132.26 199.831 4141.61 199.831Z" transform="matrix(1 0 0 1.00067 -17.9999 1522)"/><path d="M4125.27 332.293 4125.27 321.48 4243.1 389.758 4238.43 397.854Z" transform="matrix(1 0 0 1.00067 -17.9999 1522)"/><path d="M3549.35 324.524 3553.89 327.085 3549.63 334.328 3445.55 395.06 3440.87 386.965Z" transform="matrix(1 0 0 1.00067 -17.9999 1522)"/><path d="M3380.98 386.808 3376.31 394.903 3268.29 332.287 3268.29 321.475Z" transform="matrix(1 0 0 1.00067 -17.9999 1522)"/><path d="M3268.29 321.475 3268.29 332.287 3129.89 412.191 3125.36 409.579 3125.36 404.352Z" transform="matrix(1 0 0 1.00067 -17.9999 1522)"/><path d="M3120.82 412.191 3125.36 409.579 3129.89 412.191 3130.2 577.304 3120.82 571.898Z" transform="matrix(1 0 0 1.00067 -17.9999 1522)"/><path d="M3120.82 571.898 3130.2 577.304 2982.53 662.532 2982.53 651.726Z" transform="matrix(1 0 0 1.00067 -17.9999 1522)"/><path d="M2982.53 651.726 2982.53 662.532 2834.87 577.304 2844.24 571.898Z" transform="matrix(1 0 0 1.00067 -17.9999 1522)"/><path d="M2844.24 571.898 2834.87 577.304 2834.87 406.788 2844.24 412.191Z" transform="matrix(1 0 0 1.00067 -17.9999 1522)"/><path d="M2844.24 412.191 2834.87 406.788 2982.53 321.502 2982.53 332.312Z" transform="matrix(1 0 0 1.00067 -17.9999 1522)"/><path d="M3125.36 404.352 3125.36 409.579 3120.82 412.191 2982.53 332.312 2982.53 321.502Z" transform="matrix(1 0 0 1.00067 -17.9999 1522)"/><path d="M2587.63 360.797 2337.75 360.797 2337.75 351.448 2587.63 351.448Z" transform="matrix(1 0 0 1.00067 -17.9999 1522)"/><path d="M2669.16 356.123C2669.16 356.123 2575.67 379.771 2575.67 379.771 2575.67 379.771 2587.35 366.467 2587.35 356.123 2587.35 345.657 2575.67 332.199 2575.67 332.199 2575.67 332.199 2669.16 356.123 2669.16 356.123 2669.16 356.123 2669.16 356.123 2669.16 356.123" transform="matrix(1 0 0 1.00067 -17.9999 1522)"/><path d="M2669.16 356.123C2669.16 356.123 2575.67 379.771 2575.67 379.771 2575.67 379.771 2587.35 366.467 2587.35 356.123 2587.35 345.657 2575.67 332.199 2575.67 332.199 2575.67 332.199 2669.16 356.123 2669.16 356.123 2669.16 356.123 2669.16 356.123 2669.16 356.123" stroke="#000000" stroke-width="0.274982" fill="none" transform="matrix(1 0 0 1.00067 -17.9999 1522)"/><text font-family="Times New Roman,Times New Roman_MSFontService,sans-serif" font-weight="400" font-size="24" transform="matrix(2.74982 0 0 2.75167 839.25 1899)">+</text><path d="M126.677 356.068C126.677 420.399 178.828 472.55 243.159 472.55 307.491 472.55 359.642 420.399 359.642 356.068 359.652 291.736 307.509 239.577 243.177 239.567 178.846 239.557 126.687 291.7 126.677 356.032 126.677 356.044 126.677 356.056 126.677 356.068Z" stroke="#000000" stroke-width="9.34939" fill="none" transform="matrix(1 0 0 1.00067 -17.9999 1522)"/><path d="M2866.1 492.019C2866.1 556.32 2918.23 608.446 2982.53 608.446 3046.83 608.446 3098.96 556.32 3098.96 492.019 3098.96 427.718 3046.83 375.591 2982.53 375.591 2918.23 375.591 2866.1 427.718 2866.1 492.019Z" stroke="#000000" stroke-width="9.34939" fill="none" transform="matrix(1 0 0 1.00067 -17.9999 1522)"/></g></g></g></g></svg>