<svg width="310" height="168" xmlns="http://www.w3.org/2000/svg" xmlns:xlink="http://www.w3.org/1999/xlink" overflow="hidden"><defs><clipPath id="clip0"><rect x="0" y="0" width="310" height="168"/></clipPath><clipPath id="clip1"><rect x="26" y="0" width="258" height="62"/></clipPath><clipPath id="clip2"><rect x="26" y="0" width="258" height="62"/></clipPath><clipPath id="clip3"><rect x="26" y="0" width="258" height="62"/></clipPath><clipPath id="clip4"><rect x="0" y="119" width="310" height="49"/></clipPath><clipPath id="clip5"><rect x="0" y="119" width="310" height="49"/></clipPath><clipPath id="clip6"><rect x="0" y="119" width="310" height="49"/></clipPath></defs><g clip-path="url(#clip0)"><path d="M97.4851 85.3209C97.4851 82.5235 99.7524 80.2562 102.55 80.2562L217.312 80.2562C220.109 80.2562 222.376 82.5235 222.376 85.3209L222.376 105.578C222.376 108.376 220.109 110.643 217.312 110.643L102.55 110.643C99.7524 110.643 97.4851 108.376 97.4851 105.578Z" stroke="#4472C4" stroke-width="0.999567" stroke-linejoin="round" stroke-miterlimit="10" fill="none" fill-rule="evenodd" transform="matrix(1.00008 0 0 1 -4.94371 -5.96106)"/><text font-family="Arial,Arial_MSFontService,sans-serif" font-weight="400" font-size="110" transform="matrix(0.0727017 0 0 0.0726958 100.082 88)">AutoTemplate for reaction data <tspan font-size="110" x="559.442" y="123.804">curation</tspan></text><path d="M145.791 75.9308 152.879 75.9308 152.879 72.5141 167.055 72.5141 167.055 75.9308 174.143 75.9308 159.967 79.3475Z" stroke="#2F528F" stroke-width="0.333189" stroke-miterlimit="8" fill="#4472C4" fill-rule="evenodd" transform="matrix(1.00008 0 0 1 -4.94371 -5.96106)"/><path d="M145.791 115.15 152.879 115.15 152.879 111.697 167.055 111.697 167.055 115.15 174.143 115.15 159.967 118.603Z" stroke="#2F528F" stroke-width="0.333189" stroke-miterlimit="8" fill="#4472C4" fill-rule="evenodd" transform="matrix(1.00008 0 0 1 -4.94371 -5.96106)"/><path d="M11.595 75.5433C11.595 74.6731 12.3002 73.968 13.1701 73.968L80.3892 73.968C81.2594 73.968 81.9645 74.6731 81.9645 75.5433L81.9645 81.8431C81.9645 82.7133 81.2594 83.4184 80.3892 83.4184L13.1701 83.4184C12.3002 83.4184 11.595 82.7133 11.595 81.8431Z" stroke="#FFFFFF" stroke-width="0.333189" stroke-miterlimit="8" fill="#FF4545" fill-rule="evenodd" transform="matrix(1.00008 0 0 1 -4.94371 -5.96106)"/><text font-family="Arial,Arial_MSFontService,sans-serif" font-weight="400" font-size="83" transform="matrix(0.0727017 0 0 0.0726958 12.9788 75)">Wrong atom<tspan font-size="83" x="449.167" y="0">-</tspan>mapping</text><path d="M11.595 99.3875C11.595 98.5173 12.3002 97.8122 13.1701 97.8122L80.3892 97.8122C81.2594 97.8122 81.9645 98.5173 81.9645 99.3875L81.9645 105.687C81.9645 106.558 81.2594 107.263 80.3892 107.263L13.1701 107.263C12.3002 107.263 11.595 106.558 11.595 105.687Z" stroke="#FFFFFF" stroke-width="0.333189" stroke-miterlimit="8" fill="#63E61D" fill-rule="evenodd" transform="matrix(1.00008 0 0 1 -4.94371 -5.96106)"/><text font-family="Arial,Arial_MSFontService,sans-serif" font-weight="400" font-size="83" transform="matrix(0.0727017 0 0 0.0726958 18.9767 99)">Reactant curated</text><g clip-path="url(#clip1)"><g clip-path="url(#clip2)"><g clip-path="url(#clip3)"><path d="M57.7871 89.5285C57.7743 91.0181 58.971 92.235 60.4601 92.2481 61.9492 92.2611 63.1667 91.0639 63.1796 89.575 63.1797 89.5598 63.1797 89.5438 63.1796 89.5285 63.1923 88.0397 61.9956 86.822 60.5065 86.809 59.0174 86.7966 57.7998 87.9932 57.7871 89.482 57.7869 89.498 57.7869 89.5132 57.7871 89.5285Z" fill="#FF4545" transform="matrix(1.00065 0 0 1 -29.0912 -52.2548)"/><path d="M107.849 75.4684C107.849 77.6747 109.638 79.4638 111.845 79.4638 114.051 79.4638 115.84 77.6747 115.84 75.4684 115.84 73.2614 114.051 71.473 111.845 71.473 109.638 71.473 107.849 73.2614 107.849 75.4684Z" fill="#FF4545" transform="matrix(1.00065 0 0 1 -29.0912 -52.2548)"/><text font-family="Arial,Arial_MSFontService,sans-serif" font-weight="400" font-size="180" transform="matrix(0.0249908 0 0 0.0249745 26.2673 41)">1<tspan font-size="180" x="626.42" y="360.368">15</tspan><tspan font-size="180" x="1275.46" y="0">14</tspan><tspan font-size="180" x="1145.02" y="-800.817">13</tspan><tspan font-size="180" x="1664.43" y="-1121.14">12</tspan><tspan font-size="240" x="2169.85" y="-600.613">O</tspan><tspan font-size="180" x="2400.63" y="-520.531">4</tspan><tspan font-size="180" x="626.42" y="-1121.14">18</tspan><tspan font-size="180" x="-23.39" y="-760.776">17</tspan></text><path d="M60.0443 89.7822 60.8944 89.2915 73.4547 96.5466 73.4547 97.528Z" transform="matrix(1.00065 0 0 1 -29.0912 -52.2548)"/><path d="M73.4547 97.528 73.4547 96.5466 86.0209 89.2915 86.8708 89.7822Z" transform="matrix(1.00065 0 0 1 -29.0912 -52.2548)"/><path d="M86.8708 89.7822 86.0209 89.2915 86.0209 74.7865 86.4317 74.5488 86.8431 74.7865Z" transform="matrix(1.00065 0 0 1 -29.0912 -52.2548)"/><path d="M86.8431 74.7865 86.4317 74.5488 86.4317 74.0741 99.4071 66.5526 99.4071 67.5343Z" transform="matrix(1.00065 0 0 1 -29.0912 -52.2548)"/><path d="M99.4071 67.5343 99.4071 66.5526 109.989 72.6818 109.565 73.4169Z" transform="matrix(1.00065 0 0 1 -29.0912 -52.2548)"/><path d="M99.1912 69.8804 99.6158 69.145 108.929 74.5205 108.504 75.2554Z" transform="matrix(1.00065 0 0 1 -29.0912 -52.2548)"/><path d="M86.4317 74.0741 86.4317 74.5488 86.0209 74.7865 73.4547 67.5364 73.4547 66.5548Z" transform="matrix(1.00065 0 0 1 -29.0912 -52.2548)"/><path d="M73.4547 66.5548 73.4547 67.5364 60.8944 74.7865 60.0443 74.2951Z" transform="matrix(1.00065 0 0 1 -29.0912 -52.2548)"/><path d="M60.8944 89.2915 60.0443 89.7822 60.0443 74.2951 60.8944 74.7865Z" transform="matrix(1.00065 0 0 1 -29.0912 -52.2548)"/><text font-family="Arial,Arial_MSFontService,sans-serif" font-weight="400" font-size="180" transform="matrix(0.0249908 0 0 0.0249745 208.907 47)">1<tspan font-size="180" x="88.0696" y="-800.817">2</tspan><tspan font-size="180" x="-86.0901" y="-1401.43">3</tspan><tspan font-size="240" x="476.81" y="-1601.63">OH</tspan><tspan font-size="180" x="849.25" y="-1761.8">4</tspan><tspan font-size="180" x="519.6" y="-320.327">5</tspan><tspan font-size="240" x="996.25" y="-720.735">O</tspan><tspan font-size="180" x="1039.45" y="-960.98">6</tspan><tspan font-size="180" x="1559.35" y="-320.327">7</tspan><tspan font-size="180" x="2077.95" y="-600.613">8</tspan><tspan font-size="240" x="2035.25" y="-1321.35">O</tspan><tspan font-size="180" x="2078.45" y="-1561.59">9</tspan><tspan font-size="240" x="2561.25" y="-400.408">Cl</tspan><tspan font-size="180" x="2802.65" y="-320.327">10</tspan><tspan font-size="240" x="-555.51" y="-400.408">N</tspan><tspan font-size="240" x="-555.51" y="-200.204">H</tspan><tspan font-size="180" x="-568.96" y="0">11</tspan><tspan font-size="180" x="-1088.86" y="-840.858">12</tspan><tspan font-size="180" x="-1608.27" y="-560.572">13</tspan><tspan font-size="180" x="-1477.83" y="240.245">14</tspan><tspan font-size="180" x="-2126.87" y="600.613">15</tspan><tspan font-size="180" x="-2846.69" y="240.245">16</tspan><tspan font-size="180" x="-2776.68" y="-480.49">17</tspan><tspan font-size="180" x="-2126.87" y="-840.858">18</tspan></text><path d="M239.53 94.2639 238.681 94.2639 238.718 79.9414 239.106 79.2842 239.493 79.9537Z" transform="matrix(1.00065 0 0 1 -29.0912 -52.2548)"/><path d="M239.517 79.0465 239.106 79.2842 238.694 79.0516 238.667 64.0467 239.517 64.5371Z" transform="matrix(1.00065 0 0 1 -29.0912 -52.2548)"/><path d="M239.517 64.5371 238.667 64.0467 249.055 58.0698 249.48 58.8052Z" transform="matrix(1.00065 0 0 1 -29.0912 -52.2548)"/><path d="M239.493 79.9537 239.106 79.2842 239.517 79.0465 252.088 86.2986 252.085 87.2808Z" transform="matrix(1.00065 0 0 1 -29.0912 -52.2548)"/><path d="M252.085 87.2808 252.088 86.2986 262.028 80.5419 262.452 81.2768Z" transform="matrix(1.00065 0 0 1 -29.0912 -52.2548)"/><path d="M267.679 81.2899 268.104 80.5542 278.021 86.2986 278.024 87.2808Z" transform="matrix(1.00065 0 0 1 -29.0912 -52.2548)"/><path d="M278.024 87.2808 278.021 86.2986 291.006 78.7754 291.006 79.7567Z" transform="matrix(1.00065 0 0 1 -29.0912 -52.2548)"/><path d="M290.366 79.8963 289.517 79.8963 289.517 67.7267 290.366 67.7267Z" transform="matrix(1.00065 0 0 1 -29.0912 -52.2548)"/><path d="M292.489 79.897 291.64 79.897 291.64 67.7267 292.489 67.7267Z" transform="matrix(1.00065 0 0 1 -29.0912 -52.2548)"/><path d="M291.006 79.7567 291.006 78.7754 301.707 84.9719 301.283 85.7076Z" transform="matrix(1.00065 0 0 1 -29.0912 -52.2548)"/><path d="M238.694 79.0516 239.106 79.2842 238.718 79.9414 229.266 85.4539 228.842 84.7182Z" transform="matrix(1.00065 0 0 1 -29.0912 -52.2548)"/><path d="M223.402 84.7044 222.978 85.4394 213.167 79.7567 213.166 78.7746Z" transform="matrix(1.00065 0 0 1 -29.0912 -52.2548)"/><path d="M213.166 78.7746 213.167 79.7567 200.602 87.0089 200.19 86.7712 200.19 86.2965Z" transform="matrix(1.00065 0 0 1 -29.0912 -52.2548)"/><path d="M199.78 87.0089 200.19 86.7712 200.602 87.0089 200.63 102.005 199.78 101.514Z" transform="matrix(1.00065 0 0 1 -29.0912 -52.2548)"/><path d="M199.78 101.514 200.63 102.005 187.214 109.75 187.214 108.769Z" transform="matrix(1.00065 0 0 1 -29.0912 -52.2548)"/><path d="M187.214 108.769 187.214 109.75 173.803 102.005 174.653 101.514Z" transform="matrix(1.00065 0 0 1 -29.0912 -52.2548)"/><path d="M174.653 101.514 173.803 102.005 173.803 86.5182 174.653 87.0089Z" transform="matrix(1.00065 0 0 1 -29.0912 -52.2548)"/><path d="M174.653 87.0089 173.803 86.5182 187.214 78.7775 187.214 79.7589Z" transform="matrix(1.00065 0 0 1 -29.0912 -52.2548)"/><path d="M200.19 86.2965 200.19 86.7712 199.78 87.0089 187.214 79.7589 187.214 78.7775Z" transform="matrix(1.00065 0 0 1 -29.0912 -52.2548)"/><path d="M151.553 82.461 128.898 82.461 128.898 81.6119 151.553 81.6119Z" transform="matrix(1.00065 0 0 1 -29.0912 -52.2548)"/><path d="M158.958 82.0365C158.958 82.0365 150.466 84.1839 150.466 84.1839 150.466 84.1839 151.528 82.9757 151.528 82.0365 151.528 81.0856 150.466 79.8636 150.466 79.8636 150.466 79.8636 158.958 82.0365 158.958 82.0365 158.958 82.0365 158.958 82.0365 158.958 82.0365" transform="matrix(1.00065 0 0 1 -29.0912 -52.2548)"/><path d="M158.958 82.0365C158.958 82.0365 150.466 84.1839 150.466 84.1839 150.466 84.1839 151.528 82.9757 151.528 82.0365 151.528 81.0856 150.466 79.8636 150.466 79.8636 150.466 79.8636 158.958 82.0365 158.958 82.0365 158.958 82.0365 158.958 82.0365 158.958 82.0365" stroke="#000000" stroke-width="0.0249745" fill="none" transform="matrix(1.00065 0 0 1 -29.0912 -52.2548)"/><path d="M62.8758 82.0416C62.8758 87.8841 67.6123 92.6203 73.4547 92.6203 79.298 92.6203 84.0342 87.8841 84.0342 82.0416 84.0342 76.1983 79.298 71.4621 73.4547 71.4621 67.6123 71.4621 62.8758 76.1983 62.8758 82.0416Z" stroke="#000000" stroke-width="0.849131" fill="none" transform="matrix(1.00065 0 0 1 -29.0912 -52.2548)"/><path d="M176.635 94.2639C176.635 100.106 181.371 104.843 187.214 104.843 193.057 104.843 197.793 100.106 197.793 94.2639 197.793 88.4213 193.057 83.6845 187.214 83.6845 181.371 83.6845 176.635 88.4213 176.635 94.2639Z" stroke="#000000" stroke-width="0.849131" fill="none" transform="matrix(1.00065 0 0 1 -29.0912 -52.2548)"/></g></g></g><g clip-path="url(#clip4)"><g clip-path="url(#clip5)"><g clip-path="url(#clip6)"><path d="M50.1749 108.473 42.0287 103.768 39.9109 107.435 48.0569 112.14Z" fill="#FFC700" transform="matrix(1.00114 0 0 1 -4.71903 25.2891)"/><path d="M38.8525 105.602C38.8525 106.771 39.8004 107.718 40.9698 107.718 42.1391 107.718 43.0871 106.771 43.0871 105.602 43.0871 104.432 42.1391 103.484 40.9698 103.484 39.8004 103.484 38.8525 104.432 38.8525 105.602Z" fill="#FFC700" transform="matrix(1.00114 0 0 1 -4.71903 25.2891)"/><path d="M46.9986 110.306C46.9986 111.476 47.9465 112.424 49.1159 112.424 50.2853 112.424 51.2332 111.476 51.2332 110.306 51.2332 109.137 50.2853 108.189 49.1159 108.189 47.9465 108.189 46.9986 109.137 46.9986 110.306Z" fill="#FFC700" transform="matrix(1.00114 0 0 1 -4.71903 25.2891)"/><path d="M106.305 121.481 112.184 111.295 108.517 109.179 102.638 119.364Z" fill="#63E61D" transform="matrix(1.00114 0 0 1 -4.71903 25.2891)"/><path d="M108.234 110.237C108.234 111.406 109.182 112.354 110.351 112.354 111.52 112.354 112.468 111.406 112.468 110.237 112.468 109.068 111.52 108.12 110.351 108.12 109.182 108.12 108.234 109.068 108.234 110.237Z" fill="#63E61D" transform="matrix(1.00114 0 0 1 -4.71903 25.2891)"/><path d="M102.355 120.423C102.355 121.592 103.303 122.54 104.472 122.54 105.641 122.54 106.589 121.592 106.589 120.423 106.589 119.254 105.641 118.306 104.472 118.306 103.303 118.306 102.355 119.254 102.355 120.423Z" fill="#63E61D" transform="matrix(1.00114 0 0 1 -4.71903 25.2891)"/><path d="M95.3449 128.139 105.53 122.256 103.413 118.589 93.2273 124.473Z" fill="#63E61D" transform="matrix(1.00114 0 0 1 -4.71903 25.2891)"/><path d="M102.355 120.423C102.355 121.592 103.303 122.54 104.472 122.54 105.641 122.54 106.589 121.592 106.589 120.423 106.589 119.254 105.641 118.306 104.472 118.306 103.303 118.306 102.355 119.254 102.355 120.423Z" fill="#63E61D" transform="matrix(1.00114 0 0 1 -4.71903 25.2891)"/><path d="M92.1695 126.306C92.1695 127.475 93.1168 128.423 94.2865 128.423 95.4554 128.423 96.4034 127.475 96.4034 126.306 96.4034 125.136 95.4554 124.189 94.2865 124.189 93.1168 124.189 92.1695 125.136 92.1695 126.306Z" fill="#63E61D" transform="matrix(1.00114 0 0 1 -4.71903 25.2891)"/><path d="M85.2693 123.543 93.2273 128.139 95.3449 124.473 87.3869 119.876Z" fill="#63E61D" transform="matrix(1.00114 0 0 1 -4.71903 25.2891)"/><path d="M92.1688 126.306C92.1688 127.475 93.1168 128.423 94.2865 128.423 95.4554 128.423 96.4034 127.475 96.4034 126.306 96.4034 125.136 95.4554 124.188 94.2865 124.188 93.1168 124.188 92.1688 125.136 92.1688 126.306Z" fill="#63E61D" transform="matrix(1.00114 0 0 1 -4.71903 25.2891)"/><path d="M84.2108 121.709C84.2057 122.878 85.1493 123.831 86.319 123.836 87.4879 123.841 88.4403 122.897 88.4453 121.728 88.4453 121.722 88.4453 121.715 88.4453 121.709 88.4504 120.54 87.5068 119.588 86.3372 119.583 85.1682 119.578 84.2159 120.522 84.2108 121.691 84.2108 121.697 84.2108 121.704 84.2108 121.709Z" fill="#63E61D" transform="matrix(1.00114 0 0 1 -4.71903 25.2891)"/><path d="M115.716 124.473 105.53 118.589 103.413 122.256 113.599 128.139Z" fill="#63E61D" transform="matrix(1.00114 0 0 1 -4.71903 25.2891)"/><path d="M102.355 120.423C102.355 121.592 103.303 122.54 104.472 122.54 105.641 122.54 106.589 121.592 106.589 120.423 106.589 119.254 105.641 118.306 104.472 118.306 103.303 118.306 102.355 119.254 102.355 120.423Z" fill="#63E61D" transform="matrix(1.00114 0 0 1 -4.71903 25.2891)"/><path d="M112.54 126.306C112.54 127.475 113.488 128.423 114.657 128.423 115.826 128.423 116.774 127.475 116.774 126.306 116.774 125.136 115.826 124.189 114.657 124.189 113.488 124.189 112.54 125.136 112.54 126.306Z" fill="#63E61D" transform="matrix(1.00114 0 0 1 -4.71903 25.2891)"/><path d="M121.574 119.866 113.598 124.473 115.716 128.139 123.691 123.533Z" fill="#63E61D" transform="matrix(1.00114 0 0 1 -4.71903 25.2891)"/><path d="M112.54 126.306C112.54 127.475 113.488 128.423 114.657 128.423 115.827 128.423 116.775 127.475 116.775 126.306 116.775 125.136 115.827 124.188 114.657 124.188 113.488 124.188 112.54 125.136 112.54 126.306Z" fill="#63E61D" transform="matrix(1.00114 0 0 1 -4.71903 25.2891)"/><path d="M120.515 121.699C120.515 122.869 121.463 123.817 122.633 123.817 123.802 123.817 124.75 122.869 124.75 121.699 124.75 120.53 123.802 119.582 122.633 119.582 121.463 119.582 120.515 120.53 120.515 121.699Z" fill="#63E61D" transform="matrix(1.00114 0 0 1 -4.71903 25.2891)"/><path d="M136.091 124.473 128.129 119.875 126.012 123.543 133.974 128.139Z" fill="#63E61D" transform="matrix(1.00114 0 0 1 -4.71903 25.2891)"/><path d="M124.953 121.709C124.953 122.878 125.901 123.826 127.071 123.826 128.24 123.826 129.188 122.878 129.188 121.709 129.188 120.54 128.24 119.592 127.071 119.592 125.901 119.592 124.953 120.54 124.953 121.709Z" fill="#63E61D" transform="matrix(1.00114 0 0 1 -4.71903 25.2891)"/><path d="M132.915 126.306C132.915 127.475 133.863 128.423 135.032 128.423 136.202 128.423 137.15 127.475 137.15 126.306 137.15 125.136 136.202 124.188 135.032 124.188 133.863 124.188 132.915 125.136 132.915 126.306Z" fill="#63E61D" transform="matrix(1.00114 0 0 1 -4.71903 25.2891)"/><path d="M144.159 118.589 133.973 124.473 136.092 128.139 146.277 122.256Z" fill="#63E61D" transform="matrix(1.00114 0 0 1 -4.71903 25.2891)"/><path d="M132.916 126.306C132.905 127.475 133.845 128.431 135.014 128.441 136.183 128.451 137.139 127.511 137.149 126.342 137.149 126.33 137.149 126.318 137.149 126.306 137.16 125.136 136.22 124.18 135.051 124.17 133.882 124.161 132.926 125.1 132.916 126.27 132.916 126.281 132.916 126.294 132.916 126.306Z" fill="#63E61D" transform="matrix(1.00114 0 0 1 -4.71903 25.2891)"/><path d="M143.101 120.423C143.091 121.592 144.031 122.548 145.2 122.558 146.369 122.568 147.325 121.629 147.335 120.459 147.335 120.447 147.335 120.435 147.335 120.423 147.345 119.254 146.406 118.297 145.236 118.288 144.067 118.278 143.111 119.217 143.101 120.386 143.101 120.399 143.101 120.41 143.101 120.423Z" fill="#63E61D" transform="matrix(1.00114 0 0 1 -4.71903 25.2891)"/><path d="M143.101 111.347 143.101 120.423 147.335 120.423 147.335 111.347Z" fill="#63E61D" transform="matrix(1.00114 0 0 1 -4.71903 25.2891)"/><path d="M143.101 120.423C143.091 121.592 144.031 122.548 145.2 122.558 146.369 122.568 147.325 121.629 147.335 120.459 147.335 120.447 147.335 120.435 147.335 120.423 147.345 119.254 146.406 118.297 145.236 118.288 144.067 118.278 143.111 119.217 143.101 120.386 143.101 120.399 143.101 120.41 143.101 120.423Z" fill="#63E61D" transform="matrix(1.00114 0 0 1 -4.71903 25.2891)"/><path d="M143.101 111.347C143.091 112.517 144.031 113.473 145.2 113.483 146.369 113.493 147.325 112.553 147.335 111.384 147.335 111.372 147.335 111.36 147.335 111.347 147.345 110.178 146.406 109.223 145.236 109.212 144.067 109.202 143.111 110.142 143.101 111.311 143.101 111.323 143.101 111.336 143.101 111.347Z" fill="#63E61D" transform="matrix(1.00114 0 0 1 -4.71903 25.2891)"/><path d="M154.515 123.347 146.277 118.589 144.159 122.256 152.397 127.014Z" fill="#63E61D" transform="matrix(1.00114 0 0 1 -4.71903 25.2891)"/><path d="M143.101 120.423C143.101 121.592 144.049 122.54 145.218 122.54 146.388 122.54 147.335 121.592 147.335 120.423 147.335 119.253 146.388 118.305 145.218 118.305 144.049 118.305 143.101 119.253 143.101 120.423Z" fill="#63E61D" transform="matrix(1.00114 0 0 1 -4.71903 25.2891)"/><path d="M151.339 125.181C151.339 126.35 152.287 127.298 153.456 127.298 154.625 127.298 155.573 126.35 155.573 125.181 155.573 124.012 154.625 123.064 153.456 123.064 152.287 123.064 151.339 124.012 151.339 125.181Z" fill="#63E61D" transform="matrix(1.00114 0 0 1 -4.71903 25.2891)"/><path d="M98.2876 113.948 102.638 121.481 106.305 119.364 101.954 111.831Z" fill="#63E61D" transform="matrix(1.00114 0 0 1 -4.71903 25.2891)"/><path d="M102.355 120.423C102.355 121.592 103.303 122.54 104.472 122.54 105.641 122.54 106.589 121.592 106.589 120.423 106.589 119.254 105.641 118.306 104.472 118.306 103.303 118.306 102.355 119.254 102.355 120.423Z" fill="#63E61D" transform="matrix(1.00114 0 0 1 -4.71903 25.2891)"/><path d="M98.0041 112.89C97.9954 114.059 98.9361 115.014 100.105 115.023 101.274 115.032 102.229 114.091 102.238 112.922 102.238 112.911 102.238 112.901 102.238 112.89 102.247 111.721 101.306 110.766 100.137 110.757 98.9673 110.748 98.0128 111.689 98.0041 112.859 98.0041 112.869 98.0041 112.88 98.0041 112.89Z" fill="#63E61D" transform="matrix(1.00114 0 0 1 -4.71903 25.2891)"/><path d="M235.268 117.13 243.142 121.678 245.26 118.011 237.387 113.464Z" fill="#FFC700" transform="matrix(1.00114 0 0 1 -4.71903 25.2891)"/><path d="M242.085 119.845C242.065 121.014 242.997 121.978 244.166 121.998 245.335 122.018 246.298 121.086 246.319 119.918 246.32 119.893 246.32 119.869 246.319 119.845 246.339 118.675 245.407 117.711 244.238 117.691 243.069 117.671 242.105 118.602 242.085 119.771 242.084 119.796 242.084 119.82 242.085 119.845Z" fill="#FFC700" transform="matrix(1.00114 0 0 1 -4.71903 25.2891)"/><path d="M234.209 115.297C234.209 116.467 235.158 117.415 236.327 117.415 237.497 117.415 238.445 116.467 238.445 115.297 238.445 114.127 237.497 113.179 236.327 113.179 235.158 113.179 234.209 114.127 234.209 115.297Z" fill="#FFC700" transform="matrix(1.00114 0 0 1 -4.71903 25.2891)"/><path d="M8.29219 123.247C8.29219 124.416 9.24 125.364 10.4091 125.364 11.5783 125.364 12.526 124.416 12.526 123.247 12.526 122.077 11.5783 121.13 10.4091 121.13 9.24 121.13 8.29219 122.077 8.29219 123.247Z" fill="#0000FF" transform="matrix(1.00114 0 0 1 -4.71903 25.2891)"/><path d="M47.6012 112.206C47.6012 113.939 49.0058 115.344 50.7385 115.344 52.4712 115.344 53.8759 113.939 53.8759 112.206 53.8759 110.474 52.4712 109.068 50.7385 109.068 49.0058 109.068 47.6012 110.474 47.6012 112.206Z" fill="#0000FF" transform="matrix(1.00114 0 0 1 -4.71903 25.2891)"/><path d="M152.16 126.177C152.152 127.884 152.837 129.279 153.69 129.295 154.543 129.311 155.241 127.94 155.249 126.233 155.249 126.214 155.249 126.196 155.249 126.177 155.257 124.47 154.572 123.075 153.718 123.059 152.865 123.043 152.167 124.414 152.16 126.12 152.159 126.139 152.159 126.158 152.16 126.177Z" fill="#63E61D" transform="matrix(1.00114 0 0 1 -4.71903 25.2891)"/><path d="M156.603 126.177C156.596 127.884 157.281 129.279 158.134 129.295 158.988 129.311 159.686 127.94 159.694 126.233 159.694 126.214 159.694 126.196 159.694 126.177 159.701 124.47 159.016 123.075 158.163 123.059 157.309 123.043 156.611 124.414 156.603 126.12 156.603 126.139 156.603 126.158 156.603 126.177Z" fill="#63E61D" transform="matrix(1.00114 0 0 1 -4.71903 25.2891)"/><path d="M153.704 123.087 158.149 123.087 158.149 129.267 153.704 129.267 153.704 123.087" fill="#63E61D" transform="matrix(1.00114 0 0 1 -4.71903 25.2891)"/><path d="M89.7597 110.623C89.7597 112.576 90.5506 114.159 91.5276 114.159 92.504 114.159 93.2956 112.576 93.2956 110.623 93.2956 108.67 92.504 107.087 91.5276 107.087 90.5506 107.087 89.7597 108.67 89.7597 110.623Z" fill="#FFC700" transform="matrix(1.00114 0 0 1 -4.71903 25.2891)"/><path d="M98.5203 110.623C98.5115 112.576 99.2952 114.173 100.272 114.191 101.249 114.209 102.047 112.641 102.056 110.688 102.056 110.666 102.056 110.644 102.056 110.623 102.065 108.67 101.281 107.073 100.304 107.055 99.3279 107.037 98.529 108.605 98.5203 110.558 98.5203 110.58 98.5203 110.602 98.5203 110.623Z" fill="#FFC700" transform="matrix(1.00114 0 0 1 -4.71903 25.2891)"/><path d="M91.5269 107.087 100.288 107.087 100.288 114.159 91.5269 114.159 91.5269 107.087" fill="#FFC700" transform="matrix(1.00114 0 0 1 -4.71903 25.2891)"/><path d="M77.3265 120.294C77.3185 122 78.0041 123.396 78.8575 123.412 79.7102 123.427 80.4081 122.057 80.4161 120.35 80.4161 120.331 80.4161 120.312 80.4161 120.294 80.4241 118.587 79.7386 117.191 78.8858 117.175 78.0324 117.16 77.3345 118.531 77.3265 120.237 77.3265 120.256 77.3265 120.275 77.3265 120.294Z" fill="#63E61D" transform="matrix(1.00114 0 0 1 -4.71903 25.2891)"/><path d="M84.386 120.294C84.378 122 85.0635 123.396 85.917 123.412 86.7704 123.427 87.4683 122.057 87.4763 120.35 87.4763 120.331 87.4763 120.312 87.4763 120.294 87.4836 118.587 86.7988 117.191 85.9453 117.175 85.0919 117.16 84.394 118.531 84.386 120.237 84.386 120.256 84.386 120.275 84.386 120.294Z" fill="#63E61D" transform="matrix(1.00114 0 0 1 -4.71903 25.2891)"/><path d="M78.8713 117.204 85.9308 117.204 85.9308 123.384 78.8713 123.384 78.8713 117.204" fill="#63E61D" transform="matrix(1.00114 0 0 1 -4.71903 25.2891)"/><path d="M243.756 119.088C243.718 119.849 244.922 120.482 246.445 120.501 247.968 120.519 249.232 119.918 249.27 119.156 249.271 119.133 249.271 119.111 249.27 119.088 249.308 118.326 248.104 117.694 246.581 117.675 245.058 117.657 243.793 118.259 243.756 119.02 243.755 119.042 243.755 119.066 243.756 119.088Z" fill="#FFC700" transform="matrix(1.00114 0 0 1 -4.71903 25.2891)"/><path d="M243.756 126.958C243.718 127.72 244.922 128.352 246.445 128.371 247.968 128.39 249.232 127.788 249.27 127.026 249.271 127.004 249.271 126.981 249.27 126.958 249.308 126.197 248.104 125.565 246.581 125.546 245.058 125.527 243.793 126.129 243.756 126.89 243.755 126.913 243.755 126.936 243.756 126.958Z" fill="#FFC700" transform="matrix(1.00114 0 0 1 -4.71903 25.2891)"/><path d="M243.756 119.088 249.27 119.088 249.27 126.958 243.756 126.958 243.756 119.088" fill="#FFC700" transform="matrix(1.00114 0 0 1 -4.71903 25.2891)"/><path d="M121.706 120.423C121.695 122.155 123.091 123.568 124.824 123.579 126.556 123.59 127.969 122.194 127.98 120.461 127.98 120.448 127.98 120.436 127.98 120.423 127.991 118.69 126.595 117.277 124.862 117.266 123.129 117.255 121.716 118.652 121.706 120.384 121.706 120.397 121.706 120.41 121.706 120.423Z" fill="#63E61D" transform="matrix(1.00114 0 0 1 -4.71903 25.2891)"/><path d="M142.081 108.661C142.072 110.393 143.47 111.805 145.203 111.813 146.935 111.822 148.347 110.425 148.355 108.692 148.355 108.682 148.355 108.671 148.355 108.661 148.364 106.928 146.966 105.516 145.234 105.508 143.501 105.499 142.09 106.896 142.081 108.629 142.081 108.64 142.081 108.65 142.081 108.661Z" fill="#63E61D" transform="matrix(1.00114 0 0 1 -4.71903 25.2891)"/><text font-family="Arial,Arial_MSFontService,sans-serif" font-weight="400" font-size="180" transform="matrix(0.0196327 0 0 0.0196103 34.3225 130)">12<tspan font-size="180" x="-518.59" y="305.962">13</tspan><tspan font-size="180" x="-1039.01" y="0">18</tspan><tspan font-size="180" x="-1687.84" y="356.956">17</tspan><tspan font-size="180" x="-1767.83" y="1070.87">16</tspan><tspan font-size="180" x="-1039.01" y="1427.82">15</tspan><tspan font-size="180" x="-389.18" y="1070.87">14</tspan><tspan font-size="240" x="505.4" y="458.943">O</tspan><tspan font-size="180" x="739.45" y="560.93">19</tspan></text><path d="M40.9724 105.202 40.9727 105.972 31.103 111.671 30.7803 111.484 30.7803 111.112Z" transform="matrix(1.00114 0 0 1 -4.71903 25.2891)"/><path d="M30.7803 111.112 30.7803 111.484 30.4575 111.671 20.5947 105.974 20.5947 105.203Z" transform="matrix(1.00114 0 0 1 -4.71903 25.2891)"/><path d="M20.5947 105.203 20.5947 105.974 10.7319 111.671 10.0645 111.286Z" transform="matrix(1.00114 0 0 1 -4.71903 25.2891)"/><path d="M10.0645 111.286 10.7319 111.671 10.7319 123.06 10.0645 123.445Z" transform="matrix(1.00114 0 0 1 -4.71903 25.2891)"/><path d="M10.0645 123.445 10.7319 123.06 20.5947 128.753 20.5947 129.524Z" transform="matrix(1.00114 0 0 1 -4.71903 25.2891)"/><path d="M20.5947 129.524 20.5947 128.753 30.4575 123.06 31.1251 123.445Z" transform="matrix(1.00114 0 0 1 -4.71903 25.2891)"/><path d="M30.4575 111.671 30.7803 111.484 31.103 111.671 31.1251 123.445 30.4575 123.06Z" transform="matrix(1.00114 0 0 1 -4.71903 25.2891)"/><path d="M40.9727 105.972 40.9724 105.202 49.2826 110.018 48.9492 110.595Z" transform="matrix(1.00114 0 0 1 -4.71903 25.2891)"/><path d="M40.8029 107.815 41.1363 107.237 48.449 111.461 48.1154 112.039Z" transform="matrix(1.00114 0 0 1 -4.71903 25.2891)"/><text font-family="Arial,Arial_MSFontService,sans-serif" font-weight="400" font-size="180" transform="matrix(0.0196327 0 0 0.0196103 105.753 135)">1<tspan font-size="180" x="-350.06" y="764.905">2</tspan><tspan font-size="180" x="-869.46" y="1019.87">3</tspan><tspan font-size="240" x="-1604.97" y="662.918">HO</tspan><tspan font-size="180" x="-1717.53" y="509.937">4</tspan><tspan font-size="180" x="169.34" y="1019.87">5</tspan><tspan font-size="240" x="645.95" y="662.918">O</tspan><tspan font-size="180" x="689.22" y="356.956">6</tspan><tspan font-size="180" x="1208.34" y="1019.87">7</tspan><tspan font-size="180" x="1727.74" y="764.905">8</tspan><tspan font-size="240" x="1684.95" y="50.9937">O</tspan><tspan font-size="180" x="1728.24" y="-203.975">9</tspan><tspan font-size="240" x="2211.03" y="917.886">Cl</tspan><tspan font-size="180" x="2452.35" y="1019.87">10</tspan><tspan font-size="240" x="-959.6" y="101.987">H</tspan><tspan font-size="180" x="-786.28" y="152.981">2</tspan><tspan font-size="240" x="-686.17" y="101.987">N</tspan><tspan font-size="180" x="-1023.13" y="-101.987">11</tspan></text><path d="M110.062 110.07 110.639 110.404 104.903 120.307 104.472 120.423 104.465 119.825Z" transform="matrix(1.00114 0 0 1 -4.71903 25.2891)"/><path d="M104.046 120.304 104.472 120.423 104.472 120.796 94.2835 126.706 94.2828 125.935Z" transform="matrix(1.00114 0 0 1 -4.71903 25.2891)"/><path d="M94.2828 125.935 94.2835 126.706 86.1612 121.998 86.4949 121.421Z" transform="matrix(1.00114 0 0 1 -4.71903 25.2891)"/><path d="M104.472 120.796 104.472 120.423 104.903 120.307 114.661 125.935 114.66 126.706Z" transform="matrix(1.00114 0 0 1 -4.71903 25.2891)"/><path d="M114.66 126.706 114.661 125.935 122.466 121.411 122.799 121.988Z" transform="matrix(1.00114 0 0 1 -4.71903 25.2891)"/><path d="M126.904 121.997 127.237 121.42 135.029 125.935 135.03 126.706Z" transform="matrix(1.00114 0 0 1 -4.71903 25.2891)"/><path d="M135.03 126.706 135.029 125.935 145.22 120.023 145.221 120.794Z" transform="matrix(1.00114 0 0 1 -4.71903 25.2891)"/><path d="M144.718 120.904 144.051 120.904 144.051 111.347 144.718 111.347Z" transform="matrix(1.00114 0 0 1 -4.71903 25.2891)"/><path d="M146.385 120.904 145.718 120.904 145.718 111.347 146.385 111.347Z" transform="matrix(1.00114 0 0 1 -4.71903 25.2891)"/><path d="M145.221 120.794 145.22 120.023 153.623 124.892 153.289 125.47Z" transform="matrix(1.00114 0 0 1 -4.71903 25.2891)"/><path d="M104.465 119.825 104.472 120.423 104.046 120.304 99.8324 113.057 100.41 112.724Z" transform="matrix(1.00114 0 0 1 -4.71903 25.2891)"/><text font-family="Arial,Arial_MSFontService,sans-serif" font-weight="400" font-size="180" transform="matrix(0.0196327 0 0 0.0196103 251.28 156)">1<tspan font-size="180" x="87.1009" y="-764.905">2</tspan><tspan font-size="180" x="-85.9996" y="-1376.83">3</tspan><tspan font-size="240" x="476.7" y="-1580.8">OH</tspan><tspan font-size="180" x="849.2" y="-1733.78">4</tspan><tspan font-size="180" x="520.401" y="-305.962">5</tspan><tspan font-size="240" x="996.1" y="-713.911">O</tspan><tspan font-size="180" x="1039.3" y="-968.88">6</tspan><tspan font-size="180" x="1558.5" y="-305.962">7</tspan><tspan font-size="180" x="2077.8" y="-560.93">8</tspan><tspan font-size="240" x="2035.1" y="-1274.84">O</tspan><tspan font-size="180" x="2078.3" y="-1580.8">9</tspan><tspan font-size="240" x="2561.1" y="-407.949">Cl</tspan><tspan font-size="180" x="2802.5" y="-305.962">10</tspan><tspan font-size="240" x="-555.5" y="-407.949">N</tspan><tspan font-size="240" x="-555.5" y="-203.975">H</tspan><tspan font-size="180" x="-568.9" y="0">11</tspan><tspan font-size="180" x="-1088.8" y="-866.892">12</tspan><tspan font-size="180" x="-1607.4" y="-560.93">13</tspan><tspan font-size="180" x="-1478" y="254.968">14</tspan><tspan font-size="180" x="-2126.8" y="611.924">15</tspan><tspan font-size="180" x="-2856.6" y="254.968">16</tspan><tspan font-size="180" x="-2776.6" y="-458.943">17</tspan><tspan font-size="180" x="-2126.8" y="-866.892">18</tspan></text><path d="M257.032 127.059 256.365 127.059 256.394 115.813 256.698 115.297 257.002 115.823Z" transform="matrix(1.00114 0 0 1 -4.71903 25.2891)"/><path d="M257.022 115.11 256.698 115.297 256.375 115.114 256.354 103.332 257.022 103.717Z" transform="matrix(1.00114 0 0 1 -4.71903 25.2891)"/><path d="M257.022 103.717 256.354 103.332 264.507 98.6424 264.841 99.2203Z" transform="matrix(1.00114 0 0 1 -4.71903 25.2891)"/><path d="M257.002 115.823 256.698 115.297 257.022 115.11 266.888 120.809 266.886 121.579Z" transform="matrix(1.00114 0 0 1 -4.71903 25.2891)"/><path d="M266.886 121.579 266.888 120.809 274.693 116.285 275.026 116.862Z" transform="matrix(1.00114 0 0 1 -4.71903 25.2891)"/><path d="M279.131 116.872 279.464 116.294 287.255 120.809 287.257 121.579Z" transform="matrix(1.00114 0 0 1 -4.71903 25.2891)"/><path d="M287.257 121.579 287.255 120.809 297.446 114.897 297.446 115.668Z" transform="matrix(1.00114 0 0 1 -4.71903 25.2891)"/><path d="M296.945 115.778 296.278 115.778 296.278 106.222 296.945 106.222Z" transform="matrix(1.00114 0 0 1 -4.71903 25.2891)"/><path d="M298.612 115.778 297.944 115.778 297.944 106.222 298.612 106.222Z" transform="matrix(1.00114 0 0 1 -4.71903 25.2891)"/><path d="M297.446 115.668 297.446 114.897 305.849 119.766 305.516 120.344Z" transform="matrix(1.00114 0 0 1 -4.71903 25.2891)"/><path d="M256.375 115.114 256.698 115.297 256.394 115.813 248.972 120.144 248.639 119.567Z" transform="matrix(1.00114 0 0 1 -4.71903 25.2891)"/><path d="M244.368 119.556 244.034 120.133 236.331 115.668 236.331 114.896Z" transform="matrix(1.00114 0 0 1 -4.71903 25.2891)"/><path d="M236.331 114.896 236.331 115.668 226.461 121.366 226.138 121.18 226.138 120.807Z" transform="matrix(1.00114 0 0 1 -4.71903 25.2891)"/><path d="M225.814 121.366 226.138 121.18 226.461 121.366 226.483 133.141 225.814 132.756Z" transform="matrix(1.00114 0 0 1 -4.71903 25.2891)"/><path d="M225.814 132.756 226.483 133.141 215.952 139.219 215.952 138.448Z" transform="matrix(1.00114 0 0 1 -4.71903 25.2891)"/><path d="M215.952 138.448 215.952 139.219 205.422 133.141 206.09 132.756Z" transform="matrix(1.00114 0 0 1 -4.71903 25.2891)"/><path d="M206.09 132.756 205.422 133.141 205.422 120.98 206.09 121.366Z" transform="matrix(1.00114 0 0 1 -4.71903 25.2891)"/><path d="M206.09 121.366 205.422 120.98 215.952 114.899 215.952 115.669Z" transform="matrix(1.00114 0 0 1 -4.71903 25.2891)"/><path d="M226.138 120.807 226.138 121.18 225.814 121.366 215.952 115.669 215.952 114.899Z" transform="matrix(1.00114 0 0 1 -4.71903 25.2891)"/><path d="M187.79 117.701 169.97 117.701 169.97 117.034 187.79 117.034Z" transform="matrix(1.00114 0 0 1 -4.71903 25.2891)"/><path d="M193.604 117.367C193.604 117.367 186.937 119.054 186.937 119.054 186.937 119.054 187.77 118.105 187.77 117.367 187.77 116.621 186.937 115.661 186.937 115.661 186.937 115.661 193.604 117.367 193.604 117.367 193.604 117.367 193.604 117.367 193.604 117.367" transform="matrix(1.00114 0 0 1 -4.71903 25.2891)"/><path d="M193.604 117.367C193.604 117.367 186.937 119.054 186.937 119.054 186.937 119.054 187.77 118.105 187.77 117.367 187.77 116.621 186.937 115.661 186.937 115.661 186.937 115.661 193.604 117.367 193.604 117.367 193.604 117.367 193.604 117.367 193.604 117.367" stroke="#000000" stroke-width="0.0196103" fill="none" transform="matrix(1.00114 0 0 1 -4.71903 25.2891)"/><text font-family="Times New Roman,Times New Roman_MSFontService,sans-serif" font-weight="400" font-size="240" transform="matrix(0.0196327 0 0 0.0196103 59.7429 144)">+</text><path d="M12.2878 117.364C12.2878 121.952 16.007 125.671 20.5947 125.671 25.1825 125.671 28.9016 121.952 28.9016 117.364 28.9016 112.776 25.1825 109.057 20.5947 109.057 16.007 109.057 12.2878 112.776 12.2878 117.364Z" stroke="#000000" stroke-width="0.666749" fill="none" transform="matrix(1.00114 0 0 1 -4.71903 25.2891)"/><path d="M207.649 127.059C207.649 131.645 211.367 135.362 215.952 135.362 220.538 135.362 224.256 131.645 224.256 127.059 224.256 122.474 220.538 118.756 215.952 118.756 211.367 118.756 207.649 122.474 207.649 127.059Z" stroke="#000000" stroke-width="0.666749" fill="none" transform="matrix(1.00114 0 0 1 -4.71903 25.2891)"/></g></g></g><path d="M11.595 87.3927C11.595 86.5225 12.3002 85.8174 13.1701 85.8174L80.3892 85.8174C81.2594 85.8174 81.9645 86.5225 81.9645 87.3927L81.9645 93.6925C81.9645 94.5627 81.2594 95.2678 80.3892 95.2678L13.1701 95.2678C12.3002 95.2678 11.595 94.5627 11.595 93.6925Z" stroke="#FFFFFF" stroke-width="0.333189" stroke-miterlimit="8" fill="#3366FF" fill-rule="evenodd" transform="matrix(1.00008 0 0 1 -4.94371 -5.96106)"/><text font-family="Arial,Arial_MSFontService,sans-serif" font-weight="400" font-size="83" transform="matrix(0.0727017 0 0 0.0726958 11.4793 87)">Atom<tspan font-size="83" x="192.5" y="0">-</tspan><tspan font-size="83" x="220.5" y="0">mapping curated</tspan></text><path d="M11.595 111.455C11.595 110.585 12.3002 109.88 13.1701 109.88L80.3892 109.88C81.2594 109.88 81.9645 110.585 81.9645 111.455L81.9645 117.755C81.9645 118.625 81.2594 119.33 80.3892 119.33L13.1701 119.33C12.3002 119.33 11.595 118.625 11.595 117.755Z" stroke="#FFFFFF" stroke-width="0.333189" stroke-miterlimit="8" fill="#FFC600" fill-rule="evenodd" transform="matrix(1.00008 0 0 1 -4.94371 -5.96106)"/><text font-family="Arial,Arial_MSFontService,sans-serif" font-weight="400" font-size="83" transform="matrix(0.0727017 0 0 0.0726958 20.8093 111)">Reaction center</text></g></svg>