<?xml version="1.0" encoding="utf-8" standalone="no"?>
<!DOCTYPE svg PUBLIC "-//W3C//DTD SVG 1.1//EN"
  "http://www.w3.org/Graphics/SVG/1.1/DTD/svg11.dtd">
<!-- Created with matplotlib (https://matplotlib.org/) -->
<svg height="288pt" version="1.1" viewBox="0 0 432 288" width="432pt" xmlns="http://www.w3.org/2000/svg" xmlns:xlink="http://www.w3.org/1999/xlink">
 <defs>
  <style type="text/css">
*{stroke-linecap:butt;stroke-linejoin:round;}
  </style>
 </defs>
 <g id="figure_1">
  <g id="patch_1">
   <path d="M 0 288 
L 432 288 
L 432 0 
L 0 0 
z
" style="fill:#ffffff;"/>
  </g>
  <g id="axes_1">
   <g id="patch_2">
    <path d="M 73.018125 151.401766 
L 383.93 151.401766 
L 383.93 14.007003 
L 73.018125 14.007003 
z
" style="fill:#ffffff;"/>
   </g>
   <g id="patch_3">
    <path clip-path="url(#p4a1049119e)" d="M 87.150483 151.401766 
L 91.476715 151.401766 
L 91.476715 149.529395 
L 87.150483 149.529395 
z
" style="fill:#0000ff;opacity:0.4;"/>
   </g>
   <g id="patch_4">
    <path clip-path="url(#p4a1049119e)" d="M 101.571256 151.401766 
L 105.897488 151.401766 
L 105.897488 146.069487 
L 101.571256 146.069487 
z
" style="fill:#0000ff;opacity:0.4;"/>
   </g>
   <g id="patch_5">
    <path clip-path="url(#p4a1049119e)" d="M 115.99203 151.401766 
L 120.318262 151.401766 
L 120.318262 138.374015 
L 115.99203 138.374015 
z
" style="fill:#0000ff;opacity:0.4;"/>
   </g>
   <g id="patch_6">
    <path clip-path="url(#p4a1049119e)" d="M 130.412803 151.401766 
L 134.739035 151.401766 
L 134.739035 146.511298 
L 130.412803 146.511298 
z
" style="fill:#0000ff;opacity:0.4;"/>
   </g>
   <g id="patch_7">
    <path clip-path="url(#p4a1049119e)" d="M 144.833577 151.401766 
L 149.159809 151.401766 
L 149.159809 138.078527 
L 144.833577 138.078527 
z
" style="fill:#0000ff;opacity:0.4;"/>
   </g>
   <g id="patch_8">
    <path clip-path="url(#p4a1049119e)" d="M 159.25435 151.401766 
L 163.580582 151.401766 
L 163.580582 146.542552 
L 159.25435 146.542552 
z
" style="fill:#0000ff;opacity:0.4;"/>
   </g>
   <g id="patch_9">
    <path clip-path="url(#p4a1049119e)" d="M 173.675123 151.401766 
L 178.001356 151.401766 
L 178.001356 144.231211 
L 173.675123 144.231211 
z
" style="fill:#0000ff;opacity:0.4;"/>
   </g>
   <g id="patch_10">
    <path clip-path="url(#p4a1049119e)" d="M 188.095897 151.401766 
L 192.422129 151.401766 
L 192.422129 139.150381 
L 188.095897 139.150381 
z
" style="fill:#0000ff;opacity:0.4;"/>
   </g>
   <g id="patch_11">
    <path clip-path="url(#p4a1049119e)" d="M 202.51667 151.401766 
L 206.842902 151.401766 
L 206.842902 141.791304 
L 202.51667 141.791304 
z
" style="fill:#0000ff;opacity:0.4;"/>
   </g>
   <g id="patch_12">
    <path clip-path="url(#p4a1049119e)" d="M 216.937444 151.401766 
L 221.263676 151.401766 
L 221.263676 148.497318 
L 216.937444 148.497318 
z
" style="fill:#0000ff;opacity:0.4;"/>
   </g>
   <g id="patch_13">
    <path clip-path="url(#p4a1049119e)" d="M 231.358217 151.401766 
L 235.684449 151.401766 
L 235.684449 112.91517 
L 231.358217 112.91517 
z
" style="fill:#0000ff;opacity:0.4;"/>
   </g>
   <g id="patch_14">
    <path clip-path="url(#p4a1049119e)" d="M 245.778991 151.401766 
L 250.105223 151.401766 
L 250.105223 122.125018 
L 245.778991 122.125018 
z
" style="fill:#0000ff;opacity:0.4;"/>
   </g>
   <g id="patch_15">
    <path clip-path="url(#p4a1049119e)" d="M 260.199764 151.401766 
L 264.525996 151.401766 
L 264.525996 147.441801 
L 260.199764 147.441801 
z
" style="fill:#0000ff;opacity:0.4;"/>
   </g>
   <g id="patch_16">
    <path clip-path="url(#p4a1049119e)" d="M 274.620537 151.401766 
L 278.946769 151.401766 
L 278.946769 139.773321 
L 274.620537 139.773321 
z
" style="fill:#0000ff;opacity:0.4;"/>
   </g>
   <g id="patch_17">
    <path clip-path="url(#p4a1049119e)" d="M 289.041311 151.401766 
L 293.367543 151.401766 
L 293.367543 130.307051 
L 289.041311 130.307051 
z
" style="fill:#0000ff;opacity:0.4;"/>
   </g>
   <g id="patch_18">
    <path clip-path="url(#p4a1049119e)" d="M 303.462084 151.401766 
L 307.788316 151.401766 
L 307.788316 143.653021 
L 303.462084 143.653021 
z
" style="fill:#0000ff;opacity:0.4;"/>
   </g>
   <g id="patch_19">
    <path clip-path="url(#p4a1049119e)" d="M 317.882858 151.401766 
L 322.20909 151.401766 
L 322.20909 149.481805 
L 317.882858 149.481805 
z
" style="fill:#0000ff;opacity:0.4;"/>
   </g>
   <g id="patch_20">
    <path clip-path="url(#p4a1049119e)" d="M 332.303631 151.401766 
L 336.629863 151.401766 
L 336.629863 115.598002 
L 332.303631 115.598002 
z
" style="fill:#0000ff;opacity:0.4;"/>
   </g>
   <g id="patch_21">
    <path clip-path="url(#p4a1049119e)" d="M 346.724405 151.401766 
L 351.050637 151.401766 
L 351.050637 20.549611 
L 346.724405 20.549611 
z
" style="fill:#0000ff;opacity:0.4;"/>
   </g>
   <g id="patch_22">
    <path clip-path="url(#p4a1049119e)" d="M 361.145178 151.401766 
L 365.47141 151.401766 
L 365.47141 139.797471 
L 361.145178 139.797471 
z
" style="fill:#0000ff;opacity:0.4;"/>
   </g>
   <g id="patch_23">
    <path clip-path="url(#p4a1049119e)" d="M 87.150483 151.401766 
L 91.476715 151.401766 
L 91.476715 150.236151 
L 87.150483 150.236151 
z
" style="fill:#0000ff;"/>
   </g>
   <g id="patch_24">
    <path clip-path="url(#p4a1049119e)" d="M 101.571256 151.401766 
L 105.897488 151.401766 
L 105.897488 147.06818 
L 101.571256 147.06818 
z
" style="fill:#0000ff;"/>
   </g>
   <g id="patch_25">
    <path clip-path="url(#p4a1049119e)" d="M 115.99203 151.401766 
L 120.318262 151.401766 
L 120.318262 139.591482 
L 115.99203 139.591482 
z
" style="fill:#0000ff;"/>
   </g>
   <g id="patch_26">
    <path clip-path="url(#p4a1049119e)" d="M 130.412803 151.401766 
L 134.739035 151.401766 
L 134.739035 146.896995 
L 130.412803 146.896995 
z
" style="fill:#0000ff;"/>
   </g>
   <g id="patch_27">
    <path clip-path="url(#p4a1049119e)" d="M 144.833577 151.401766 
L 149.159809 151.401766 
L 149.159809 141.43473 
L 144.833577 141.43473 
z
" style="fill:#0000ff;"/>
   </g>
   <g id="patch_28">
    <path clip-path="url(#p4a1049119e)" d="M 159.25435 151.401766 
L 163.580582 151.401766 
L 163.580582 147.228709 
L 159.25435 147.228709 
z
" style="fill:#0000ff;"/>
   </g>
   <g id="patch_29">
    <path clip-path="url(#p4a1049119e)" d="M 173.675123 151.401766 
L 178.001356 151.401766 
L 178.001356 145.457912 
L 173.675123 145.457912 
z
" style="fill:#0000ff;"/>
   </g>
   <g id="patch_30">
    <path clip-path="url(#p4a1049119e)" d="M 188.095897 151.401766 
L 192.422129 151.401766 
L 192.422129 141.445385 
L 188.095897 141.445385 
z
" style="fill:#0000ff;"/>
   </g>
   <g id="patch_31">
    <path clip-path="url(#p4a1049119e)" d="M 202.51667 151.401766 
L 206.842902 151.401766 
L 206.842902 144.36759 
L 202.51667 144.36759 
z
" style="fill:#0000ff;"/>
   </g>
   <g id="patch_32">
    <path clip-path="url(#p4a1049119e)" d="M 216.937444 151.401766 
L 221.263676 151.401766 
L 221.263676 149.028629 
L 216.937444 149.028629 
z
" style="fill:#0000ff;"/>
   </g>
   <g id="patch_33">
    <path clip-path="url(#p4a1049119e)" d="M 231.358217 151.401766 
L 235.684449 151.401766 
L 235.684449 115.180341 
L 231.358217 115.180341 
z
" style="fill:#0000ff;"/>
   </g>
   <g id="patch_34">
    <path clip-path="url(#p4a1049119e)" d="M 245.778991 151.401766 
L 250.105223 151.401766 
L 250.105223 131.070632 
L 245.778991 131.070632 
z
" style="fill:#0000ff;"/>
   </g>
   <g id="patch_35">
    <path clip-path="url(#p4a1049119e)" d="M 260.199764 151.401766 
L 264.525996 151.401766 
L 264.525996 147.780618 
L 260.199764 147.780618 
z
" style="fill:#0000ff;"/>
   </g>
   <g id="patch_36">
    <path clip-path="url(#p4a1049119e)" d="M 274.620537 151.401766 
L 278.946769 151.401766 
L 278.946769 141.039089 
L 274.620537 141.039089 
z
" style="fill:#0000ff;"/>
   </g>
   <g id="patch_37">
    <path clip-path="url(#p4a1049119e)" d="M 289.041311 151.401766 
L 293.367543 151.401766 
L 293.367543 133.26051 
L 289.041311 133.26051 
z
" style="fill:#0000ff;"/>
   </g>
   <g id="patch_38">
    <path clip-path="url(#p4a1049119e)" d="M 303.462084 151.401766 
L 307.788316 151.401766 
L 307.788316 144.821477 
L 303.462084 144.821477 
z
" style="fill:#0000ff;"/>
   </g>
   <g id="patch_39">
    <path clip-path="url(#p4a1049119e)" d="M 317.882858 151.401766 
L 322.20909 151.401766 
L 322.20909 150.012405 
L 317.882858 150.012405 
z
" style="fill:#0000ff;"/>
   </g>
   <g id="patch_40">
    <path clip-path="url(#p4a1049119e)" d="M 332.303631 151.401766 
L 336.629863 151.401766 
L 336.629863 116.645705 
L 332.303631 116.645705 
z
" style="fill:#0000ff;"/>
   </g>
   <g id="patch_41">
    <path clip-path="url(#p4a1049119e)" d="M 346.724405 151.401766 
L 351.050637 151.401766 
L 351.050637 22.964657 
L 346.724405 22.964657 
z
" style="fill:#0000ff;"/>
   </g>
   <g id="patch_42">
    <path clip-path="url(#p4a1049119e)" d="M 361.145178 151.401766 
L 365.47141 151.401766 
L 365.47141 141.562585 
L 361.145178 141.562585 
z
" style="fill:#0000ff;"/>
   </g>
   <g id="matplotlib.axis_1">
    <g id="xtick_1">
     <g id="line2d_1">
      <defs>
       <path d="M 0 0 
L 0 3.5 
" id="m617fe49a50" style="stroke:#000000;stroke-width:0.8;"/>
      </defs>
      <g>
       <use style="stroke:#000000;stroke-width:0.8;" x="91.476715" xlink:href="#m617fe49a50" y="151.401766"/>
      </g>
     </g>
     <g id="text_1">
      <!-- Adams decarboxylation -->
      <defs>
       <path d="M 34.1875 63.1875 
L 20.796875 26.90625 
L 47.609375 26.90625 
z
M 28.609375 72.90625 
L 39.796875 72.90625 
L 67.578125 0 
L 57.328125 0 
L 50.6875 18.703125 
L 17.828125 18.703125 
L 11.1875 0 
L 0.78125 0 
z
" id="DejaVuSans-65"/>
       <path d="M 45.40625 46.390625 
L 45.40625 75.984375 
L 54.390625 75.984375 
L 54.390625 0 
L 45.40625 0 
L 45.40625 8.203125 
Q 42.578125 3.328125 38.25 0.953125 
Q 33.9375 -1.421875 27.875 -1.421875 
Q 17.96875 -1.421875 11.734375 6.484375 
Q 5.515625 14.40625 5.515625 27.296875 
Q 5.515625 40.1875 11.734375 48.09375 
Q 17.96875 56 27.875 56 
Q 33.9375 56 38.25 53.625 
Q 42.578125 51.265625 45.40625 46.390625 
z
M 14.796875 27.296875 
Q 14.796875 17.390625 18.875 11.75 
Q 22.953125 6.109375 30.078125 6.109375 
Q 37.203125 6.109375 41.296875 11.75 
Q 45.40625 17.390625 45.40625 27.296875 
Q 45.40625 37.203125 41.296875 42.84375 
Q 37.203125 48.484375 30.078125 48.484375 
Q 22.953125 48.484375 18.875 42.84375 
Q 14.796875 37.203125 14.796875 27.296875 
z
" id="DejaVuSans-100"/>
       <path d="M 34.28125 27.484375 
Q 23.390625 27.484375 19.1875 25 
Q 14.984375 22.515625 14.984375 16.5 
Q 14.984375 11.71875 18.140625 8.90625 
Q 21.296875 6.109375 26.703125 6.109375 
Q 34.1875 6.109375 38.703125 11.40625 
Q 43.21875 16.703125 43.21875 25.484375 
L 43.21875 27.484375 
z
M 52.203125 31.203125 
L 52.203125 0 
L 43.21875 0 
L 43.21875 8.296875 
Q 40.140625 3.328125 35.546875 0.953125 
Q 30.953125 -1.421875 24.3125 -1.421875 
Q 15.921875 -1.421875 10.953125 3.296875 
Q 6 8.015625 6 15.921875 
Q 6 25.140625 12.171875 29.828125 
Q 18.359375 34.515625 30.609375 34.515625 
L 43.21875 34.515625 
L 43.21875 35.40625 
Q 43.21875 41.609375 39.140625 45 
Q 35.0625 48.390625 27.6875 48.390625 
Q 23 48.390625 18.546875 47.265625 
Q 14.109375 46.140625 10.015625 43.890625 
L 10.015625 52.203125 
Q 14.9375 54.109375 19.578125 55.046875 
Q 24.21875 56 28.609375 56 
Q 40.484375 56 46.34375 49.84375 
Q 52.203125 43.703125 52.203125 31.203125 
z
" id="DejaVuSans-97"/>
       <path d="M 52 44.1875 
Q 55.375 50.25 60.0625 53.125 
Q 64.75 56 71.09375 56 
Q 79.640625 56 84.28125 50.015625 
Q 88.921875 44.046875 88.921875 33.015625 
L 88.921875 0 
L 79.890625 0 
L 79.890625 32.71875 
Q 79.890625 40.578125 77.09375 44.375 
Q 74.3125 48.1875 68.609375 48.1875 
Q 61.625 48.1875 57.5625 43.546875 
Q 53.515625 38.921875 53.515625 30.90625 
L 53.515625 0 
L 44.484375 0 
L 44.484375 32.71875 
Q 44.484375 40.625 41.703125 44.40625 
Q 38.921875 48.1875 33.109375 48.1875 
Q 26.21875 48.1875 22.15625 43.53125 
Q 18.109375 38.875 18.109375 30.90625 
L 18.109375 0 
L 9.078125 0 
L 9.078125 54.6875 
L 18.109375 54.6875 
L 18.109375 46.1875 
Q 21.1875 51.21875 25.484375 53.609375 
Q 29.78125 56 35.6875 56 
Q 41.65625 56 45.828125 52.96875 
Q 50 49.953125 52 44.1875 
z
" id="DejaVuSans-109"/>
       <path d="M 44.28125 53.078125 
L 44.28125 44.578125 
Q 40.484375 46.53125 36.375 47.5 
Q 32.28125 48.484375 27.875 48.484375 
Q 21.1875 48.484375 17.84375 46.4375 
Q 14.5 44.390625 14.5 40.28125 
Q 14.5 37.15625 16.890625 35.375 
Q 19.28125 33.59375 26.515625 31.984375 
L 29.59375 31.296875 
Q 39.15625 29.25 43.1875 25.515625 
Q 47.21875 21.78125 47.21875 15.09375 
Q 47.21875 7.46875 41.1875 3.015625 
Q 35.15625 -1.421875 24.609375 -1.421875 
Q 20.21875 -1.421875 15.453125 -0.5625 
Q 10.6875 0.296875 5.421875 2 
L 5.421875 11.28125 
Q 10.40625 8.6875 15.234375 7.390625 
Q 20.0625 6.109375 24.8125 6.109375 
Q 31.15625 6.109375 34.5625 8.28125 
Q 37.984375 10.453125 37.984375 14.40625 
Q 37.984375 18.0625 35.515625 20.015625 
Q 33.0625 21.96875 24.703125 23.78125 
L 21.578125 24.515625 
Q 13.234375 26.265625 9.515625 29.90625 
Q 5.8125 33.546875 5.8125 39.890625 
Q 5.8125 47.609375 11.28125 51.796875 
Q 16.75 56 26.8125 56 
Q 31.78125 56 36.171875 55.265625 
Q 40.578125 54.546875 44.28125 53.078125 
z
" id="DejaVuSans-115"/>
       <path id="DejaVuSans-32"/>
       <path d="M 56.203125 29.59375 
L 56.203125 25.203125 
L 14.890625 25.203125 
Q 15.484375 15.921875 20.484375 11.0625 
Q 25.484375 6.203125 34.421875 6.203125 
Q 39.59375 6.203125 44.453125 7.46875 
Q 49.3125 8.734375 54.109375 11.28125 
L 54.109375 2.78125 
Q 49.265625 0.734375 44.1875 -0.34375 
Q 39.109375 -1.421875 33.890625 -1.421875 
Q 20.796875 -1.421875 13.15625 6.1875 
Q 5.515625 13.8125 5.515625 26.8125 
Q 5.515625 40.234375 12.765625 48.109375 
Q 20.015625 56 32.328125 56 
Q 43.359375 56 49.78125 48.890625 
Q 56.203125 41.796875 56.203125 29.59375 
z
M 47.21875 32.234375 
Q 47.125 39.59375 43.09375 43.984375 
Q 39.0625 48.390625 32.421875 48.390625 
Q 24.90625 48.390625 20.390625 44.140625 
Q 15.875 39.890625 15.1875 32.171875 
z
" id="DejaVuSans-101"/>
       <path d="M 48.78125 52.59375 
L 48.78125 44.1875 
Q 44.96875 46.296875 41.140625 47.34375 
Q 37.3125 48.390625 33.40625 48.390625 
Q 24.65625 48.390625 19.8125 42.84375 
Q 14.984375 37.3125 14.984375 27.296875 
Q 14.984375 17.28125 19.8125 11.734375 
Q 24.65625 6.203125 33.40625 6.203125 
Q 37.3125 6.203125 41.140625 7.25 
Q 44.96875 8.296875 48.78125 10.40625 
L 48.78125 2.09375 
Q 45.015625 0.34375 40.984375 -0.53125 
Q 36.96875 -1.421875 32.421875 -1.421875 
Q 20.0625 -1.421875 12.78125 6.34375 
Q 5.515625 14.109375 5.515625 27.296875 
Q 5.515625 40.671875 12.859375 48.328125 
Q 20.21875 56 33.015625 56 
Q 37.15625 56 41.109375 55.140625 
Q 45.0625 54.296875 48.78125 52.59375 
z
" id="DejaVuSans-99"/>
       <path d="M 41.109375 46.296875 
Q 39.59375 47.171875 37.8125 47.578125 
Q 36.03125 48 33.890625 48 
Q 26.265625 48 22.1875 43.046875 
Q 18.109375 38.09375 18.109375 28.8125 
L 18.109375 0 
L 9.078125 0 
L 9.078125 54.6875 
L 18.109375 54.6875 
L 18.109375 46.1875 
Q 20.953125 51.171875 25.484375 53.578125 
Q 30.03125 56 36.53125 56 
Q 37.453125 56 38.578125 55.875 
Q 39.703125 55.765625 41.0625 55.515625 
z
" id="DejaVuSans-114"/>
       <path d="M 48.6875 27.296875 
Q 48.6875 37.203125 44.609375 42.84375 
Q 40.53125 48.484375 33.40625 48.484375 
Q 26.265625 48.484375 22.1875 42.84375 
Q 18.109375 37.203125 18.109375 27.296875 
Q 18.109375 17.390625 22.1875 11.75 
Q 26.265625 6.109375 33.40625 6.109375 
Q 40.53125 6.109375 44.609375 11.75 
Q 48.6875 17.390625 48.6875 27.296875 
z
M 18.109375 46.390625 
Q 20.953125 51.265625 25.265625 53.625 
Q 29.59375 56 35.59375 56 
Q 45.5625 56 51.78125 48.09375 
Q 58.015625 40.1875 58.015625 27.296875 
Q 58.015625 14.40625 51.78125 6.484375 
Q 45.5625 -1.421875 35.59375 -1.421875 
Q 29.59375 -1.421875 25.265625 0.953125 
Q 20.953125 3.328125 18.109375 8.203125 
L 18.109375 0 
L 9.078125 0 
L 9.078125 75.984375 
L 18.109375 75.984375 
z
" id="DejaVuSans-98"/>
       <path d="M 30.609375 48.390625 
Q 23.390625 48.390625 19.1875 42.75 
Q 14.984375 37.109375 14.984375 27.296875 
Q 14.984375 17.484375 19.15625 11.84375 
Q 23.34375 6.203125 30.609375 6.203125 
Q 37.796875 6.203125 41.984375 11.859375 
Q 46.1875 17.53125 46.1875 27.296875 
Q 46.1875 37.015625 41.984375 42.703125 
Q 37.796875 48.390625 30.609375 48.390625 
z
M 30.609375 56 
Q 42.328125 56 49.015625 48.375 
Q 55.71875 40.765625 55.71875 27.296875 
Q 55.71875 13.875 49.015625 6.21875 
Q 42.328125 -1.421875 30.609375 -1.421875 
Q 18.84375 -1.421875 12.171875 6.21875 
Q 5.515625 13.875 5.515625 27.296875 
Q 5.515625 40.765625 12.171875 48.375 
Q 18.84375 56 30.609375 56 
z
" id="DejaVuSans-111"/>
       <path d="M 54.890625 54.6875 
L 35.109375 28.078125 
L 55.90625 0 
L 45.3125 0 
L 29.390625 21.484375 
L 13.484375 0 
L 2.875 0 
L 24.125 28.609375 
L 4.6875 54.6875 
L 15.28125 54.6875 
L 29.78125 35.203125 
L 44.28125 54.6875 
z
" id="DejaVuSans-120"/>
       <path d="M 32.171875 -5.078125 
Q 28.375 -14.84375 24.75 -17.8125 
Q 21.140625 -20.796875 15.09375 -20.796875 
L 7.90625 -20.796875 
L 7.90625 -13.28125 
L 13.1875 -13.28125 
Q 16.890625 -13.28125 18.9375 -11.515625 
Q 21 -9.765625 23.484375 -3.21875 
L 25.09375 0.875 
L 2.984375 54.6875 
L 12.5 54.6875 
L 29.59375 11.921875 
L 46.6875 54.6875 
L 56.203125 54.6875 
z
" id="DejaVuSans-121"/>
       <path d="M 9.421875 75.984375 
L 18.40625 75.984375 
L 18.40625 0 
L 9.421875 0 
z
" id="DejaVuSans-108"/>
       <path d="M 18.3125 70.21875 
L 18.3125 54.6875 
L 36.8125 54.6875 
L 36.8125 47.703125 
L 18.3125 47.703125 
L 18.3125 18.015625 
Q 18.3125 11.328125 20.140625 9.421875 
Q 21.96875 7.515625 27.59375 7.515625 
L 36.8125 7.515625 
L 36.8125 0 
L 27.59375 0 
Q 17.1875 0 13.234375 3.875 
Q 9.28125 7.765625 9.28125 18.015625 
L 9.28125 47.703125 
L 2.6875 47.703125 
L 2.6875 54.6875 
L 9.28125 54.6875 
L 9.28125 70.21875 
z
" id="DejaVuSans-116"/>
       <path d="M 9.421875 54.6875 
L 18.40625 54.6875 
L 18.40625 0 
L 9.421875 0 
z
M 9.421875 75.984375 
L 18.40625 75.984375 
L 18.40625 64.59375 
L 9.421875 64.59375 
z
" id="DejaVuSans-105"/>
       <path d="M 54.890625 33.015625 
L 54.890625 0 
L 45.90625 0 
L 45.90625 32.71875 
Q 45.90625 40.484375 42.875 44.328125 
Q 39.84375 48.1875 33.796875 48.1875 
Q 26.515625 48.1875 22.3125 43.546875 
Q 18.109375 38.921875 18.109375 30.90625 
L 18.109375 0 
L 9.078125 0 
L 9.078125 54.6875 
L 18.109375 54.6875 
L 18.109375 46.1875 
Q 21.34375 51.125 25.703125 53.5625 
Q 30.078125 56 35.796875 56 
Q 45.21875 56 50.046875 50.171875 
Q 54.890625 44.34375 54.890625 33.015625 
z
" id="DejaVuSans-110"/>
      </defs>
      <g transform="translate(92.917565 161.441141)rotate(-300)scale(0.08 -0.08)">
       <use xlink:href="#DejaVuSans-65"/>
       <use x="66.658203" xlink:href="#DejaVuSans-100"/>
       <use x="130.134766" xlink:href="#DejaVuSans-97"/>
       <use x="191.414062" xlink:href="#DejaVuSans-109"/>
       <use x="288.826172" xlink:href="#DejaVuSans-115"/>
       <use x="340.925781" xlink:href="#DejaVuSans-32"/>
       <use x="372.712891" xlink:href="#DejaVuSans-100"/>
       <use x="436.189453" xlink:href="#DejaVuSans-101"/>
       <use x="497.712891" xlink:href="#DejaVuSans-99"/>
       <use x="552.693359" xlink:href="#DejaVuSans-97"/>
       <use x="613.972656" xlink:href="#DejaVuSans-114"/>
       <use x="655.085938" xlink:href="#DejaVuSans-98"/>
       <use x="718.5625" xlink:href="#DejaVuSans-111"/>
       <use x="776.619141" xlink:href="#DejaVuSans-120"/>
       <use x="835.798828" xlink:href="#DejaVuSans-121"/>
       <use x="894.978516" xlink:href="#DejaVuSans-108"/>
       <use x="922.761719" xlink:href="#DejaVuSans-97"/>
       <use x="984.041016" xlink:href="#DejaVuSans-116"/>
       <use x="1023.25" xlink:href="#DejaVuSans-105"/>
       <use x="1051.033203" xlink:href="#DejaVuSans-111"/>
       <use x="1112.214844" xlink:href="#DejaVuSans-110"/>
      </g>
     </g>
    </g>
    <g id="xtick_2">
     <g id="line2d_2">
      <g>
       <use style="stroke:#000000;stroke-width:0.8;" x="105.897488" xlink:href="#m617fe49a50" y="151.401766"/>
      </g>
     </g>
     <g id="text_2">
      <!-- Baylis-Hillman reaction -->
      <defs>
       <path d="M 19.671875 34.8125 
L 19.671875 8.109375 
L 35.5 8.109375 
Q 43.453125 8.109375 47.28125 11.40625 
Q 51.125 14.703125 51.125 21.484375 
Q 51.125 28.328125 47.28125 31.5625 
Q 43.453125 34.8125 35.5 34.8125 
z
M 19.671875 64.796875 
L 19.671875 42.828125 
L 34.28125 42.828125 
Q 41.5 42.828125 45.03125 45.53125 
Q 48.578125 48.25 48.578125 53.8125 
Q 48.578125 59.328125 45.03125 62.0625 
Q 41.5 64.796875 34.28125 64.796875 
z
M 9.8125 72.90625 
L 35.015625 72.90625 
Q 46.296875 72.90625 52.390625 68.21875 
Q 58.5 63.53125 58.5 54.890625 
Q 58.5 48.1875 55.375 44.234375 
Q 52.25 40.28125 46.1875 39.3125 
Q 53.46875 37.75 57.5 32.78125 
Q 61.53125 27.828125 61.53125 20.40625 
Q 61.53125 10.640625 54.890625 5.3125 
Q 48.25 0 35.984375 0 
L 9.8125 0 
z
" id="DejaVuSans-66"/>
       <path d="M 4.890625 31.390625 
L 31.203125 31.390625 
L 31.203125 23.390625 
L 4.890625 23.390625 
z
" id="DejaVuSans-45"/>
       <path d="M 9.8125 72.90625 
L 19.671875 72.90625 
L 19.671875 43.015625 
L 55.515625 43.015625 
L 55.515625 72.90625 
L 65.375 72.90625 
L 65.375 0 
L 55.515625 0 
L 55.515625 34.71875 
L 19.671875 34.71875 
L 19.671875 0 
L 9.8125 0 
z
" id="DejaVuSans-72"/>
      </defs>
      <g transform="translate(107.338338 161.441141)rotate(-300)scale(0.08 -0.08)">
       <use xlink:href="#DejaVuSans-66"/>
       <use x="68.603516" xlink:href="#DejaVuSans-97"/>
       <use x="129.882812" xlink:href="#DejaVuSans-121"/>
       <use x="189.0625" xlink:href="#DejaVuSans-108"/>
       <use x="216.845703" xlink:href="#DejaVuSans-105"/>
       <use x="244.628906" xlink:href="#DejaVuSans-115"/>
       <use x="296.728516" xlink:href="#DejaVuSans-45"/>
       <use x="332.8125" xlink:href="#DejaVuSans-72"/>
       <use x="408.007812" xlink:href="#DejaVuSans-105"/>
       <use x="435.791016" xlink:href="#DejaVuSans-108"/>
       <use x="463.574219" xlink:href="#DejaVuSans-108"/>
       <use x="491.357422" xlink:href="#DejaVuSans-109"/>
       <use x="588.769531" xlink:href="#DejaVuSans-97"/>
       <use x="650.048828" xlink:href="#DejaVuSans-110"/>
       <use x="713.427734" xlink:href="#DejaVuSans-32"/>
       <use x="745.214844" xlink:href="#DejaVuSans-114"/>
       <use x="784.078125" xlink:href="#DejaVuSans-101"/>
       <use x="845.601562" xlink:href="#DejaVuSans-97"/>
       <use x="906.880859" xlink:href="#DejaVuSans-99"/>
       <use x="961.861328" xlink:href="#DejaVuSans-116"/>
       <use x="1001.070312" xlink:href="#DejaVuSans-105"/>
       <use x="1028.853516" xlink:href="#DejaVuSans-111"/>
       <use x="1090.035156" xlink:href="#DejaVuSans-110"/>
      </g>
     </g>
    </g>
    <g id="xtick_3">
     <g id="line2d_3">
      <g>
       <use style="stroke:#000000;stroke-width:0.8;" x="120.318262" xlink:href="#m617fe49a50" y="151.401766"/>
      </g>
     </g>
     <g id="text_3">
      <!-- Buchwald-Hartwig cross coupling -->
      <defs>
       <path d="M 8.5 21.578125 
L 8.5 54.6875 
L 17.484375 54.6875 
L 17.484375 21.921875 
Q 17.484375 14.15625 20.5 10.265625 
Q 23.53125 6.390625 29.59375 6.390625 
Q 36.859375 6.390625 41.078125 11.03125 
Q 45.3125 15.671875 45.3125 23.6875 
L 45.3125 54.6875 
L 54.296875 54.6875 
L 54.296875 0 
L 45.3125 0 
L 45.3125 8.40625 
Q 42.046875 3.421875 37.71875 1 
Q 33.40625 -1.421875 27.6875 -1.421875 
Q 18.265625 -1.421875 13.375 4.4375 
Q 8.5 10.296875 8.5 21.578125 
z
M 31.109375 56 
z
" id="DejaVuSans-117"/>
       <path d="M 54.890625 33.015625 
L 54.890625 0 
L 45.90625 0 
L 45.90625 32.71875 
Q 45.90625 40.484375 42.875 44.328125 
Q 39.84375 48.1875 33.796875 48.1875 
Q 26.515625 48.1875 22.3125 43.546875 
Q 18.109375 38.921875 18.109375 30.90625 
L 18.109375 0 
L 9.078125 0 
L 9.078125 75.984375 
L 18.109375 75.984375 
L 18.109375 46.1875 
Q 21.34375 51.125 25.703125 53.5625 
Q 30.078125 56 35.796875 56 
Q 45.21875 56 50.046875 50.171875 
Q 54.890625 44.34375 54.890625 33.015625 
z
" id="DejaVuSans-104"/>
       <path d="M 4.203125 54.6875 
L 13.1875 54.6875 
L 24.421875 12.015625 
L 35.59375 54.6875 
L 46.1875 54.6875 
L 57.421875 12.015625 
L 68.609375 54.6875 
L 77.59375 54.6875 
L 63.28125 0 
L 52.6875 0 
L 40.921875 44.828125 
L 29.109375 0 
L 18.5 0 
z
" id="DejaVuSans-119"/>
       <path d="M 45.40625 27.984375 
Q 45.40625 37.75 41.375 43.109375 
Q 37.359375 48.484375 30.078125 48.484375 
Q 22.859375 48.484375 18.828125 43.109375 
Q 14.796875 37.75 14.796875 27.984375 
Q 14.796875 18.265625 18.828125 12.890625 
Q 22.859375 7.515625 30.078125 7.515625 
Q 37.359375 7.515625 41.375 12.890625 
Q 45.40625 18.265625 45.40625 27.984375 
z
M 54.390625 6.78125 
Q 54.390625 -7.171875 48.1875 -13.984375 
Q 42 -20.796875 29.203125 -20.796875 
Q 24.46875 -20.796875 20.265625 -20.09375 
Q 16.0625 -19.390625 12.109375 -17.921875 
L 12.109375 -9.1875 
Q 16.0625 -11.328125 19.921875 -12.34375 
Q 23.78125 -13.375 27.78125 -13.375 
Q 36.625 -13.375 41.015625 -8.765625 
Q 45.40625 -4.15625 45.40625 5.171875 
L 45.40625 9.625 
Q 42.625 4.78125 38.28125 2.390625 
Q 33.9375 0 27.875 0 
Q 17.828125 0 11.671875 7.65625 
Q 5.515625 15.328125 5.515625 27.984375 
Q 5.515625 40.671875 11.671875 48.328125 
Q 17.828125 56 27.875 56 
Q 33.9375 56 38.28125 53.609375 
Q 42.625 51.21875 45.40625 46.390625 
L 45.40625 54.6875 
L 54.390625 54.6875 
z
" id="DejaVuSans-103"/>
       <path d="M 18.109375 8.203125 
L 18.109375 -20.796875 
L 9.078125 -20.796875 
L 9.078125 54.6875 
L 18.109375 54.6875 
L 18.109375 46.390625 
Q 20.953125 51.265625 25.265625 53.625 
Q 29.59375 56 35.59375 56 
Q 45.5625 56 51.78125 48.09375 
Q 58.015625 40.1875 58.015625 27.296875 
Q 58.015625 14.40625 51.78125 6.484375 
Q 45.5625 -1.421875 35.59375 -1.421875 
Q 29.59375 -1.421875 25.265625 0.953125 
Q 20.953125 3.328125 18.109375 8.203125 
z
M 48.6875 27.296875 
Q 48.6875 37.203125 44.609375 42.84375 
Q 40.53125 48.484375 33.40625 48.484375 
Q 26.265625 48.484375 22.1875 42.84375 
Q 18.109375 37.203125 18.109375 27.296875 
Q 18.109375 17.390625 22.1875 11.75 
Q 26.265625 6.109375 33.40625 6.109375 
Q 40.53125 6.109375 44.609375 11.75 
Q 48.6875 17.390625 48.6875 27.296875 
z
" id="DejaVuSans-112"/>
      </defs>
      <g transform="translate(121.759112 161.441141)rotate(-300)scale(0.08 -0.08)">
       <use xlink:href="#DejaVuSans-66"/>
       <use x="68.603516" xlink:href="#DejaVuSans-117"/>
       <use x="131.982422" xlink:href="#DejaVuSans-99"/>
       <use x="186.962891" xlink:href="#DejaVuSans-104"/>
       <use x="250.341797" xlink:href="#DejaVuSans-119"/>
       <use x="332.128906" xlink:href="#DejaVuSans-97"/>
       <use x="393.408203" xlink:href="#DejaVuSans-108"/>
       <use x="421.191406" xlink:href="#DejaVuSans-100"/>
       <use x="484.667969" xlink:href="#DejaVuSans-45"/>
       <use x="520.751953" xlink:href="#DejaVuSans-72"/>
       <use x="595.947266" xlink:href="#DejaVuSans-97"/>
       <use x="657.226562" xlink:href="#DejaVuSans-114"/>
       <use x="698.339844" xlink:href="#DejaVuSans-116"/>
       <use x="737.548828" xlink:href="#DejaVuSans-119"/>
       <use x="819.335938" xlink:href="#DejaVuSans-105"/>
       <use x="847.119141" xlink:href="#DejaVuSans-103"/>
       <use x="910.595703" xlink:href="#DejaVuSans-32"/>
       <use x="942.382812" xlink:href="#DejaVuSans-99"/>
       <use x="997.363281" xlink:href="#DejaVuSans-114"/>
       <use x="1036.226562" xlink:href="#DejaVuSans-111"/>
       <use x="1097.408203" xlink:href="#DejaVuSans-115"/>
       <use x="1149.507812" xlink:href="#DejaVuSans-115"/>
       <use x="1201.607422" xlink:href="#DejaVuSans-32"/>
       <use x="1233.394531" xlink:href="#DejaVuSans-99"/>
       <use x="1288.375" xlink:href="#DejaVuSans-111"/>
       <use x="1349.556641" xlink:href="#DejaVuSans-117"/>
       <use x="1412.935547" xlink:href="#DejaVuSans-112"/>
       <use x="1476.412109" xlink:href="#DejaVuSans-108"/>
       <use x="1504.195312" xlink:href="#DejaVuSans-105"/>
       <use x="1531.978516" xlink:href="#DejaVuSans-110"/>
       <use x="1595.357422" xlink:href="#DejaVuSans-103"/>
      </g>
     </g>
    </g>
    <g id="xtick_4">
     <g id="line2d_4">
      <g>
       <use style="stroke:#000000;stroke-width:0.8;" x="134.739035" xlink:href="#m617fe49a50" y="151.401766"/>
      </g>
     </g>
     <g id="text_4">
      <!-- Chan-Lam coupling -->
      <defs>
       <path d="M 64.40625 67.28125 
L 64.40625 56.890625 
Q 59.421875 61.53125 53.78125 63.8125 
Q 48.140625 66.109375 41.796875 66.109375 
Q 29.296875 66.109375 22.65625 58.46875 
Q 16.015625 50.828125 16.015625 36.375 
Q 16.015625 21.96875 22.65625 14.328125 
Q 29.296875 6.6875 41.796875 6.6875 
Q 48.140625 6.6875 53.78125 8.984375 
Q 59.421875 11.28125 64.40625 15.921875 
L 64.40625 5.609375 
Q 59.234375 2.09375 53.4375 0.328125 
Q 47.65625 -1.421875 41.21875 -1.421875 
Q 24.65625 -1.421875 15.125 8.703125 
Q 5.609375 18.84375 5.609375 36.375 
Q 5.609375 53.953125 15.125 64.078125 
Q 24.65625 74.21875 41.21875 74.21875 
Q 47.75 74.21875 53.53125 72.484375 
Q 59.328125 70.75 64.40625 67.28125 
z
" id="DejaVuSans-67"/>
       <path d="M 9.8125 72.90625 
L 19.671875 72.90625 
L 19.671875 8.296875 
L 55.171875 8.296875 
L 55.171875 0 
L 9.8125 0 
z
" id="DejaVuSans-76"/>
      </defs>
      <g transform="translate(136.179885 161.441141)rotate(-300)scale(0.08 -0.08)">
       <use xlink:href="#DejaVuSans-67"/>
       <use x="69.824219" xlink:href="#DejaVuSans-104"/>
       <use x="133.203125" xlink:href="#DejaVuSans-97"/>
       <use x="194.482422" xlink:href="#DejaVuSans-110"/>
       <use x="257.861328" xlink:href="#DejaVuSans-45"/>
       <use x="293.945312" xlink:href="#DejaVuSans-76"/>
       <use x="349.658203" xlink:href="#DejaVuSans-97"/>
       <use x="410.9375" xlink:href="#DejaVuSans-109"/>
       <use x="508.349609" xlink:href="#DejaVuSans-32"/>
       <use x="540.136719" xlink:href="#DejaVuSans-99"/>
       <use x="595.117188" xlink:href="#DejaVuSans-111"/>
       <use x="656.298828" xlink:href="#DejaVuSans-117"/>
       <use x="719.677734" xlink:href="#DejaVuSans-112"/>
       <use x="783.154297" xlink:href="#DejaVuSans-108"/>
       <use x="810.9375" xlink:href="#DejaVuSans-105"/>
       <use x="838.720703" xlink:href="#DejaVuSans-110"/>
       <use x="902.099609" xlink:href="#DejaVuSans-103"/>
      </g>
     </g>
    </g>
    <g id="xtick_5">
     <g id="line2d_5">
      <g>
       <use style="stroke:#000000;stroke-width:0.8;" x="149.159809" xlink:href="#m617fe49a50" y="151.401766"/>
      </g>
     </g>
     <g id="text_5">
      <!-- Diels-Alder -->
      <defs>
       <path d="M 19.671875 64.796875 
L 19.671875 8.109375 
L 31.59375 8.109375 
Q 46.6875 8.109375 53.6875 14.9375 
Q 60.6875 21.78125 60.6875 36.53125 
Q 60.6875 51.171875 53.6875 57.984375 
Q 46.6875 64.796875 31.59375 64.796875 
z
M 9.8125 72.90625 
L 30.078125 72.90625 
Q 51.265625 72.90625 61.171875 64.09375 
Q 71.09375 55.28125 71.09375 36.53125 
Q 71.09375 17.671875 61.125 8.828125 
Q 51.171875 0 30.078125 0 
L 9.8125 0 
z
" id="DejaVuSans-68"/>
      </defs>
      <g transform="translate(150.600658 161.441141)rotate(-300)scale(0.08 -0.08)">
       <use xlink:href="#DejaVuSans-68"/>
       <use x="77.001953" xlink:href="#DejaVuSans-105"/>
       <use x="104.785156" xlink:href="#DejaVuSans-101"/>
       <use x="166.308594" xlink:href="#DejaVuSans-108"/>
       <use x="194.091797" xlink:href="#DejaVuSans-115"/>
       <use x="246.191406" xlink:href="#DejaVuSans-45"/>
       <use x="280.025391" xlink:href="#DejaVuSans-65"/>
       <use x="348.433594" xlink:href="#DejaVuSans-108"/>
       <use x="376.216797" xlink:href="#DejaVuSans-100"/>
       <use x="439.693359" xlink:href="#DejaVuSans-101"/>
       <use x="501.216797" xlink:href="#DejaVuSans-114"/>
      </g>
     </g>
    </g>
    <g id="xtick_6">
     <g id="line2d_6">
      <g>
       <use style="stroke:#000000;stroke-width:0.8;" x="163.580582" xlink:href="#m617fe49a50" y="151.401766"/>
      </g>
     </g>
     <g id="text_6">
      <!-- Fischer indole synthesis -->
      <defs>
       <path d="M 9.8125 72.90625 
L 51.703125 72.90625 
L 51.703125 64.59375 
L 19.671875 64.59375 
L 19.671875 43.109375 
L 48.578125 43.109375 
L 48.578125 34.8125 
L 19.671875 34.8125 
L 19.671875 0 
L 9.8125 0 
z
" id="DejaVuSans-70"/>
      </defs>
      <g transform="translate(165.021432 161.441141)rotate(-300)scale(0.08 -0.08)">
       <use xlink:href="#DejaVuSans-70"/>
       <use x="50.269531" xlink:href="#DejaVuSans-105"/>
       <use x="78.052734" xlink:href="#DejaVuSans-115"/>
       <use x="130.152344" xlink:href="#DejaVuSans-99"/>
       <use x="185.132812" xlink:href="#DejaVuSans-104"/>
       <use x="248.511719" xlink:href="#DejaVuSans-101"/>
       <use x="310.035156" xlink:href="#DejaVuSans-114"/>
       <use x="351.148438" xlink:href="#DejaVuSans-32"/>
       <use x="382.935547" xlink:href="#DejaVuSans-105"/>
       <use x="410.71875" xlink:href="#DejaVuSans-110"/>
       <use x="474.097656" xlink:href="#DejaVuSans-100"/>
       <use x="537.574219" xlink:href="#DejaVuSans-111"/>
       <use x="598.755859" xlink:href="#DejaVuSans-108"/>
       <use x="626.539062" xlink:href="#DejaVuSans-101"/>
       <use x="688.0625" xlink:href="#DejaVuSans-32"/>
       <use x="719.849609" xlink:href="#DejaVuSans-115"/>
       <use x="771.949219" xlink:href="#DejaVuSans-121"/>
       <use x="831.128906" xlink:href="#DejaVuSans-110"/>
       <use x="894.507812" xlink:href="#DejaVuSans-116"/>
       <use x="933.716797" xlink:href="#DejaVuSans-104"/>
       <use x="997.095703" xlink:href="#DejaVuSans-101"/>
       <use x="1058.619141" xlink:href="#DejaVuSans-115"/>
       <use x="1110.71875" xlink:href="#DejaVuSans-105"/>
       <use x="1138.501953" xlink:href="#DejaVuSans-115"/>
      </g>
     </g>
    </g>
    <g id="xtick_7">
     <g id="line2d_7">
      <g>
       <use style="stroke:#000000;stroke-width:0.8;" x="178.001356" xlink:href="#m617fe49a50" y="151.401766"/>
      </g>
     </g>
     <g id="text_7">
      <!-- Friedel-Crafts acylation -->
      <defs>
       <path d="M 37.109375 75.984375 
L 37.109375 68.5 
L 28.515625 68.5 
Q 23.6875 68.5 21.796875 66.546875 
Q 19.921875 64.59375 19.921875 59.515625 
L 19.921875 54.6875 
L 34.71875 54.6875 
L 34.71875 47.703125 
L 19.921875 47.703125 
L 19.921875 0 
L 10.890625 0 
L 10.890625 47.703125 
L 2.296875 47.703125 
L 2.296875 54.6875 
L 10.890625 54.6875 
L 10.890625 58.5 
Q 10.890625 67.625 15.140625 71.796875 
Q 19.390625 75.984375 28.609375 75.984375 
z
" id="DejaVuSans-102"/>
      </defs>
      <g transform="translate(179.442205 161.441141)rotate(-300)scale(0.08 -0.08)">
       <use xlink:href="#DejaVuSans-70"/>
       <use x="50.269531" xlink:href="#DejaVuSans-114"/>
       <use x="91.382812" xlink:href="#DejaVuSans-105"/>
       <use x="119.166016" xlink:href="#DejaVuSans-101"/>
       <use x="180.689453" xlink:href="#DejaVuSans-100"/>
       <use x="244.166016" xlink:href="#DejaVuSans-101"/>
       <use x="305.689453" xlink:href="#DejaVuSans-108"/>
       <use x="333.472656" xlink:href="#DejaVuSans-45"/>
       <use x="369.556641" xlink:href="#DejaVuSans-67"/>
       <use x="439.380859" xlink:href="#DejaVuSans-114"/>
       <use x="480.494141" xlink:href="#DejaVuSans-97"/>
       <use x="541.773438" xlink:href="#DejaVuSans-102"/>
       <use x="575.228516" xlink:href="#DejaVuSans-116"/>
       <use x="614.4375" xlink:href="#DejaVuSans-115"/>
       <use x="666.537109" xlink:href="#DejaVuSans-32"/>
       <use x="698.324219" xlink:href="#DejaVuSans-97"/>
       <use x="759.603516" xlink:href="#DejaVuSans-99"/>
       <use x="814.583984" xlink:href="#DejaVuSans-121"/>
       <use x="873.763672" xlink:href="#DejaVuSans-108"/>
       <use x="901.546875" xlink:href="#DejaVuSans-97"/>
       <use x="962.826172" xlink:href="#DejaVuSans-116"/>
       <use x="1002.035156" xlink:href="#DejaVuSans-105"/>
       <use x="1029.818359" xlink:href="#DejaVuSans-111"/>
       <use x="1091" xlink:href="#DejaVuSans-110"/>
      </g>
     </g>
    </g>
    <g id="xtick_8">
     <g id="line2d_8">
      <g>
       <use style="stroke:#000000;stroke-width:0.8;" x="192.422129" xlink:href="#m617fe49a50" y="151.401766"/>
      </g>
     </g>
     <g id="text_8">
      <!-- Friedel-Crafts alkylation -->
      <defs>
       <path d="M 9.078125 75.984375 
L 18.109375 75.984375 
L 18.109375 31.109375 
L 44.921875 54.6875 
L 56.390625 54.6875 
L 27.390625 29.109375 
L 57.625 0 
L 45.90625 0 
L 18.109375 26.703125 
L 18.109375 0 
L 9.078125 0 
z
" id="DejaVuSans-107"/>
      </defs>
      <g transform="translate(193.862979 161.441141)rotate(-300)scale(0.08 -0.08)">
       <use xlink:href="#DejaVuSans-70"/>
       <use x="50.269531" xlink:href="#DejaVuSans-114"/>
       <use x="91.382812" xlink:href="#DejaVuSans-105"/>
       <use x="119.166016" xlink:href="#DejaVuSans-101"/>
       <use x="180.689453" xlink:href="#DejaVuSans-100"/>
       <use x="244.166016" xlink:href="#DejaVuSans-101"/>
       <use x="305.689453" xlink:href="#DejaVuSans-108"/>
       <use x="333.472656" xlink:href="#DejaVuSans-45"/>
       <use x="369.556641" xlink:href="#DejaVuSans-67"/>
       <use x="439.380859" xlink:href="#DejaVuSans-114"/>
       <use x="480.494141" xlink:href="#DejaVuSans-97"/>
       <use x="541.773438" xlink:href="#DejaVuSans-102"/>
       <use x="575.228516" xlink:href="#DejaVuSans-116"/>
       <use x="614.4375" xlink:href="#DejaVuSans-115"/>
       <use x="666.537109" xlink:href="#DejaVuSans-32"/>
       <use x="698.324219" xlink:href="#DejaVuSans-97"/>
       <use x="759.603516" xlink:href="#DejaVuSans-108"/>
       <use x="787.386719" xlink:href="#DejaVuSans-107"/>
       <use x="841.671875" xlink:href="#DejaVuSans-121"/>
       <use x="900.851562" xlink:href="#DejaVuSans-108"/>
       <use x="928.634766" xlink:href="#DejaVuSans-97"/>
       <use x="989.914062" xlink:href="#DejaVuSans-116"/>
       <use x="1029.123047" xlink:href="#DejaVuSans-105"/>
       <use x="1056.90625" xlink:href="#DejaVuSans-111"/>
       <use x="1118.087891" xlink:href="#DejaVuSans-110"/>
      </g>
     </g>
    </g>
    <g id="xtick_9">
     <g id="line2d_9">
      <g>
       <use style="stroke:#000000;stroke-width:0.8;" x="206.842902" xlink:href="#m617fe49a50" y="151.401766"/>
      </g>
     </g>
     <g id="text_9">
      <!-- Grignard reaction -->
      <defs>
       <path d="M 59.515625 10.40625 
L 59.515625 29.984375 
L 43.40625 29.984375 
L 43.40625 38.09375 
L 69.28125 38.09375 
L 69.28125 6.78125 
Q 63.578125 2.734375 56.6875 0.65625 
Q 49.8125 -1.421875 42 -1.421875 
Q 24.90625 -1.421875 15.25 8.5625 
Q 5.609375 18.5625 5.609375 36.375 
Q 5.609375 54.25 15.25 64.234375 
Q 24.90625 74.21875 42 74.21875 
Q 49.125 74.21875 55.546875 72.453125 
Q 61.96875 70.703125 67.390625 67.28125 
L 67.390625 56.78125 
Q 61.921875 61.421875 55.765625 63.765625 
Q 49.609375 66.109375 42.828125 66.109375 
Q 29.4375 66.109375 22.71875 58.640625 
Q 16.015625 51.171875 16.015625 36.375 
Q 16.015625 21.625 22.71875 14.15625 
Q 29.4375 6.6875 42.828125 6.6875 
Q 48.046875 6.6875 52.140625 7.59375 
Q 56.25 8.5 59.515625 10.40625 
z
" id="DejaVuSans-71"/>
      </defs>
      <g transform="translate(208.283752 161.441141)rotate(-300)scale(0.08 -0.08)">
       <use xlink:href="#DejaVuSans-71"/>
       <use x="77.490234" xlink:href="#DejaVuSans-114"/>
       <use x="118.603516" xlink:href="#DejaVuSans-105"/>
       <use x="146.386719" xlink:href="#DejaVuSans-103"/>
       <use x="209.863281" xlink:href="#DejaVuSans-110"/>
       <use x="273.242188" xlink:href="#DejaVuSans-97"/>
       <use x="334.521484" xlink:href="#DejaVuSans-114"/>
       <use x="373.884766" xlink:href="#DejaVuSans-100"/>
       <use x="437.361328" xlink:href="#DejaVuSans-32"/>
       <use x="469.148438" xlink:href="#DejaVuSans-114"/>
       <use x="508.011719" xlink:href="#DejaVuSans-101"/>
       <use x="569.535156" xlink:href="#DejaVuSans-97"/>
       <use x="630.814453" xlink:href="#DejaVuSans-99"/>
       <use x="685.794922" xlink:href="#DejaVuSans-116"/>
       <use x="725.003906" xlink:href="#DejaVuSans-105"/>
       <use x="752.787109" xlink:href="#DejaVuSans-111"/>
       <use x="813.96875" xlink:href="#DejaVuSans-110"/>
      </g>
     </g>
    </g>
    <g id="xtick_10">
     <g id="line2d_10">
      <g>
       <use style="stroke:#000000;stroke-width:0.8;" x="221.263676" xlink:href="#m617fe49a50" y="151.401766"/>
      </g>
     </g>
     <g id="text_10">
      <!-- Hiyama coupling -->
      <g transform="translate(222.704526 161.441141)rotate(-300)scale(0.08 -0.08)">
       <use xlink:href="#DejaVuSans-72"/>
       <use x="75.195312" xlink:href="#DejaVuSans-105"/>
       <use x="102.978516" xlink:href="#DejaVuSans-121"/>
       <use x="162.158203" xlink:href="#DejaVuSans-97"/>
       <use x="223.4375" xlink:href="#DejaVuSans-109"/>
       <use x="320.849609" xlink:href="#DejaVuSans-97"/>
       <use x="382.128906" xlink:href="#DejaVuSans-32"/>
       <use x="413.916016" xlink:href="#DejaVuSans-99"/>
       <use x="468.896484" xlink:href="#DejaVuSans-111"/>
       <use x="530.078125" xlink:href="#DejaVuSans-117"/>
       <use x="593.457031" xlink:href="#DejaVuSans-112"/>
       <use x="656.933594" xlink:href="#DejaVuSans-108"/>
       <use x="684.716797" xlink:href="#DejaVuSans-105"/>
       <use x="712.5" xlink:href="#DejaVuSans-110"/>
       <use x="775.878906" xlink:href="#DejaVuSans-103"/>
      </g>
     </g>
    </g>
    <g id="xtick_11">
     <g id="line2d_11">
      <g>
       <use style="stroke:#000000;stroke-width:0.8;" x="235.684449" xlink:href="#m617fe49a50" y="151.401766"/>
      </g>
     </g>
     <g id="text_11">
      <!-- Huisgen cycloaddition -->
      <g transform="translate(237.125299 161.441141)rotate(-300)scale(0.08 -0.08)">
       <use xlink:href="#DejaVuSans-72"/>
       <use x="75.195312" xlink:href="#DejaVuSans-117"/>
       <use x="138.574219" xlink:href="#DejaVuSans-105"/>
       <use x="166.357422" xlink:href="#DejaVuSans-115"/>
       <use x="218.457031" xlink:href="#DejaVuSans-103"/>
       <use x="281.933594" xlink:href="#DejaVuSans-101"/>
       <use x="343.457031" xlink:href="#DejaVuSans-110"/>
       <use x="406.835938" xlink:href="#DejaVuSans-32"/>
       <use x="438.623047" xlink:href="#DejaVuSans-99"/>
       <use x="493.603516" xlink:href="#DejaVuSans-121"/>
       <use x="552.783203" xlink:href="#DejaVuSans-99"/>
       <use x="607.763672" xlink:href="#DejaVuSans-108"/>
       <use x="635.546875" xlink:href="#DejaVuSans-111"/>
       <use x="696.728516" xlink:href="#DejaVuSans-97"/>
       <use x="758.007812" xlink:href="#DejaVuSans-100"/>
       <use x="821.484375" xlink:href="#DejaVuSans-100"/>
       <use x="884.960938" xlink:href="#DejaVuSans-105"/>
       <use x="912.744141" xlink:href="#DejaVuSans-116"/>
       <use x="951.953125" xlink:href="#DejaVuSans-105"/>
       <use x="979.736328" xlink:href="#DejaVuSans-111"/>
       <use x="1040.917969" xlink:href="#DejaVuSans-110"/>
      </g>
     </g>
    </g>
    <g id="xtick_12">
     <g id="line2d_12">
      <g>
       <use style="stroke:#000000;stroke-width:0.8;" x="250.105223" xlink:href="#m617fe49a50" y="151.401766"/>
      </g>
     </g>
     <g id="text_12">
      <!-- Hydrogenation -->
      <g transform="translate(251.546072 161.441141)rotate(-300)scale(0.08 -0.08)">
       <use xlink:href="#DejaVuSans-72"/>
       <use x="75.195312" xlink:href="#DejaVuSans-121"/>
       <use x="134.375" xlink:href="#DejaVuSans-100"/>
       <use x="197.851562" xlink:href="#DejaVuSans-114"/>
       <use x="236.714844" xlink:href="#DejaVuSans-111"/>
       <use x="297.896484" xlink:href="#DejaVuSans-103"/>
       <use x="361.373047" xlink:href="#DejaVuSans-101"/>
       <use x="422.896484" xlink:href="#DejaVuSans-110"/>
       <use x="486.275391" xlink:href="#DejaVuSans-97"/>
       <use x="547.554688" xlink:href="#DejaVuSans-116"/>
       <use x="586.763672" xlink:href="#DejaVuSans-105"/>
       <use x="614.546875" xlink:href="#DejaVuSans-111"/>
       <use x="675.728516" xlink:href="#DejaVuSans-110"/>
      </g>
     </g>
    </g>
    <g id="xtick_13">
     <g id="line2d_13">
      <g>
       <use style="stroke:#000000;stroke-width:0.8;" x="264.525996" xlink:href="#m617fe49a50" y="151.401766"/>
      </g>
     </g>
     <g id="text_13">
      <!-- Kabachnik-Fields reaction -->
      <defs>
       <path d="M 9.8125 72.90625 
L 19.671875 72.90625 
L 19.671875 42.09375 
L 52.390625 72.90625 
L 65.09375 72.90625 
L 28.90625 38.921875 
L 67.671875 0 
L 54.6875 0 
L 19.671875 35.109375 
L 19.671875 0 
L 9.8125 0 
z
" id="DejaVuSans-75"/>
      </defs>
      <g transform="translate(265.966846 161.441141)rotate(-300)scale(0.08 -0.08)">
       <use xlink:href="#DejaVuSans-75"/>
       <use x="63.826172" xlink:href="#DejaVuSans-97"/>
       <use x="125.105469" xlink:href="#DejaVuSans-98"/>
       <use x="188.582031" xlink:href="#DejaVuSans-97"/>
       <use x="249.861328" xlink:href="#DejaVuSans-99"/>
       <use x="304.841797" xlink:href="#DejaVuSans-104"/>
       <use x="368.220703" xlink:href="#DejaVuSans-110"/>
       <use x="431.599609" xlink:href="#DejaVuSans-105"/>
       <use x="459.382812" xlink:href="#DejaVuSans-107"/>
       <use x="517.292969" xlink:href="#DejaVuSans-45"/>
       <use x="553.376953" xlink:href="#DejaVuSans-70"/>
       <use x="603.646484" xlink:href="#DejaVuSans-105"/>
       <use x="631.429688" xlink:href="#DejaVuSans-101"/>
       <use x="692.953125" xlink:href="#DejaVuSans-108"/>
       <use x="720.736328" xlink:href="#DejaVuSans-100"/>
       <use x="784.212891" xlink:href="#DejaVuSans-115"/>
       <use x="836.3125" xlink:href="#DejaVuSans-32"/>
       <use x="868.099609" xlink:href="#DejaVuSans-114"/>
       <use x="906.962891" xlink:href="#DejaVuSans-101"/>
       <use x="968.486328" xlink:href="#DejaVuSans-97"/>
       <use x="1029.765625" xlink:href="#DejaVuSans-99"/>
       <use x="1084.746094" xlink:href="#DejaVuSans-116"/>
       <use x="1123.955078" xlink:href="#DejaVuSans-105"/>
       <use x="1151.738281" xlink:href="#DejaVuSans-111"/>
       <use x="1212.919922" xlink:href="#DejaVuSans-110"/>
      </g>
     </g>
    </g>
    <g id="xtick_14">
     <g id="line2d_14">
      <g>
       <use style="stroke:#000000;stroke-width:0.8;" x="278.946769" xlink:href="#m617fe49a50" y="151.401766"/>
      </g>
     </g>
     <g id="text_14">
      <!-- Kumada coupling -->
      <g transform="translate(280.387619 161.441141)rotate(-300)scale(0.08 -0.08)">
       <use xlink:href="#DejaVuSans-75"/>
       <use x="60.576172" xlink:href="#DejaVuSans-117"/>
       <use x="123.955078" xlink:href="#DejaVuSans-109"/>
       <use x="221.367188" xlink:href="#DejaVuSans-97"/>
       <use x="282.646484" xlink:href="#DejaVuSans-100"/>
       <use x="346.123047" xlink:href="#DejaVuSans-97"/>
       <use x="407.402344" xlink:href="#DejaVuSans-32"/>
       <use x="439.189453" xlink:href="#DejaVuSans-99"/>
       <use x="494.169922" xlink:href="#DejaVuSans-111"/>
       <use x="555.351562" xlink:href="#DejaVuSans-117"/>
       <use x="618.730469" xlink:href="#DejaVuSans-112"/>
       <use x="682.207031" xlink:href="#DejaVuSans-108"/>
       <use x="709.990234" xlink:href="#DejaVuSans-105"/>
       <use x="737.773438" xlink:href="#DejaVuSans-110"/>
       <use x="801.152344" xlink:href="#DejaVuSans-103"/>
      </g>
     </g>
    </g>
    <g id="xtick_15">
     <g id="line2d_15">
      <g>
       <use style="stroke:#000000;stroke-width:0.8;" x="293.367543" xlink:href="#m617fe49a50" y="151.401766"/>
      </g>
     </g>
     <g id="text_15">
      <!-- Mannich reaction -->
      <defs>
       <path d="M 9.8125 72.90625 
L 24.515625 72.90625 
L 43.109375 23.296875 
L 61.8125 72.90625 
L 76.515625 72.90625 
L 76.515625 0 
L 66.890625 0 
L 66.890625 64.015625 
L 48.09375 14.015625 
L 38.1875 14.015625 
L 19.390625 64.015625 
L 19.390625 0 
L 9.8125 0 
z
" id="DejaVuSans-77"/>
      </defs>
      <g transform="translate(294.808393 161.441141)rotate(-300)scale(0.08 -0.08)">
       <use xlink:href="#DejaVuSans-77"/>
       <use x="86.279297" xlink:href="#DejaVuSans-97"/>
       <use x="147.558594" xlink:href="#DejaVuSans-110"/>
       <use x="210.9375" xlink:href="#DejaVuSans-110"/>
       <use x="274.316406" xlink:href="#DejaVuSans-105"/>
       <use x="302.099609" xlink:href="#DejaVuSans-99"/>
       <use x="357.080078" xlink:href="#DejaVuSans-104"/>
       <use x="420.458984" xlink:href="#DejaVuSans-32"/>
       <use x="452.246094" xlink:href="#DejaVuSans-114"/>
       <use x="491.109375" xlink:href="#DejaVuSans-101"/>
       <use x="552.632812" xlink:href="#DejaVuSans-97"/>
       <use x="613.912109" xlink:href="#DejaVuSans-99"/>
       <use x="668.892578" xlink:href="#DejaVuSans-116"/>
       <use x="708.101562" xlink:href="#DejaVuSans-105"/>
       <use x="735.884766" xlink:href="#DejaVuSans-111"/>
       <use x="797.066406" xlink:href="#DejaVuSans-110"/>
      </g>
     </g>
    </g>
    <g id="xtick_16">
     <g id="line2d_16">
      <g>
       <use style="stroke:#000000;stroke-width:0.8;" x="307.788316" xlink:href="#m617fe49a50" y="151.401766"/>
      </g>
     </g>
     <g id="text_16">
      <!-- Negishi coupling -->
      <defs>
       <path d="M 9.8125 72.90625 
L 23.09375 72.90625 
L 55.421875 11.921875 
L 55.421875 72.90625 
L 64.984375 72.90625 
L 64.984375 0 
L 51.703125 0 
L 19.390625 60.984375 
L 19.390625 0 
L 9.8125 0 
z
" id="DejaVuSans-78"/>
      </defs>
      <g transform="translate(309.229166 161.441141)rotate(-300)scale(0.08 -0.08)">
       <use xlink:href="#DejaVuSans-78"/>
       <use x="74.804688" xlink:href="#DejaVuSans-101"/>
       <use x="136.328125" xlink:href="#DejaVuSans-103"/>
       <use x="199.804688" xlink:href="#DejaVuSans-105"/>
       <use x="227.587891" xlink:href="#DejaVuSans-115"/>
       <use x="279.6875" xlink:href="#DejaVuSans-104"/>
       <use x="343.066406" xlink:href="#DejaVuSans-105"/>
       <use x="370.849609" xlink:href="#DejaVuSans-32"/>
       <use x="402.636719" xlink:href="#DejaVuSans-99"/>
       <use x="457.617188" xlink:href="#DejaVuSans-111"/>
       <use x="518.798828" xlink:href="#DejaVuSans-117"/>
       <use x="582.177734" xlink:href="#DejaVuSans-112"/>
       <use x="645.654297" xlink:href="#DejaVuSans-108"/>
       <use x="673.4375" xlink:href="#DejaVuSans-105"/>
       <use x="701.220703" xlink:href="#DejaVuSans-110"/>
       <use x="764.599609" xlink:href="#DejaVuSans-103"/>
      </g>
     </g>
    </g>
    <g id="xtick_17">
     <g id="line2d_17">
      <g>
       <use style="stroke:#000000;stroke-width:0.8;" x="322.20909" xlink:href="#m617fe49a50" y="151.401766"/>
      </g>
     </g>
     <g id="text_17">
      <!-- Pauson-Khand reaction -->
      <defs>
       <path d="M 19.671875 64.796875 
L 19.671875 37.40625 
L 32.078125 37.40625 
Q 38.96875 37.40625 42.71875 40.96875 
Q 46.484375 44.53125 46.484375 51.125 
Q 46.484375 57.671875 42.71875 61.234375 
Q 38.96875 64.796875 32.078125 64.796875 
z
M 9.8125 72.90625 
L 32.078125 72.90625 
Q 44.34375 72.90625 50.609375 67.359375 
Q 56.890625 61.8125 56.890625 51.125 
Q 56.890625 40.328125 50.609375 34.8125 
Q 44.34375 29.296875 32.078125 29.296875 
L 19.671875 29.296875 
L 19.671875 0 
L 9.8125 0 
z
" id="DejaVuSans-80"/>
      </defs>
      <g transform="translate(323.64994 161.441141)rotate(-300)scale(0.08 -0.08)">
       <use xlink:href="#DejaVuSans-80"/>
       <use x="55.802734" xlink:href="#DejaVuSans-97"/>
       <use x="117.082031" xlink:href="#DejaVuSans-117"/>
       <use x="180.460938" xlink:href="#DejaVuSans-115"/>
       <use x="232.560547" xlink:href="#DejaVuSans-111"/>
       <use x="293.742188" xlink:href="#DejaVuSans-110"/>
       <use x="357.121094" xlink:href="#DejaVuSans-45"/>
       <use x="393.205078" xlink:href="#DejaVuSans-75"/>
       <use x="458.78125" xlink:href="#DejaVuSans-104"/>
       <use x="522.160156" xlink:href="#DejaVuSans-97"/>
       <use x="583.439453" xlink:href="#DejaVuSans-110"/>
       <use x="646.818359" xlink:href="#DejaVuSans-100"/>
       <use x="710.294922" xlink:href="#DejaVuSans-32"/>
       <use x="742.082031" xlink:href="#DejaVuSans-114"/>
       <use x="780.945312" xlink:href="#DejaVuSans-101"/>
       <use x="842.46875" xlink:href="#DejaVuSans-97"/>
       <use x="903.748047" xlink:href="#DejaVuSans-99"/>
       <use x="958.728516" xlink:href="#DejaVuSans-116"/>
       <use x="997.9375" xlink:href="#DejaVuSans-105"/>
       <use x="1025.720703" xlink:href="#DejaVuSans-111"/>
       <use x="1086.902344" xlink:href="#DejaVuSans-110"/>
      </g>
     </g>
    </g>
    <g id="xtick_18">
     <g id="line2d_18">
      <g>
       <use style="stroke:#000000;stroke-width:0.8;" x="336.629863" xlink:href="#m617fe49a50" y="151.401766"/>
      </g>
     </g>
     <g id="text_18">
      <!-- Reductive amination -->
      <defs>
       <path d="M 44.390625 34.1875 
Q 47.5625 33.109375 50.5625 29.59375 
Q 53.5625 26.078125 56.59375 19.921875 
L 66.609375 0 
L 56 0 
L 46.6875 18.703125 
Q 43.0625 26.03125 39.671875 28.421875 
Q 36.28125 30.8125 30.421875 30.8125 
L 19.671875 30.8125 
L 19.671875 0 
L 9.8125 0 
L 9.8125 72.90625 
L 32.078125 72.90625 
Q 44.578125 72.90625 50.734375 67.671875 
Q 56.890625 62.453125 56.890625 51.90625 
Q 56.890625 45.015625 53.6875 40.46875 
Q 50.484375 35.9375 44.390625 34.1875 
z
M 19.671875 64.796875 
L 19.671875 38.921875 
L 32.078125 38.921875 
Q 39.203125 38.921875 42.84375 42.21875 
Q 46.484375 45.515625 46.484375 51.90625 
Q 46.484375 58.296875 42.84375 61.546875 
Q 39.203125 64.796875 32.078125 64.796875 
z
" id="DejaVuSans-82"/>
       <path d="M 2.984375 54.6875 
L 12.5 54.6875 
L 29.59375 8.796875 
L 46.6875 54.6875 
L 56.203125 54.6875 
L 35.6875 0 
L 23.484375 0 
z
" id="DejaVuSans-118"/>
      </defs>
      <g transform="translate(338.070713 161.441141)rotate(-300)scale(0.08 -0.08)">
       <use xlink:href="#DejaVuSans-82"/>
       <use x="64.982422" xlink:href="#DejaVuSans-101"/>
       <use x="126.505859" xlink:href="#DejaVuSans-100"/>
       <use x="189.982422" xlink:href="#DejaVuSans-117"/>
       <use x="253.361328" xlink:href="#DejaVuSans-99"/>
       <use x="308.341797" xlink:href="#DejaVuSans-116"/>
       <use x="347.550781" xlink:href="#DejaVuSans-105"/>
       <use x="375.333984" xlink:href="#DejaVuSans-118"/>
       <use x="434.513672" xlink:href="#DejaVuSans-101"/>
       <use x="496.037109" xlink:href="#DejaVuSans-32"/>
       <use x="527.824219" xlink:href="#DejaVuSans-97"/>
       <use x="589.103516" xlink:href="#DejaVuSans-109"/>
       <use x="686.515625" xlink:href="#DejaVuSans-105"/>
       <use x="714.298828" xlink:href="#DejaVuSans-110"/>
       <use x="777.677734" xlink:href="#DejaVuSans-97"/>
       <use x="838.957031" xlink:href="#DejaVuSans-116"/>
       <use x="878.166016" xlink:href="#DejaVuSans-105"/>
       <use x="905.949219" xlink:href="#DejaVuSans-111"/>
       <use x="967.130859" xlink:href="#DejaVuSans-110"/>
      </g>
     </g>
    </g>
    <g id="xtick_19">
     <g id="line2d_19">
      <g>
       <use style="stroke:#000000;stroke-width:0.8;" x="351.050637" xlink:href="#m617fe49a50" y="151.401766"/>
      </g>
     </g>
     <g id="text_19">
      <!-- Suzuki coupling -->
      <defs>
       <path d="M 53.515625 70.515625 
L 53.515625 60.890625 
Q 47.90625 63.578125 42.921875 64.890625 
Q 37.9375 66.21875 33.296875 66.21875 
Q 25.25 66.21875 20.875 63.09375 
Q 16.5 59.96875 16.5 54.203125 
Q 16.5 49.359375 19.40625 46.890625 
Q 22.3125 44.4375 30.421875 42.921875 
L 36.375 41.703125 
Q 47.40625 39.59375 52.65625 34.296875 
Q 57.90625 29 57.90625 20.125 
Q 57.90625 9.515625 50.796875 4.046875 
Q 43.703125 -1.421875 29.984375 -1.421875 
Q 24.8125 -1.421875 18.96875 -0.25 
Q 13.140625 0.921875 6.890625 3.21875 
L 6.890625 13.375 
Q 12.890625 10.015625 18.65625 8.296875 
Q 24.421875 6.59375 29.984375 6.59375 
Q 38.421875 6.59375 43.015625 9.90625 
Q 47.609375 13.234375 47.609375 19.390625 
Q 47.609375 24.75 44.3125 27.78125 
Q 41.015625 30.8125 33.5 32.328125 
L 27.484375 33.5 
Q 16.453125 35.6875 11.515625 40.375 
Q 6.59375 45.0625 6.59375 53.421875 
Q 6.59375 63.09375 13.40625 68.65625 
Q 20.21875 74.21875 32.171875 74.21875 
Q 37.3125 74.21875 42.625 73.28125 
Q 47.953125 72.359375 53.515625 70.515625 
z
" id="DejaVuSans-83"/>
       <path d="M 5.515625 54.6875 
L 48.1875 54.6875 
L 48.1875 46.484375 
L 14.40625 7.171875 
L 48.1875 7.171875 
L 48.1875 0 
L 4.296875 0 
L 4.296875 8.203125 
L 38.09375 47.515625 
L 5.515625 47.515625 
z
" id="DejaVuSans-122"/>
      </defs>
      <g transform="translate(352.491486 161.441141)rotate(-300)scale(0.08 -0.08)">
       <use xlink:href="#DejaVuSans-83"/>
       <use x="63.476562" xlink:href="#DejaVuSans-117"/>
       <use x="126.855469" xlink:href="#DejaVuSans-122"/>
       <use x="179.345703" xlink:href="#DejaVuSans-117"/>
       <use x="242.724609" xlink:href="#DejaVuSans-107"/>
       <use x="300.634766" xlink:href="#DejaVuSans-105"/>
       <use x="328.417969" xlink:href="#DejaVuSans-32"/>
       <use x="360.205078" xlink:href="#DejaVuSans-99"/>
       <use x="415.185547" xlink:href="#DejaVuSans-111"/>
       <use x="476.367188" xlink:href="#DejaVuSans-117"/>
       <use x="539.746094" xlink:href="#DejaVuSans-112"/>
       <use x="603.222656" xlink:href="#DejaVuSans-108"/>
       <use x="631.005859" xlink:href="#DejaVuSans-105"/>
       <use x="658.789062" xlink:href="#DejaVuSans-110"/>
       <use x="722.167969" xlink:href="#DejaVuSans-103"/>
      </g>
     </g>
    </g>
    <g id="xtick_20">
     <g id="line2d_20">
      <g>
       <use style="stroke:#000000;stroke-width:0.8;" x="365.47141" xlink:href="#m617fe49a50" y="151.401766"/>
      </g>
     </g>
     <g id="text_20">
      <!-- Wittig reaction -->
      <defs>
       <path d="M 3.328125 72.90625 
L 13.28125 72.90625 
L 28.609375 11.28125 
L 43.890625 72.90625 
L 54.984375 72.90625 
L 70.3125 11.28125 
L 85.59375 72.90625 
L 95.609375 72.90625 
L 77.296875 0 
L 64.890625 0 
L 49.515625 63.28125 
L 33.984375 0 
L 21.578125 0 
z
" id="DejaVuSans-87"/>
      </defs>
      <g transform="translate(366.91226 161.441141)rotate(-300)scale(0.08 -0.08)">
       <use xlink:href="#DejaVuSans-87"/>
       <use x="96.626953" xlink:href="#DejaVuSans-105"/>
       <use x="124.410156" xlink:href="#DejaVuSans-116"/>
       <use x="163.619141" xlink:href="#DejaVuSans-116"/>
       <use x="202.828125" xlink:href="#DejaVuSans-105"/>
       <use x="230.611328" xlink:href="#DejaVuSans-103"/>
       <use x="294.087891" xlink:href="#DejaVuSans-32"/>
       <use x="325.875" xlink:href="#DejaVuSans-114"/>
       <use x="364.738281" xlink:href="#DejaVuSans-101"/>
       <use x="426.261719" xlink:href="#DejaVuSans-97"/>
       <use x="487.541016" xlink:href="#DejaVuSans-99"/>
       <use x="542.521484" xlink:href="#DejaVuSans-116"/>
       <use x="581.730469" xlink:href="#DejaVuSans-105"/>
       <use x="609.513672" xlink:href="#DejaVuSans-111"/>
       <use x="670.695312" xlink:href="#DejaVuSans-110"/>
      </g>
     </g>
    </g>
   </g>
   <g id="matplotlib.axis_2">
    <g id="ytick_1">
     <g id="line2d_21">
      <defs>
       <path d="M 0 0 
L -3.5 0 
" id="md445e34aa4" style="stroke:#000000;stroke-width:0.8;"/>
      </defs>
      <g>
       <use style="stroke:#000000;stroke-width:0.8;" x="73.018125" xlink:href="#md445e34aa4" y="151.401766"/>
      </g>
     </g>
     <g id="text_21">
      <!-- 0 -->
      <defs>
       <path d="M 31.78125 66.40625 
Q 24.171875 66.40625 20.328125 58.90625 
Q 16.5 51.421875 16.5 36.375 
Q 16.5 21.390625 20.328125 13.890625 
Q 24.171875 6.390625 31.78125 6.390625 
Q 39.453125 6.390625 43.28125 13.890625 
Q 47.125 21.390625 47.125 36.375 
Q 47.125 51.421875 43.28125 58.90625 
Q 39.453125 66.40625 31.78125 66.40625 
z
M 31.78125 74.21875 
Q 44.046875 74.21875 50.515625 64.515625 
Q 56.984375 54.828125 56.984375 36.375 
Q 56.984375 17.96875 50.515625 8.265625 
Q 44.046875 -1.421875 31.78125 -1.421875 
Q 19.53125 -1.421875 13.0625 8.265625 
Q 6.59375 17.96875 6.59375 36.375 
Q 6.59375 54.828125 13.0625 64.515625 
Q 19.53125 74.21875 31.78125 74.21875 
z
" id="DejaVuSans-48"/>
      </defs>
      <g style="fill:#0000ff;" transform="translate(60.928125 154.441141)scale(0.08 -0.08)">
       <use xlink:href="#DejaVuSans-48"/>
      </g>
     </g>
    </g>
    <g id="ytick_2">
     <g id="line2d_22">
      <g>
       <use style="stroke:#000000;stroke-width:0.8;" x="73.018125" xlink:href="#md445e34aa4" y="133.644076"/>
      </g>
     </g>
     <g id="text_22">
      <!-- 25000 -->
      <defs>
       <path d="M 19.1875 8.296875 
L 53.609375 8.296875 
L 53.609375 0 
L 7.328125 0 
L 7.328125 8.296875 
Q 12.9375 14.109375 22.625 23.890625 
Q 32.328125 33.6875 34.8125 36.53125 
Q 39.546875 41.84375 41.421875 45.53125 
Q 43.3125 49.21875 43.3125 52.78125 
Q 43.3125 58.59375 39.234375 62.25 
Q 35.15625 65.921875 28.609375 65.921875 
Q 23.96875 65.921875 18.8125 64.3125 
Q 13.671875 62.703125 7.8125 59.421875 
L 7.8125 69.390625 
Q 13.765625 71.78125 18.9375 73 
Q 24.125 74.21875 28.421875 74.21875 
Q 39.75 74.21875 46.484375 68.546875 
Q 53.21875 62.890625 53.21875 53.421875 
Q 53.21875 48.921875 51.53125 44.890625 
Q 49.859375 40.875 45.40625 35.40625 
Q 44.1875 33.984375 37.640625 27.21875 
Q 31.109375 20.453125 19.1875 8.296875 
z
" id="DejaVuSans-50"/>
       <path d="M 10.796875 72.90625 
L 49.515625 72.90625 
L 49.515625 64.59375 
L 19.828125 64.59375 
L 19.828125 46.734375 
Q 21.96875 47.46875 24.109375 47.828125 
Q 26.265625 48.1875 28.421875 48.1875 
Q 40.625 48.1875 47.75 41.5 
Q 54.890625 34.8125 54.890625 23.390625 
Q 54.890625 11.625 47.5625 5.09375 
Q 40.234375 -1.421875 26.90625 -1.421875 
Q 22.3125 -1.421875 17.546875 -0.640625 
Q 12.796875 0.140625 7.71875 1.703125 
L 7.71875 11.625 
Q 12.109375 9.234375 16.796875 8.0625 
Q 21.484375 6.890625 26.703125 6.890625 
Q 35.15625 6.890625 40.078125 11.328125 
Q 45.015625 15.765625 45.015625 23.390625 
Q 45.015625 31 40.078125 35.4375 
Q 35.15625 39.890625 26.703125 39.890625 
Q 22.75 39.890625 18.8125 39.015625 
Q 14.890625 38.140625 10.796875 36.28125 
z
" id="DejaVuSans-53"/>
      </defs>
      <g style="fill:#0000ff;" transform="translate(40.568125 136.683451)scale(0.08 -0.08)">
       <use xlink:href="#DejaVuSans-50"/>
       <use x="63.623047" xlink:href="#DejaVuSans-53"/>
       <use x="127.246094" xlink:href="#DejaVuSans-48"/>
       <use x="190.869141" xlink:href="#DejaVuSans-48"/>
       <use x="254.492188" xlink:href="#DejaVuSans-48"/>
      </g>
     </g>
    </g>
    <g id="ytick_3">
     <g id="line2d_23">
      <g>
       <use style="stroke:#000000;stroke-width:0.8;" x="73.018125" xlink:href="#md445e34aa4" y="115.886386"/>
      </g>
     </g>
     <g id="text_23">
      <!-- 50000 -->
      <g style="fill:#0000ff;" transform="translate(40.568125 118.925761)scale(0.08 -0.08)">
       <use xlink:href="#DejaVuSans-53"/>
       <use x="63.623047" xlink:href="#DejaVuSans-48"/>
       <use x="127.246094" xlink:href="#DejaVuSans-48"/>
       <use x="190.869141" xlink:href="#DejaVuSans-48"/>
       <use x="254.492188" xlink:href="#DejaVuSans-48"/>
      </g>
     </g>
    </g>
    <g id="ytick_4">
     <g id="line2d_24">
      <g>
       <use style="stroke:#000000;stroke-width:0.8;" x="73.018125" xlink:href="#md445e34aa4" y="98.128697"/>
      </g>
     </g>
     <g id="text_24">
      <!-- 75000 -->
      <defs>
       <path d="M 8.203125 72.90625 
L 55.078125 72.90625 
L 55.078125 68.703125 
L 28.609375 0 
L 18.3125 0 
L 43.21875 64.59375 
L 8.203125 64.59375 
z
" id="DejaVuSans-55"/>
      </defs>
      <g style="fill:#0000ff;" transform="translate(40.568125 101.168072)scale(0.08 -0.08)">
       <use xlink:href="#DejaVuSans-55"/>
       <use x="63.623047" xlink:href="#DejaVuSans-53"/>
       <use x="127.246094" xlink:href="#DejaVuSans-48"/>
       <use x="190.869141" xlink:href="#DejaVuSans-48"/>
       <use x="254.492188" xlink:href="#DejaVuSans-48"/>
      </g>
     </g>
    </g>
    <g id="ytick_5">
     <g id="line2d_25">
      <g>
       <use style="stroke:#000000;stroke-width:0.8;" x="73.018125" xlink:href="#md445e34aa4" y="80.371007"/>
      </g>
     </g>
     <g id="text_25">
      <!-- 100000 -->
      <defs>
       <path d="M 12.40625 8.296875 
L 28.515625 8.296875 
L 28.515625 63.921875 
L 10.984375 60.40625 
L 10.984375 69.390625 
L 28.421875 72.90625 
L 38.28125 72.90625 
L 38.28125 8.296875 
L 54.390625 8.296875 
L 54.390625 0 
L 12.40625 0 
z
" id="DejaVuSans-49"/>
      </defs>
      <g style="fill:#0000ff;" transform="translate(35.478125 83.410382)scale(0.08 -0.08)">
       <use xlink:href="#DejaVuSans-49"/>
       <use x="63.623047" xlink:href="#DejaVuSans-48"/>
       <use x="127.246094" xlink:href="#DejaVuSans-48"/>
       <use x="190.869141" xlink:href="#DejaVuSans-48"/>
       <use x="254.492188" xlink:href="#DejaVuSans-48"/>
       <use x="318.115234" xlink:href="#DejaVuSans-48"/>
      </g>
     </g>
    </g>
    <g id="ytick_6">
     <g id="line2d_26">
      <g>
       <use style="stroke:#000000;stroke-width:0.8;" x="73.018125" xlink:href="#md445e34aa4" y="62.613317"/>
      </g>
     </g>
     <g id="text_26">
      <!-- 125000 -->
      <g style="fill:#0000ff;" transform="translate(35.478125 65.652692)scale(0.08 -0.08)">
       <use xlink:href="#DejaVuSans-49"/>
       <use x="63.623047" xlink:href="#DejaVuSans-50"/>
       <use x="127.246094" xlink:href="#DejaVuSans-53"/>
       <use x="190.869141" xlink:href="#DejaVuSans-48"/>
       <use x="254.492188" xlink:href="#DejaVuSans-48"/>
       <use x="318.115234" xlink:href="#DejaVuSans-48"/>
      </g>
     </g>
    </g>
    <g id="ytick_7">
     <g id="line2d_27">
      <g>
       <use style="stroke:#000000;stroke-width:0.8;" x="73.018125" xlink:href="#md445e34aa4" y="44.855627"/>
      </g>
     </g>
     <g id="text_27">
      <!-- 150000 -->
      <g style="fill:#0000ff;" transform="translate(35.478125 47.895002)scale(0.08 -0.08)">
       <use xlink:href="#DejaVuSans-49"/>
       <use x="63.623047" xlink:href="#DejaVuSans-53"/>
       <use x="127.246094" xlink:href="#DejaVuSans-48"/>
       <use x="190.869141" xlink:href="#DejaVuSans-48"/>
       <use x="254.492188" xlink:href="#DejaVuSans-48"/>
       <use x="318.115234" xlink:href="#DejaVuSans-48"/>
      </g>
     </g>
    </g>
    <g id="ytick_8">
     <g id="line2d_28">
      <g>
       <use style="stroke:#000000;stroke-width:0.8;" x="73.018125" xlink:href="#md445e34aa4" y="27.097937"/>
      </g>
     </g>
     <g id="text_28">
      <!-- 175000 -->
      <g style="fill:#0000ff;" transform="translate(35.478125 30.137312)scale(0.08 -0.08)">
       <use xlink:href="#DejaVuSans-49"/>
       <use x="63.623047" xlink:href="#DejaVuSans-55"/>
       <use x="127.246094" xlink:href="#DejaVuSans-53"/>
       <use x="190.869141" xlink:href="#DejaVuSans-48"/>
       <use x="254.492188" xlink:href="#DejaVuSans-48"/>
       <use x="318.115234" xlink:href="#DejaVuSans-48"/>
      </g>
     </g>
    </g>
    <g id="text_29">
     <!-- Number of reactions -->
     <g style="fill:#0000ff;" transform="translate(18.398438 133.802822)rotate(-90)scale(0.1 -0.1)">
      <use xlink:href="#DejaVuSans-78"/>
      <use x="74.804688" xlink:href="#DejaVuSans-117"/>
      <use x="138.183594" xlink:href="#DejaVuSans-109"/>
      <use x="235.595703" xlink:href="#DejaVuSans-98"/>
      <use x="299.072266" xlink:href="#DejaVuSans-101"/>
      <use x="360.595703" xlink:href="#DejaVuSans-114"/>
      <use x="401.708984" xlink:href="#DejaVuSans-32"/>
      <use x="433.496094" xlink:href="#DejaVuSans-111"/>
      <use x="494.677734" xlink:href="#DejaVuSans-102"/>
      <use x="529.882812" xlink:href="#DejaVuSans-32"/>
      <use x="561.669922" xlink:href="#DejaVuSans-114"/>
      <use x="600.533203" xlink:href="#DejaVuSans-101"/>
      <use x="662.056641" xlink:href="#DejaVuSans-97"/>
      <use x="723.335938" xlink:href="#DejaVuSans-99"/>
      <use x="778.316406" xlink:href="#DejaVuSans-116"/>
      <use x="817.525391" xlink:href="#DejaVuSans-105"/>
      <use x="845.308594" xlink:href="#DejaVuSans-111"/>
      <use x="906.490234" xlink:href="#DejaVuSans-110"/>
      <use x="969.869141" xlink:href="#DejaVuSans-115"/>
     </g>
    </g>
   </g>
   <g id="patch_43">
    <path d="M 73.018125 151.401766 
L 73.018125 14.007003 
" style="fill:none;stroke:#000000;stroke-linecap:square;stroke-linejoin:miter;stroke-width:0.8;"/>
   </g>
   <g id="patch_44">
    <path d="M 383.93 151.401766 
L 383.93 14.007003 
" style="fill:none;stroke:#000000;stroke-linecap:square;stroke-linejoin:miter;stroke-width:0.8;"/>
   </g>
   <g id="patch_45">
    <path d="M 73.018125 151.401766 
L 383.93 151.401766 
" style="fill:none;stroke:#000000;stroke-linecap:square;stroke-linejoin:miter;stroke-width:0.8;"/>
   </g>
   <g id="patch_46">
    <path d="M 73.018125 14.007003 
L 383.93 14.007003 
" style="fill:none;stroke:#000000;stroke-linecap:square;stroke-linejoin:miter;stroke-width:0.8;"/>
   </g>
   <g id="legend_1">
    <g id="patch_47">
     <path d="M 77.918125 40.156378 
L 244.607812 40.156378 
Q 246.007812 40.156378 246.007812 38.756378 
L 246.007812 18.907003 
Q 246.007812 17.507003 244.607812 17.507003 
L 77.918125 17.507003 
Q 76.518125 17.507003 76.518125 18.907003 
L 76.518125 38.756378 
Q 76.518125 40.156378 77.918125 40.156378 
z
" style="fill:#ffffff;opacity:0.8;stroke:#cccccc;stroke-linejoin:miter;"/>
    </g>
    <g id="patch_48">
     <path d="M 79.318125 25.62591 
L 93.318125 25.62591 
L 93.318125 20.72591 
L 79.318125 20.72591 
z
" style="fill:#0000ff;opacity:0.4;"/>
    </g>
    <g id="text_30">
     <!-- Original reactions -->
     <defs>
      <path d="M 39.40625 66.21875 
Q 28.65625 66.21875 22.328125 58.203125 
Q 16.015625 50.203125 16.015625 36.375 
Q 16.015625 22.609375 22.328125 14.59375 
Q 28.65625 6.59375 39.40625 6.59375 
Q 50.140625 6.59375 56.421875 14.59375 
Q 62.703125 22.609375 62.703125 36.375 
Q 62.703125 50.203125 56.421875 58.203125 
Q 50.140625 66.21875 39.40625 66.21875 
z
M 39.40625 74.21875 
Q 54.734375 74.21875 63.90625 63.9375 
Q 73.09375 53.65625 73.09375 36.375 
Q 73.09375 19.140625 63.90625 8.859375 
Q 54.734375 -1.421875 39.40625 -1.421875 
Q 24.03125 -1.421875 14.8125 8.828125 
Q 5.609375 19.09375 5.609375 36.375 
Q 5.609375 53.65625 14.8125 63.9375 
Q 24.03125 74.21875 39.40625 74.21875 
z
" id="DejaVuSans-79"/>
     </defs>
     <g transform="translate(98.918125 25.62591)scale(0.07 -0.07)">
      <use xlink:href="#DejaVuSans-79"/>
      <use x="78.710938" xlink:href="#DejaVuSans-114"/>
      <use x="119.824219" xlink:href="#DejaVuSans-105"/>
      <use x="147.607422" xlink:href="#DejaVuSans-103"/>
      <use x="211.083984" xlink:href="#DejaVuSans-105"/>
      <use x="238.867188" xlink:href="#DejaVuSans-110"/>
      <use x="302.246094" xlink:href="#DejaVuSans-97"/>
      <use x="363.525391" xlink:href="#DejaVuSans-108"/>
      <use x="391.308594" xlink:href="#DejaVuSans-32"/>
      <use x="423.095703" xlink:href="#DejaVuSans-114"/>
      <use x="461.958984" xlink:href="#DejaVuSans-101"/>
      <use x="523.482422" xlink:href="#DejaVuSans-97"/>
      <use x="584.761719" xlink:href="#DejaVuSans-99"/>
      <use x="639.742188" xlink:href="#DejaVuSans-116"/>
      <use x="678.951172" xlink:href="#DejaVuSans-105"/>
      <use x="706.734375" xlink:href="#DejaVuSans-111"/>
      <use x="767.916016" xlink:href="#DejaVuSans-110"/>
      <use x="831.294922" xlink:href="#DejaVuSans-115"/>
     </g>
    </g>
    <g id="patch_49">
     <path d="M 79.318125 35.900597 
L 93.318125 35.900597 
L 93.318125 31.000597 
L 79.318125 31.000597 
z
" style="fill:#0000ff;"/>
    </g>
    <g id="text_31">
     <!-- Reactions after template-guided curation -->
     <g transform="translate(98.918125 35.900597)scale(0.07 -0.07)">
      <use xlink:href="#DejaVuSans-82"/>
      <use x="64.982422" xlink:href="#DejaVuSans-101"/>
      <use x="126.505859" xlink:href="#DejaVuSans-97"/>
      <use x="187.785156" xlink:href="#DejaVuSans-99"/>
      <use x="242.765625" xlink:href="#DejaVuSans-116"/>
      <use x="281.974609" xlink:href="#DejaVuSans-105"/>
      <use x="309.757812" xlink:href="#DejaVuSans-111"/>
      <use x="370.939453" xlink:href="#DejaVuSans-110"/>
      <use x="434.318359" xlink:href="#DejaVuSans-115"/>
      <use x="486.417969" xlink:href="#DejaVuSans-32"/>
      <use x="518.205078" xlink:href="#DejaVuSans-97"/>
      <use x="579.484375" xlink:href="#DejaVuSans-102"/>
      <use x="612.939453" xlink:href="#DejaVuSans-116"/>
      <use x="652.148438" xlink:href="#DejaVuSans-101"/>
      <use x="713.671875" xlink:href="#DejaVuSans-114"/>
      <use x="754.785156" xlink:href="#DejaVuSans-32"/>
      <use x="786.572266" xlink:href="#DejaVuSans-116"/>
      <use x="825.78125" xlink:href="#DejaVuSans-101"/>
      <use x="887.304688" xlink:href="#DejaVuSans-109"/>
      <use x="984.716797" xlink:href="#DejaVuSans-112"/>
      <use x="1048.193359" xlink:href="#DejaVuSans-108"/>
      <use x="1075.976562" xlink:href="#DejaVuSans-97"/>
      <use x="1137.255859" xlink:href="#DejaVuSans-116"/>
      <use x="1176.464844" xlink:href="#DejaVuSans-101"/>
      <use x="1237.988281" xlink:href="#DejaVuSans-45"/>
      <use x="1274.072266" xlink:href="#DejaVuSans-103"/>
      <use x="1337.548828" xlink:href="#DejaVuSans-117"/>
      <use x="1400.927734" xlink:href="#DejaVuSans-105"/>
      <use x="1428.710938" xlink:href="#DejaVuSans-100"/>
      <use x="1492.1875" xlink:href="#DejaVuSans-101"/>
      <use x="1553.710938" xlink:href="#DejaVuSans-100"/>
      <use x="1617.1875" xlink:href="#DejaVuSans-32"/>
      <use x="1648.974609" xlink:href="#DejaVuSans-99"/>
      <use x="1703.955078" xlink:href="#DejaVuSans-117"/>
      <use x="1767.333984" xlink:href="#DejaVuSans-114"/>
      <use x="1808.447266" xlink:href="#DejaVuSans-97"/>
      <use x="1869.726562" xlink:href="#DejaVuSans-116"/>
      <use x="1908.935547" xlink:href="#DejaVuSans-105"/>
      <use x="1936.71875" xlink:href="#DejaVuSans-111"/>
      <use x="1997.900391" xlink:href="#DejaVuSans-110"/>
     </g>
    </g>
   </g>
  </g>
  <g id="axes_2">
   <g id="patch_50">
    <path clip-path="url(#p4a1049119e)" d="M 91.476715 151.401766 
L 95.802947 151.401766 
L 95.802947 128.310209 
L 91.476715 128.310209 
z
" style="fill:#d62728;"/>
   </g>
   <g id="patch_51">
    <path clip-path="url(#p4a1049119e)" d="M 105.897488 151.401766 
L 110.22372 151.401766 
L 110.22372 115.481567 
L 105.897488 115.481567 
z
" style="fill:#d62728;"/>
   </g>
   <g id="patch_52">
    <path clip-path="url(#p4a1049119e)" d="M 120.318262 151.401766 
L 124.644494 151.401766 
L 124.644494 110.35011 
L 120.318262 110.35011 
z
" style="fill:#d62728;"/>
   </g>
   <g id="patch_53">
    <path clip-path="url(#p4a1049119e)" d="M 134.739035 151.401766 
L 139.065267 151.401766 
L 139.065267 133.014045 
L 134.739035 133.014045 
z
" style="fill:#d62728;"/>
   </g>
   <g id="patch_54">
    <path clip-path="url(#p4a1049119e)" d="M 149.159809 151.401766 
L 153.486041 151.401766 
L 153.486041 41.075439 
L 149.159809 41.075439 
z
" style="fill:#d62728;"/>
   </g>
   <g id="patch_55">
    <path clip-path="url(#p4a1049119e)" d="M 163.580582 151.401766 
L 167.906814 151.401766 
L 167.906814 139.428366 
L 163.580582 139.428366 
z
" style="fill:#d62728;"/>
   </g>
   <g id="patch_56">
    <path clip-path="url(#p4a1049119e)" d="M 178.001356 151.401766 
L 182.327588 151.401766 
L 182.327588 100.942439 
L 178.001356 100.942439 
z
" style="fill:#d62728;"/>
   </g>
   <g id="patch_57">
    <path clip-path="url(#p4a1049119e)" d="M 192.422129 151.401766 
L 196.748361 151.401766 
L 196.748361 81.271853 
L 192.422129 81.271853 
z
" style="fill:#d62728;"/>
   </g>
   <g id="patch_58">
    <path clip-path="url(#p4a1049119e)" d="M 206.842902 151.401766 
L 211.169134 151.401766 
L 211.169134 85.548067 
L 206.842902 85.548067 
z
" style="fill:#d62728;"/>
   </g>
   <g id="patch_59">
    <path clip-path="url(#p4a1049119e)" d="M 221.263676 151.401766 
L 225.589908 151.401766 
L 225.589908 106.073896 
L 221.263676 106.073896 
z
" style="fill:#d62728;"/>
   </g>
   <g id="patch_60">
    <path clip-path="url(#p4a1049119e)" d="M 235.684449 151.401766 
L 240.010681 151.401766 
L 240.010681 89.824282 
L 235.684449 89.824282 
z
" style="fill:#d62728;"/>
   </g>
   <g id="patch_61">
    <path clip-path="url(#p4a1049119e)" d="M 250.105223 151.401766 
L 254.431455 151.401766 
L 254.431455 20.549611 
L 250.105223 20.549611 
z
" style="fill:#d62728;"/>
   </g>
   <g id="patch_62">
    <path clip-path="url(#p4a1049119e)" d="M 264.525996 151.401766 
L 268.852228 151.401766 
L 268.852228 145.415066 
L 264.525996 145.415066 
z
" style="fill:#d62728;"/>
   </g>
   <g id="patch_63">
    <path clip-path="url(#p4a1049119e)" d="M 278.946769 151.401766 
L 283.273002 151.401766 
L 283.273002 116.33681 
L 278.946769 116.33681 
z
" style="fill:#d62728;"/>
   </g>
   <g id="patch_64">
    <path clip-path="url(#p4a1049119e)" d="M 293.367543 151.401766 
L 297.693775 151.401766 
L 297.693775 35.516361 
L 293.367543 35.516361 
z
" style="fill:#d62728;"/>
   </g>
   <g id="patch_65">
    <path clip-path="url(#p4a1049119e)" d="M 307.788316 151.401766 
L 312.114548 151.401766 
L 312.114548 88.969039 
L 307.788316 88.969039 
z
" style="fill:#d62728;"/>
   </g>
   <g id="patch_66">
    <path clip-path="url(#p4a1049119e)" d="M 322.20909 151.401766 
L 326.535322 151.401766 
L 326.535322 143.276959 
L 322.20909 143.276959 
z
" style="fill:#d62728;"/>
   </g>
   <g id="patch_67">
    <path clip-path="url(#p4a1049119e)" d="M 336.629863 151.401766 
L 340.956095 151.401766 
L 340.956095 144.559824 
L 336.629863 144.559824 
z
" style="fill:#d62728;"/>
   </g>
   <g id="patch_68">
    <path clip-path="url(#p4a1049119e)" d="M 351.050637 151.401766 
L 355.376869 151.401766 
L 355.376869 59.035539 
L 351.050637 59.035539 
z
" style="fill:#d62728;"/>
   </g>
   <g id="patch_69">
    <path clip-path="url(#p4a1049119e)" d="M 365.47141 151.401766 
L 369.797642 151.401766 
L 369.797642 111.205353 
L 365.47141 111.205353 
z
" style="fill:#d62728;"/>
   </g>
   <g id="matplotlib.axis_3">
    <g id="ytick_9">
     <g id="line2d_29">
      <defs>
       <path d="M 0 0 
L 3.5 0 
" id="m204504dad0" style="stroke:#000000;stroke-width:0.8;"/>
      </defs>
      <g>
       <use style="stroke:#000000;stroke-width:0.8;" x="383.93" xlink:href="#m204504dad0" y="151.401766"/>
      </g>
     </g>
     <g id="text_32">
      <!-- 0 -->
      <g style="fill:#d62728;" transform="translate(390.93 154.441141)scale(0.08 -0.08)">
       <use xlink:href="#DejaVuSans-48"/>
      </g>
     </g>
    </g>
    <g id="ytick_10">
     <g id="line2d_30">
      <g>
       <use style="stroke:#000000;stroke-width:0.8;" x="383.93" xlink:href="#m204504dad0" y="130.020695"/>
      </g>
     </g>
     <g id="text_33">
      <!-- 50 -->
      <g style="fill:#d62728;" transform="translate(390.93 133.06007)scale(0.08 -0.08)">
       <use xlink:href="#DejaVuSans-53"/>
       <use x="63.623047" xlink:href="#DejaVuSans-48"/>
      </g>
     </g>
    </g>
    <g id="ytick_11">
     <g id="line2d_31">
      <g>
       <use style="stroke:#000000;stroke-width:0.8;" x="383.93" xlink:href="#m204504dad0" y="108.639624"/>
      </g>
     </g>
     <g id="text_34">
      <!-- 100 -->
      <g style="fill:#d62728;" transform="translate(390.93 111.678999)scale(0.08 -0.08)">
       <use xlink:href="#DejaVuSans-49"/>
       <use x="63.623047" xlink:href="#DejaVuSans-48"/>
       <use x="127.246094" xlink:href="#DejaVuSans-48"/>
      </g>
     </g>
    </g>
    <g id="ytick_12">
     <g id="line2d_32">
      <g>
       <use style="stroke:#000000;stroke-width:0.8;" x="383.93" xlink:href="#m204504dad0" y="87.258553"/>
      </g>
     </g>
     <g id="text_35">
      <!-- 150 -->
      <g style="fill:#d62728;" transform="translate(390.93 90.297928)scale(0.08 -0.08)">
       <use xlink:href="#DejaVuSans-49"/>
       <use x="63.623047" xlink:href="#DejaVuSans-53"/>
       <use x="127.246094" xlink:href="#DejaVuSans-48"/>
      </g>
     </g>
    </g>
    <g id="ytick_13">
     <g id="line2d_33">
      <g>
       <use style="stroke:#000000;stroke-width:0.8;" x="383.93" xlink:href="#m204504dad0" y="65.877482"/>
      </g>
     </g>
     <g id="text_36">
      <!-- 200 -->
      <g style="fill:#d62728;" transform="translate(390.93 68.916857)scale(0.08 -0.08)">
       <use xlink:href="#DejaVuSans-50"/>
       <use x="63.623047" xlink:href="#DejaVuSans-48"/>
       <use x="127.246094" xlink:href="#DejaVuSans-48"/>
      </g>
     </g>
    </g>
    <g id="ytick_14">
     <g id="line2d_34">
      <g>
       <use style="stroke:#000000;stroke-width:0.8;" x="383.93" xlink:href="#m204504dad0" y="44.496411"/>
      </g>
     </g>
     <g id="text_37">
      <!-- 250 -->
      <g style="fill:#d62728;" transform="translate(390.93 47.535786)scale(0.08 -0.08)">
       <use xlink:href="#DejaVuSans-50"/>
       <use x="63.623047" xlink:href="#DejaVuSans-53"/>
       <use x="127.246094" xlink:href="#DejaVuSans-48"/>
      </g>
     </g>
    </g>
    <g id="ytick_15">
     <g id="line2d_35">
      <g>
       <use style="stroke:#000000;stroke-width:0.8;" x="383.93" xlink:href="#m204504dad0" y="23.11534"/>
      </g>
     </g>
     <g id="text_38">
      <!-- 300 -->
      <defs>
       <path d="M 40.578125 39.3125 
Q 47.65625 37.796875 51.625 33 
Q 55.609375 28.21875 55.609375 21.1875 
Q 55.609375 10.40625 48.1875 4.484375 
Q 40.765625 -1.421875 27.09375 -1.421875 
Q 22.515625 -1.421875 17.65625 -0.515625 
Q 12.796875 0.390625 7.625 2.203125 
L 7.625 11.71875 
Q 11.71875 9.328125 16.59375 8.109375 
Q 21.484375 6.890625 26.8125 6.890625 
Q 36.078125 6.890625 40.9375 10.546875 
Q 45.796875 14.203125 45.796875 21.1875 
Q 45.796875 27.640625 41.28125 31.265625 
Q 36.765625 34.90625 28.71875 34.90625 
L 20.21875 34.90625 
L 20.21875 43.015625 
L 29.109375 43.015625 
Q 36.375 43.015625 40.234375 45.921875 
Q 44.09375 48.828125 44.09375 54.296875 
Q 44.09375 59.90625 40.109375 62.90625 
Q 36.140625 65.921875 28.71875 65.921875 
Q 24.65625 65.921875 20.015625 65.03125 
Q 15.375 64.15625 9.8125 62.3125 
L 9.8125 71.09375 
Q 15.4375 72.65625 20.34375 73.4375 
Q 25.25 74.21875 29.59375 74.21875 
Q 40.828125 74.21875 47.359375 69.109375 
Q 53.90625 64.015625 53.90625 55.328125 
Q 53.90625 49.265625 50.4375 45.09375 
Q 46.96875 40.921875 40.578125 39.3125 
z
" id="DejaVuSans-51"/>
      </defs>
      <g style="fill:#d62728;" transform="translate(390.93 26.154715)scale(0.08 -0.08)">
       <use xlink:href="#DejaVuSans-51"/>
       <use x="63.623047" xlink:href="#DejaVuSans-48"/>
       <use x="127.246094" xlink:href="#DejaVuSans-48"/>
      </g>
     </g>
    </g>
    <g id="text_39">
     <!-- Number of generic templates -->
     <g style="fill:#d62728;" transform="translate(413.601563 9.166104)rotate(-270)scale(0.1 -0.1)">
      <use xlink:href="#DejaVuSans-78"/>
      <use x="74.804688" xlink:href="#DejaVuSans-117"/>
      <use x="138.183594" xlink:href="#DejaVuSans-109"/>
      <use x="235.595703" xlink:href="#DejaVuSans-98"/>
      <use x="299.072266" xlink:href="#DejaVuSans-101"/>
      <use x="360.595703" xlink:href="#DejaVuSans-114"/>
      <use x="401.708984" xlink:href="#DejaVuSans-32"/>
      <use x="433.496094" xlink:href="#DejaVuSans-111"/>
      <use x="494.677734" xlink:href="#DejaVuSans-102"/>
      <use x="529.882812" xlink:href="#DejaVuSans-32"/>
      <use x="561.669922" xlink:href="#DejaVuSans-103"/>
      <use x="625.146484" xlink:href="#DejaVuSans-101"/>
      <use x="686.669922" xlink:href="#DejaVuSans-110"/>
      <use x="750.048828" xlink:href="#DejaVuSans-101"/>
      <use x="811.572266" xlink:href="#DejaVuSans-114"/>
      <use x="852.685547" xlink:href="#DejaVuSans-105"/>
      <use x="880.46875" xlink:href="#DejaVuSans-99"/>
      <use x="935.449219" xlink:href="#DejaVuSans-32"/>
      <use x="967.236328" xlink:href="#DejaVuSans-116"/>
      <use x="1006.445312" xlink:href="#DejaVuSans-101"/>
      <use x="1067.96875" xlink:href="#DejaVuSans-109"/>
      <use x="1165.380859" xlink:href="#DejaVuSans-112"/>
      <use x="1228.857422" xlink:href="#DejaVuSans-108"/>
      <use x="1256.640625" xlink:href="#DejaVuSans-97"/>
      <use x="1317.919922" xlink:href="#DejaVuSans-116"/>
      <use x="1357.128906" xlink:href="#DejaVuSans-101"/>
      <use x="1418.652344" xlink:href="#DejaVuSans-115"/>
     </g>
    </g>
   </g>
   <g id="patch_70">
    <path d="M 73.018125 151.401766 
L 73.018125 14.007003 
" style="fill:none;stroke:#000000;stroke-linecap:square;stroke-linejoin:miter;stroke-width:0.8;"/>
   </g>
   <g id="patch_71">
    <path d="M 383.93 151.401766 
L 383.93 14.007003 
" style="fill:none;stroke:#000000;stroke-linecap:square;stroke-linejoin:miter;stroke-width:0.8;"/>
   </g>
   <g id="patch_72">
    <path d="M 73.018125 151.401766 
L 383.93 151.401766 
" style="fill:none;stroke:#000000;stroke-linecap:square;stroke-linejoin:miter;stroke-width:0.8;"/>
   </g>
   <g id="patch_73">
    <path d="M 73.018125 14.007003 
L 383.93 14.007003 
" style="fill:none;stroke:#000000;stroke-linecap:square;stroke-linejoin:miter;stroke-width:0.8;"/>
   </g>
   <g id="legend_2">
    <g id="patch_74">
     <path d="M 292.013438 29.881691 
L 379.03 29.881691 
Q 380.43 29.881691 380.43 28.481691 
L 380.43 18.907003 
Q 380.43 17.507003 379.03 17.507003 
L 292.013438 17.507003 
Q 290.613438 17.507003 290.613438 18.907003 
L 290.613438 28.481691 
Q 290.613438 29.881691 292.013438 29.881691 
z
" style="fill:#ffffff;opacity:0.8;stroke:#cccccc;stroke-linejoin:miter;"/>
    </g>
    <g id="patch_75">
     <path d="M 293.413438 25.62591 
L 307.413438 25.62591 
L 307.413438 20.72591 
L 293.413438 20.72591 
z
" style="fill:#d62728;"/>
    </g>
    <g id="text_40">
     <!-- Generic templates -->
     <g transform="translate(313.013438 25.62591)scale(0.07 -0.07)">
      <use xlink:href="#DejaVuSans-71"/>
      <use x="77.490234" xlink:href="#DejaVuSans-101"/>
      <use x="139.013672" xlink:href="#DejaVuSans-110"/>
      <use x="202.392578" xlink:href="#DejaVuSans-101"/>
      <use x="263.916016" xlink:href="#DejaVuSans-114"/>
      <use x="305.029297" xlink:href="#DejaVuSans-105"/>
      <use x="332.8125" xlink:href="#DejaVuSans-99"/>
      <use x="387.792969" xlink:href="#DejaVuSans-32"/>
      <use x="419.580078" xlink:href="#DejaVuSans-116"/>
      <use x="458.789062" xlink:href="#DejaVuSans-101"/>
      <use x="520.3125" xlink:href="#DejaVuSans-109"/>
      <use x="617.724609" xlink:href="#DejaVuSans-112"/>
      <use x="681.201172" xlink:href="#DejaVuSans-108"/>
      <use x="708.984375" xlink:href="#DejaVuSans-97"/>
      <use x="770.263672" xlink:href="#DejaVuSans-116"/>
      <use x="809.472656" xlink:href="#DejaVuSans-101"/>
      <use x="870.996094" xlink:href="#DejaVuSans-115"/>
     </g>
    </g>
   </g>
  </g>
 </g>
 <defs>
  <clipPath id="p4a1049119e">
   <rect height="137.394763" width="310.911875" x="73.018125" y="14.007003"/>
  </clipPath>
 </defs>
</svg>
